<svg width="236" height="236" viewBox="0 0 236 236" fill="none" xmlns="http://www.w3.org/2000/svg">
<rect x="4" y="4" width="228" height="228" rx="114" fill="white"/>
<rect x="4" y="4" width="228" height="228" rx="114" stroke="#F0F0F0" stroke-width="8"/>
<path d="M163.745 31.2829C163.745 29.7595 159.193 30.3937 158.222 30.3937C155.296 30.3937 150.143 30.6896 149.34 34.3063C148.606 37.6072 147.354 40.9909 147.215 44.3939C147.147 46.0811 147.18 47.7929 147.206 49.4822C147.232 51.1826 148.33 52.7098 149.271 54.0469C151.137 56.7015 153.836 57.8888 156.987 56.6355C158.225 56.143 159.338 55.3096 160.366 54.4816C162.923 52.4216 165.307 50.4174 167.045 47.5655C168.417 45.3141 169.258 43.464 169.258 40.8865C169.258 38.4906 168.1 37.3371 166.274 35.8673C165.846 35.5223 164.812 34.8726 164.812 34.2667C164.812 33.834 165.045 32.3777 164.634 32.1721" stroke="black" stroke-width="3" stroke-linecap="round"/>
<path d="M171.392 42.3092C175.367 41.564 178.93 38.7378 182.675 37.3592C185.743 36.23 190.105 35.0835 190.421 31.2829" stroke="black" stroke-width="3" stroke-linecap="round"/>
<path d="M165.879 30.2159C168.338 30.2159 170.666 28.9044 172.805 27.8348C174.887 26.794 177.284 27.5554 179.217 26.4812" stroke="black" stroke-width="3" stroke-linecap="round"/>
<path d="M161.611 28.971C161.611 23.3238 166.743 19.049 169.614 14.7435" stroke="black" stroke-width="3" stroke-linecap="round"/>
<path d="M155.386 28.4374C155.386 25.1305 157.137 21.4231 158.657 18.5869C159.252 17.4759 161.235 15.4549 162.678 15.4549" stroke="black" stroke-width="3" stroke-linecap="round"/>
<path d="M162.678 55.1139C162.334 55.4959 161.282 57.9191 162.154 58.1373C163.196 58.3977 164.38 58.4929 165.454 58.4929C166.408 58.4929 167.798 59.0893 168.369 58.1373" stroke="black" stroke-width="3" stroke-linecap="round"/>
<path d="M169.08 60.4492C168.261 60.5516 170.325 61.3274 170.444 61.3384C171.742 61.4592 173.117 61.6839 174.376 61.2199C175.191 60.9195 175.8 60.2907 176.55 59.9157" stroke="black" stroke-width="3" stroke-linecap="round"/>
<path d="M170.859 62.939C170.859 63.759 170.859 64.5791 170.859 65.3992C170.859 65.4275 170.807 66.4262 170.997 66.2785C172.043 65.465 173.348 64.9843 174.416 64.1839" stroke="black" stroke-width="3" stroke-linecap="round"/>
<path d="M171.214 66.4959C171.214 67.5396 171.315 68.0904 172.034 68.9165C173.188 70.2414 174.103 71.7902 175.404 72.9872C176.709 74.1881 178.076 75.2653 179.751 75.7437C180.531 75.9665 180.911 75.7816 181.668 75.7042C184.256 75.4395 186.843 75.142 189.433 74.894C191.576 74.6889 193.787 74.7441 195.757 73.7874C196.1 73.6206 196.853 73.7283 197.002 73.4318" stroke="black" stroke-width="3" stroke-linecap="round"/>
<path d="M197.002 73.4318C198.454 71.8754 200.093 70.3798 201.359 68.6695C203.418 65.8878 204.93 62.7354 206.062 59.481C206.793 57.3796 207.456 55.2275 208.324 53.1774C208.953 51.6945 209.755 50.1415 209.984 48.5337" stroke="black" stroke-width="3" stroke-linecap="round"/>
<path d="M195.935 73.6096C195.935 74.1327 196.465 75.3839 196.784 75.7832C196.993 76.0436 196.685 77.5298 197.357 76.6329" stroke="black" stroke-width="3" stroke-linecap="round"/>
<path d="M196.468 76.8108C192.743 76.8108 190.961 80.027 189.71 83.1539C188.897 85.1864 188.533 87.1418 187.872 89.0029C186.512 92.8365 185.031 96.5016 183.416 100.227C182.719 101.836 181.961 103.269 181.44 104.989C180.952 106.605 180.252 108.075 179.573 109.603C178.234 112.616 183.641 113.006 185.264 113.98" stroke="black" stroke-width="3" stroke-linecap="round"/>
<path d="M199.492 78.5892C200.012 78.7783 200.452 79.5605 200.835 79.9329C202.168 81.2275 203.67 82.2723 205.143 83.391C205.487 83.652 205.475 83.7175 205.538 83.3515C205.615 82.9025 205.916 82.4464 206.131 82.067C206.922 80.6733 207.725 79.2822 208.532 77.8976C210.748 74.0952 213.696 70.833 216.031 67.1183C216.641 66.1479 217.201 65.1744 217.622 64.1049C217.841 63.5478 218.053 63.0096 218.343 62.4845C218.676 61.8812 218.735 62.0498 218.343 62.0498" stroke="black" stroke-width="3" stroke-linecap="round"/>
<path d="M73.0577 147.571C73.6346 147.413 74.0381 146.882 74.4546 146.488C76.5295 144.524 78.9051 142.933 81.23 141.284C84.9371 138.656 88.3716 136.617 92.5803 134.998C97.9268 132.942 103.967 132.49 109.623 131.925C110.479 131.839 111.644 131.681 112.505 131.872C114.307 132.273 115.915 131.387 117.621 130.597C123.28 127.979 128.696 126.893 134.978 126.826C140.804 126.763 146.713 127.998 152.51 127.384C154.663 127.156 156.936 126.611 159.059 126.18C162.759 125.427 166.643 125.252 170.252 124.136C171.95 123.612 172.805 123.02 173.64 121.482C174.202 120.446 175.18 119.989 175.84 119.072C176.787 117.756 177.498 116.161 177.726 114.567" stroke="black" stroke-width="3" stroke-linecap="round"/>
<path d="M95.6886 155.429C97.0303 154.199 98.4911 153.04 99.897 151.884C101.784 150.332 104.555 150.108 106.899 149.788C110.086 149.354 112.703 147.741 115.648 146.645C116.849 146.198 117.86 145.999 119.123 145.999C119.58 145.999 120.6 146.198 120.974 145.824C122.05 144.748 125.196 146.294 126.509 146.61C132.326 148.01 138.46 148.628 144.373 149.561C147.75 150.095 151.179 150.216 154.571 150.644C157.162 150.971 159.711 151.342 162.324 151.342C166.037 151.342 170.468 152.55 174.024 151.342C182.157 148.58 191.61 141.436 194.385 133.112" stroke="black" stroke-width="3" stroke-linecap="round"/>
<path d="M193.756 136.569C193.95 138.509 197.221 140.947 198.541 142.297C198.647 142.406 201.947 146.615 201.282 144.288C201.069 143.54 200.178 144.962 200.112 145.056C199.119 146.47 198.472 148.379 198.034 150.033C197.662 151.438 197.583 153.302 198.471 154.486" stroke="black" stroke-width="3" stroke-linecap="round"/>
<path d="M198.471 156.686C191.256 156.686 184.484 158.593 177.691 160.964C173.888 162.291 170.181 163.686 166.305 164.788C163.059 165.711 160.391 167.556 157.33 168.874C151.4 171.428 144.004 172.402 137.563 172.402C134.407 172.402 131.214 172.539 128.063 172.332C126.841 172.252 125.207 172.334 124.047 171.878C123.426 171.634 123.448 170.82 122.755 170.9C117.44 171.513 112.194 171.459 106.812 171.459C103.951 171.459 100.829 171.009 98.1333 172.087C95.8933 172.983 93.5133 173.469 91.131 173.677C90.3409 173.745 89.3611 174.185 88.7736 174.742C87.3358 176.104 88.1786 175.327 89.0879 174.288" stroke="black" stroke-width="3" stroke-linecap="round"/>
<path d="M106.375 190.004C106.633 187.683 112.344 184.756 114.059 184.224C116.969 183.321 121.318 183.902 124.257 184.049C125.814 184.127 127.046 184.68 128.448 185.219C128.659 185.3 129.547 185.923 129.618 185.568C130.04 183.455 154.714 187.571 157.278 187.926C161.52 188.513 165.69 189.435 169.973 189.759C171.284 189.859 172.574 190.166 173.884 190.248C175.093 190.324 175.467 189.621 176.468 189.427C178.161 189.1 180.183 189.456 181.882 189.532C185.607 189.698 189.33 189.689 193.057 189.689C195.386 189.689 197.714 189.689 200.042 189.689C201.084 189.689 201.811 189.097 202.801 189.061C203.924 189.019 205.071 189.521 205.071 188.118" stroke="black" stroke-width="3" stroke-linecap="round"/>
<path d="M205.7 136.569C208.482 136.569 211.265 136.569 214.047 136.569C216.243 136.569 218.767 136.118 220.787 137.128C222.791 138.13 229.74 140.99 230.531 137.827" stroke="black" stroke-width="3" stroke-linecap="round"/>
<path d="M169.868 194.404C168.508 194.404 167.41 194.801 166.113 195.19C163.727 195.906 161.701 196.001 159.967 198.001C158.405 199.803 155.482 201.299 154.798 203.694C154.022 206.409 156.155 210.104 157.225 212.39C157.645 213.287 159.326 219.235 161.067 219.235" stroke="black" stroke-width="3" stroke-linecap="round"/>
<path d="M165.467 223.636C165.467 221.831 165.396 221.053 166.725 219.864C169.09 217.748 172.399 217.757 174.897 216.092" stroke="black" stroke-width="3" stroke-linecap="round"/>
<path d="M128.378 225.836C133.259 225.624 135.352 222.742 138.995 220.178C140.672 218.998 141.136 216.791 142.365 215.289C143.154 214.324 144.742 212.486 145.822 212.006C146.412 211.744 146.808 210.848 147.377 210.434C148.845 209.366 149.879 207.272 151.323 206.034" stroke="black" stroke-width="3" stroke-linecap="round"/>
<path d="M149.751 229.922C149.751 228.242 151.111 228.096 152.58 227.477C153.287 227.18 157.254 227.073 156.666 226.779" stroke="black" stroke-width="3" stroke-linecap="round"/>
<path d="M64.8854 152.6C62.6139 153.054 60.4558 156.167 58.8784 157.646C55.6905 160.635 54.8272 163.615 54.8272 167.897C54.8272 171.778 53.9095 178.934 59.4372 179.002C64.7293 179.068 68.4622 176.683 72.1147 173.03C73.439 171.706 75.7127 169.655 75.2404 167.53C74.9203 166.089 73.3187 163.402 74.8039 162.186C77.4361 160.033 87.202 163.668 87.202 158.572" stroke="black" stroke-width="3" stroke-linecap="round"/>
<path d="M74.9436 173.345C73.8422 173.345 77.161 173.388 78.2439 173.188C80.0011 172.862 80.7033 173.169 82.1729 173.659" stroke="black" stroke-width="3" stroke-linecap="round"/>
<path d="M86.5734 188.746C85.8806 188.746 80.852 189.705 81.6141 190.562C81.847 190.824 83.273 190.899 83.6223 190.981C85.948 191.529 88.2463 193.01 90.4674 193.915C94.006 195.357 96.6316 198.589 96.6316 202.419C96.6316 205.722 90.0049 204.353 88.337 203.834C86.1576 203.156 84.3121 201.812 82.5571 200.376C81.2088 199.273 80.0746 198.877 78.5408 198.176C76.4498 197.22 73.5976 195.661 71.3115 195.661C68.9373 195.661 67.0956 194.515 65.2346 193.042C64.5468 192.498 63.6999 191.95 63.6281 191.016C63.5903 190.525 63.4156 190.457 62.9995 190.318" stroke="black" stroke-width="3" stroke-linecap="round"/>
<path d="M95.6886 191.89H102.604" stroke="black" stroke-width="3" stroke-linecap="round"/>
<path d="M65.1997 200.062C65.1997 203.863 65.1997 207.664 65.1997 211.465C65.1997 213.214 65.1511 214.972 65.1997 216.721C65.2236 217.582 65.7362 217.304 66.3871 217.192C70.7324 216.443 76.2966 218.426 80.1473 220.423C81.7302 221.243 81.9747 223.779 83.4302 224.264" stroke="black" stroke-width="3" stroke-linecap="round"/>
<path d="M22.4524 183.089C27.0391 183.089 31.6258 183.089 36.2126 183.089C37.736 183.089 43.454 182.33 44.1404 183.874C44.4074 184.475 44.6363 185.023 44.7865 185.673C45.4713 188.641 47.5892 190.879 48.9948 193.496C51.0687 197.358 51.4507 201.462 50.7411 205.72" stroke="black" stroke-width="3" stroke-linecap="round"/>
<path d="M37.2254 202.576C37.5166 200.246 37.9207 197.7 38.4826 195.417C38.7783 194.216 39.5429 191.18 38.1334 190.475C36.6564 189.737 34.9929 190.135 33.4186 189.829C32.5047 189.651 30.4666 189.688 29.996 188.746" stroke="black" stroke-width="3" stroke-linecap="round"/>
<path d="M48.8552 208.234C48.8552 211.023 51.1205 211.377 53.7271 211.377C57.1484 211.377 57.3418 204.163 57.3418 201.948C57.3418 197.64 57.4395 193.04 56.556 188.799C56.2357 187.261 55.3244 185.018 57.3418 184.346" stroke="black" stroke-width="3" stroke-linecap="round"/>
<path d="M46.7765 106.047C46.0365 106.126 45.3184 106.104 44.6222 105.983C43.9617 105.89 43.3966 105.625 42.9271 105.187C42.4898 104.745 42.2411 104.088 42.1811 103.216L42.1328 103.221C41.9959 103.463 41.9113 103.586 41.8791 103.59C41.8791 103.59 41.8123 103.727 41.6788 104.001C41.5706 104.208 41.4607 104.399 41.349 104.573C41.234 104.716 41.1368 104.872 41.0573 105.043C40.9525 105.282 40.768 105.383 40.5038 105.346C40.2717 105.306 40.1591 105.318 40.1659 105.382C40.0256 105.592 39.891 105.704 39.7623 105.718C39.6336 105.731 39.5142 105.679 39.404 105.561C39.3226 105.407 39.2692 105.363 39.2438 105.431C38.9474 105.398 38.7753 105.156 38.7275 104.705C38.7002 104.448 38.7287 104.103 38.813 103.671C38.8651 103.243 38.9713 102.711 39.1317 102.075L39.1368 102.124C39.1519 101.959 39.1865 101.826 39.2406 101.722C39.3269 101.615 39.3666 101.53 39.3598 101.466C39.3393 101.273 39.4297 101.051 39.631 100.802C39.8645 100.55 39.9634 100.409 39.9278 100.38L39.9227 100.332C40.0022 100.161 40.1035 99.8899 40.2269 99.5189C40.3789 99.1123 40.4947 98.8235 40.5741 98.6524C40.8495 97.8748 41.1249 97.0972 41.4002 96.3196C41.6756 95.542 41.929 94.8643 42.1606 94.2866L45.7576 85.4126L45.7627 85.4608C45.7812 85.3287 45.8336 85.2093 45.9199 85.1025C46.0349 84.9602 46.1068 84.8712 46.1356 84.8356C46.5075 84.0478 46.7126 83.3752 46.7511 82.818C46.8217 82.2574 47.0769 81.5958 47.5165 80.8333L47.4683 80.8385C47.5477 80.6673 47.694 80.359 47.907 79.9134C48.1521 79.4644 48.3812 79.0171 48.5942 78.5715C48.8394 78.1225 49.0178 77.8107 49.1294 77.6362C49.4458 77.2447 50.0195 76.8258 50.8507 76.3797C51.7106 75.898 52.4945 75.6196 53.2023 75.5444C53.5884 75.5034 53.9187 75.5497 54.1932 75.6833C54.4676 75.8168 54.6415 76.0749 54.7146 76.4576C54.7693 76.9724 54.6689 77.4061 54.4135 77.7585C54.1546 78.0789 53.8171 78.4238 53.4008 78.7934C53.0132 79.1273 52.6055 79.5773 52.1775 80.1434C51.8036 80.606 51.2523 81.5431 50.5236 82.9544C49.795 84.3658 48.9563 85.9678 48.0078 87.7604C47.0846 89.4853 46.3686 90.8628 45.8598 91.8929C45.3831 92.9196 45.0273 93.7058 44.7923 94.2513C44.5862 94.7613 44.4324 95.1518 44.331 95.4228C44.255 95.6261 44.2094 95.8099 44.1943 95.9742C44.1758 96.1063 44.1556 96.2223 44.1337 96.3223C44.6328 95.8138 45.1895 95.2341 45.8037 94.5832C46.4501 93.9289 47.1481 93.3017 47.8978 92.7015C48.6778 91.7728 49.7743 90.7616 51.1875 89.668C52.6294 88.5388 54.1613 87.6441 55.7832 86.9839C56.4062 86.7226 56.9699 86.5163 57.4745 86.3651C58.0078 86.1784 58.4836 86.0628 58.9019 86.0184C59.6419 85.9398 60.2898 86.0663 60.8456 86.3977C61.9181 86.9997 62.5347 88.0568 62.6952 89.569C62.7396 89.9873 62.7425 90.475 62.7041 91.0322C62.4814 91.9995 62.0218 93.1871 61.3252 94.595C60.6287 96.003 59.8635 97.223 59.0294 98.2551C58.9432 98.3619 58.8925 98.4974 58.8774 98.6617C58.891 98.7904 58.8133 98.9776 58.6441 99.2234C58.5325 99.3979 58.3261 99.5988 58.0248 99.826C57.7557 100.05 57.5603 100.201 57.4384 100.279C56.7092 101.072 55.7311 101.973 54.5041 102.982C53.3059 103.955 51.7333 104.772 49.7863 105.435L49.738 105.44C49.3266 105.549 48.8669 105.662 48.3589 105.781C47.851 105.9 47.3235 105.989 46.7765 106.047ZM46.6118 103.575C46.9979 103.534 47.3805 103.461 47.7598 103.356C48.1357 103.218 48.465 103.102 48.7477 103.007C49.8109 102.601 50.7742 102.174 51.6375 101.724C52.5008 101.275 53.2016 100.826 53.7397 100.378C53.9766 100.158 54.2491 99.9664 54.5572 99.8036C54.8653 99.6407 55.0913 99.4703 55.2351 99.2924C55.3501 99.15 55.4634 98.9916 55.575 98.817C55.7154 98.6069 55.8448 98.4468 55.9633 98.3366C56.2509 97.9807 56.4793 97.6799 56.6484 97.4342C56.8497 97.185 57.0637 96.902 57.2904 96.5851C57.8875 95.7734 58.5082 94.8778 59.1526 93.8983C59.797 92.9189 60.2189 92.142 60.4182 91.5677C60.621 91.0256 60.6916 90.465 60.6301 89.8858C60.5858 89.4676 60.4821 89.1044 60.3193 88.7963C60.1886 88.4848 59.9877 88.2783 59.7167 88.177C59.4066 88.0147 59.1068 87.9489 58.8172 87.9796C58.5276 88.0103 58.1966 88.1106 57.8242 88.2802C57.4805 88.4143 57.0598 88.5891 56.5621 88.8047C55.5667 89.2357 54.5746 89.6989 53.586 90.1943C52.6296 90.6863 51.7748 91.2163 51.0217 91.7843L51.0165 91.736C50.9015 91.8784 50.7865 92.0207 50.6714 92.1631C50.5851 92.2698 50.4633 92.3479 50.3058 92.3971L50.3541 92.392C50.0782 92.5514 49.8413 92.7718 49.6434 93.0531C49.442 93.3022 49.2086 93.5548 48.9429 93.8107C48.7635 93.9599 48.5841 94.1091 48.4047 94.2583C48.2253 94.4075 48.0477 94.5728 47.8717 94.7541C47.315 95.3338 46.645 96.072 45.8617 96.9686C45.0749 97.833 44.449 98.6803 43.984 99.5105C43.9553 99.5461 43.9292 99.7604 43.9058 100.153C43.9112 100.511 43.9183 100.884 43.9271 101.274C43.9647 101.628 43.9886 101.853 43.9989 101.949C44.1739 102.679 44.5004 103.149 44.9781 103.358C45.4881 103.564 46.0326 103.637 46.6118 103.575ZM72.6734 81.5306C72.3838 81.5613 72.1805 81.4853 72.0635 81.3025C71.9753 81.0841 71.9048 80.8801 71.8521 80.6904C71.8029 80.533 71.7519 80.3594 71.6993 80.1698C71.6466 79.9802 71.61 79.7888 71.5895 79.5958C71.5622 79.3384 71.5705 79.1097 71.6143 78.9099C71.6869 78.6744 71.829 78.4804 72.0406 78.3278C72.7396 77.8631 73.338 77.523 73.8357 77.3075C74.3335 77.092 74.7432 76.9671 75.0649 76.933C75.5476 76.8818 75.8847 76.9924 76.0763 77.2649C76.2679 77.5374 76.3876 77.8989 76.4354 78.3493C76.4491 78.478 76.4627 78.6067 76.4764 78.7354C76.4867 78.8319 76.4842 78.9623 76.4691 79.1266C76.417 79.5551 76.126 79.8789 75.5961 80.0978C75.0984 80.3133 74.6811 80.5203 74.3442 80.7187C74.1327 80.8714 73.8746 81.0452 73.5699 81.2402C73.294 81.3996 73.0273 81.493 72.7699 81.5203L72.6734 81.5306ZM64.3602 103.448C64.2315 103.462 64.1087 103.377 63.9917 103.195C63.9 102.944 63.7957 102.727 63.6786 102.545C63.5616 102.362 63.4826 102.077 63.4416 101.691C63.3938 101.241 63.4203 100.571 63.5212 99.6818C63.622 98.7926 63.8537 97.4502 64.2162 95.6547C64.4945 94.2912 64.7679 93.1884 65.0364 92.3465C65.305 91.5045 65.593 90.6931 65.9005 89.9121L65.8954 89.8638C65.9783 89.7248 66.1111 89.5969 66.2939 89.4798C66.4767 89.3628 66.5952 89.2526 66.6493 89.1493L66.601 89.1544C66.6585 89.0832 66.6644 88.985 66.6185 88.8597C66.5693 88.7023 66.5378 88.5592 66.5242 88.4305C66.4866 88.0766 66.5685 87.775 66.7698 87.5259C66.9999 87.2412 67.2317 86.9725 67.4651 86.72C67.6952 86.4353 68.0667 86.103 68.5795 85.7232C69.0923 85.3434 69.7119 85.0499 70.4383 84.8426C70.5314 84.8002 70.6262 84.7739 70.7227 84.7636C70.8192 84.7534 70.9158 84.7431 71.0123 84.7329C71.5593 84.6748 71.9895 84.743 72.303 84.9375C72.6164 85.132 72.8512 85.3511 73.0072 85.5949C73.0784 85.6524 73.1513 85.726 73.2259 85.8157C73.3005 85.9054 73.3446 86.0146 73.3583 86.1433C73.3719 86.272 73.3264 86.4558 73.2216 86.6946C73.1455 86.8979 72.9476 87.1792 72.6279 87.5386C72.4875 87.7487 72.2684 87.9834 71.9705 88.2428C71.7014 88.4666 71.4519 88.7208 71.2218 89.0056C70.9342 89.3615 70.6661 89.7478 70.4175 90.1647C70.1689 90.5815 69.9347 90.9805 69.7149 91.3618C69.5238 91.7075 69.3149 92.0387 69.0883 92.3556C68.8582 92.6403 68.6298 92.9412 68.4032 93.258C68.2881 93.4004 68.2172 93.652 68.1905 94.0127C68.1603 94.3413 68.0445 94.6301 67.8432 94.8793C67.6487 95.1928 67.4152 95.4453 67.1427 95.6369C66.9024 95.8251 66.7172 96.0725 66.587 96.3792L66.5819 96.3309C66.4518 96.6376 66.3107 96.9942 66.1586 97.4008C66.0065 97.8074 65.8528 98.1979 65.6973 98.5723C65.4438 99.2499 65.2859 99.7548 65.2236 100.087C65.1578 100.387 65.1334 100.617 65.1505 100.778C65.171 100.971 65.2168 101.096 65.288 101.154C65.3914 101.208 65.4245 101.367 65.3875 101.631C65.2895 101.934 65.1501 102.307 64.9693 102.749C64.8207 103.188 64.6176 103.421 64.3602 103.448ZM75.6284 102.35C75.4032 102.374 75.2084 102.378 75.0441 102.363C74.912 102.345 74.8299 102.337 74.7977 102.34L74.7443 102.297C74.6375 102.211 74.5486 102.139 74.4774 102.082C74.4384 102.021 74.3672 101.963 74.2638 101.909C74.1249 101.826 73.9521 101.731 73.7454 101.622C73.5352 101.482 73.4029 101.155 73.3482 100.64C73.3004 100.189 73.3286 99.5355 73.4329 98.6785C73.5659 97.7859 73.8612 96.5832 74.3188 95.0704L74.3671 95.0653C74.7458 94.3418 75.0424 93.6108 75.2568 92.8722C75.5 92.098 75.7518 91.4043 76.012 90.791L76.0223 90.8875C76.0154 90.8231 76.16 90.4987 76.4558 89.9142C76.7483 89.2975 77.0931 88.5613 77.4904 87.7057C77.9198 86.8467 78.3492 85.9877 78.7786 85.1286C79.208 84.2696 79.5689 83.5318 79.8614 82.9151C80.186 82.2949 80.361 81.951 80.3863 81.8832L80.3966 81.9797C80.4117 81.8154 80.5148 81.5605 80.7058 81.2148C80.8969 80.8692 81.0068 80.6785 81.0356 80.643L80.9873 80.6481C81.2544 80.0991 81.4226 79.6908 81.4918 79.4232C81.5897 79.12 81.6894 78.8328 81.7908 78.5617C81.9209 78.2551 82.1534 77.84 82.4883 77.3164C82.6218 77.0419 82.8561 76.6428 83.1909 76.1192C83.558 75.5922 83.8261 75.2059 83.9952 74.9601C84.139 74.7822 84.303 74.4882 84.4873 74.0782C84.6681 73.636 84.8804 73.3369 85.1241 73.1809C85.5506 72.9079 86.0754 72.6407 86.6984 72.3793C87.3214 72.118 87.8903 71.96 88.4051 71.9053C89.2095 71.8199 89.689 72.0456 89.8436 72.5823C89.9597 73.6763 89.4247 74.9207 88.2388 76.3155C87.9512 76.6714 87.5688 77.0536 87.0915 77.4622C86.6143 77.8708 86.2658 78.2657 86.046 78.6469L86.0942 78.6418C85.7949 79.1942 85.3796 79.7263 84.8483 80.2382C84.3491 80.7467 83.9736 81.1933 83.7216 81.578C83.5305 81.9236 83.2699 82.2279 82.9399 82.4907C82.6065 82.7213 82.3569 82.9755 82.1912 83.2534C80.9517 85.3698 80.0031 87.1624 79.3456 88.6313C78.6847 90.068 78.2765 90.9736 78.121 91.348C78.0162 91.5869 77.8768 91.9596 77.7028 92.4661C77.5576 92.9371 77.4141 93.4241 77.2723 93.9272C77.127 94.3981 77.0181 94.7514 76.9455 94.9868C76.8392 95.5187 76.7159 95.8897 76.5756 96.0998C76.4318 96.2778 76.3431 96.5149 76.3094 96.8113C76.3738 96.8045 76.4949 96.873 76.6729 97.0168C76.8474 97.1284 76.9778 97.1308 77.0641 97.0241L78.6201 95.59C79.033 95.1882 79.3527 94.8289 79.5794 94.512C79.8061 94.1951 80.2679 93.6418 80.965 92.8519C81.0547 92.7774 81.2307 92.596 81.4929 92.3078C81.7552 92.0197 82.0301 91.6977 82.3177 91.3418C82.5204 90.7997 82.7393 90.2558 82.9742 89.7103C83.2057 89.1326 83.505 88.5802 83.872 88.0532C84.6856 86.8281 85.5908 85.8535 86.5876 85.1294C87.6133 84.3698 88.5714 83.8939 89.4621 83.7018C89.9447 83.6506 90.4612 83.612 91.0116 83.5861C91.5907 83.5246 92.048 83.5412 92.3834 83.6357C92.8578 83.8131 93.1747 84.0398 93.3341 84.3157C93.4935 84.5916 93.5869 84.8583 93.6142 85.1157C93.6518 85.4696 93.6309 85.7321 93.5514 85.9032C93.4432 86.1099 93.3011 86.304 93.1252 86.4853C92.9492 86.6667 92.6521 86.7796 92.2338 86.824C92.0017 86.7835 91.7611 86.6627 91.512 86.4613C91.2951 86.2566 90.8648 86.1884 90.2213 86.2567C89.9454 86.4161 89.6873 86.59 89.447 86.7782C89.2354 86.9308 88.9646 87.1385 88.6346 87.4013L88.6397 87.4495C88.22 87.7869 87.8469 88.1031 87.5203 88.3981C87.2258 88.6896 86.9619 88.9617 86.7284 89.2142C86.6134 89.3566 86.4052 89.5413 86.104 89.7685C85.8349 89.9923 85.5209 90.2534 85.1622 90.5518L85.2104 90.5467C84.8571 91.2024 84.6341 91.8605 84.5415 92.5211C84.4455 93.1495 84.4266 93.7372 84.4846 94.2842C84.5768 95.1529 84.8036 95.9097 85.1649 96.5546C85.5549 97.164 85.944 97.6107 86.3321 97.8949C86.5388 98.0031 86.8311 98.1511 87.2089 98.3387C87.6189 98.523 88.0813 98.5878 88.5961 98.5331C89.4648 98.4409 90.1624 98.2692 90.6889 98.0181C91.212 97.7348 91.8857 97.338 92.71 96.8275L92.7582 96.8224C92.7226 96.7936 92.8708 96.8104 93.2028 96.8728C93.5348 96.9351 93.7145 97.095 93.7418 97.3524C93.7589 97.5133 93.6236 97.7717 93.336 98.1276L93.2929 98.181L91.7771 99.074C91.6586 99.1841 91.3523 99.3631 90.858 99.6108C90.3958 99.8551 89.9159 100.085 89.4182 100.3C88.9205 100.516 88.5429 100.637 88.2855 100.665C88.189 100.675 87.973 100.633 87.6376 100.538C87.3022 100.444 86.9507 100.351 86.5831 100.26C86.2477 100.165 85.9835 100.128 85.7904 100.149C85.3331 100.132 84.9943 100.005 84.7739 99.7685C84.5536 99.5316 84.3798 99.2735 84.2525 98.9942C84.1252 98.7149 83.9565 98.505 83.7464 98.3646C82.7211 97.5949 82.1282 96.454 81.9677 94.9418C81.9472 94.7487 81.9284 94.5718 81.9114 94.4109C81.923 94.2144 81.9347 94.018 81.9464 93.8215C81.7129 94.074 81.4955 94.3249 81.2942 94.574C81.0895 94.791 80.9583 94.935 80.9008 95.0062L80.4058 95.4004C80.01 95.963 79.6607 96.5044 79.3581 97.0246C79.0519 97.5126 78.7154 98.0201 78.3483 98.5472L78.2518 98.5574C78.2484 98.5252 78.1368 98.6998 77.9169 99.081C77.6937 99.4301 77.5821 99.6046 77.5821 99.6046C77.528 99.708 77.4232 99.9469 77.2677 100.321C77.1122 100.696 76.9406 101.072 76.753 101.45C76.5941 101.792 76.4554 102.018 76.337 102.128C76.1542 102.245 75.918 102.319 75.6284 102.35ZM100.667 100.619C100.571 100.63 100.355 100.587 100.02 100.493C99.6876 100.431 99.3395 100.37 98.9753 100.311C98.6112 100.252 98.3487 100.231 98.1878 100.248L98.1395 100.253C97.5282 100.318 97.036 100.126 96.6631 99.6779C96.3189 99.1938 96.0763 98.7478 95.9354 98.3397C95.8861 98.1823 95.8369 98.0248 95.7876 97.8674C95.7671 97.6743 95.7466 97.4813 95.7261 97.2882C95.6134 96.2264 95.7427 94.9926 96.1141 93.5866C96.4855 92.1806 97.0286 90.7076 97.7437 89.1675C98.4909 87.624 99.3609 86.1651 100.354 84.7907C101.372 83.3486 102.437 82.1943 103.549 81.328C104.661 80.4616 105.695 79.9289 106.65 79.7299C107.164 79.6753 107.711 79.7637 108.288 79.9952C108.866 80.2267 109.267 80.3305 109.493 80.3066L109.541 80.3015C110.217 80.2298 110.696 80.4554 110.979 80.9785C111.263 81.5016 111.433 82.0366 111.491 82.5836C111.526 82.9053 111.497 83.25 111.406 83.6176C111.315 83.9851 111.233 84.2867 111.16 84.5221C111.12 84.7542 111.128 84.8346 111.186 84.7634L111.229 84.7101C110.943 85.3911 110.611 86.0934 110.233 86.8169C109.883 87.5048 109.281 88.4308 108.429 89.5951C108.087 90.0543 107.601 90.529 106.969 91.0189C106.367 91.4733 105.777 91.8939 105.2 92.2805C104.623 92.6671 104.212 92.9385 103.968 93.0945C103.725 93.2505 103.394 93.3507 102.975 93.3951C102.557 93.4395 102.085 93.4408 101.56 93.3989C101.068 93.3536 100.644 93.3497 100.29 93.3873C100.097 93.4078 99.922 93.4427 99.7645 93.4919C99.607 93.5412 99.5047 93.6497 99.4574 93.8174C99.0314 94.7086 98.8628 95.5724 98.9516 96.409C99.0062 96.9238 99.165 97.3462 99.4278 97.6762C99.7193 97.9706 100.155 98.0871 100.734 98.0256C100.927 98.0051 101.134 97.9668 101.356 97.9108C101.578 97.8547 101.796 97.7664 102.011 97.646C102.548 97.4914 102.929 97.4022 103.154 97.3782C103.379 97.3543 103.617 97.2965 103.868 97.2049C104.151 97.1098 104.6 96.8994 105.216 96.5737C105.893 96.209 106.402 95.9435 106.742 95.7772C107.115 95.6075 107.392 95.4642 107.575 95.3472C107.79 95.2267 108.003 95.0902 108.215 94.9376C108.427 94.785 108.76 94.5544 109.215 94.2458C109.549 94.0151 109.732 93.8981 109.764 93.8947C109.828 93.8879 109.921 93.8455 110.043 93.7675C110.161 93.6573 110.475 93.3962 110.985 92.9842C111.523 92.5366 111.953 92.2958 112.275 92.2616C112.5 92.2377 112.621 92.3062 112.638 92.4671C112.652 92.5958 112.56 92.8008 112.362 93.0821C112.196 93.36 111.875 93.7032 111.397 94.1118C110.891 94.5559 110.312 95.073 109.659 95.6629C109.038 96.2494 108.453 96.7182 107.904 97.0692C107.715 97.1219 107.546 97.2211 107.399 97.3669C107.281 97.4771 107.096 97.578 106.846 97.6697L104.266 99.1149L104.309 99.0615C104.395 98.9547 104.283 98.9667 103.971 99.0973C103.692 99.2246 103.321 99.4104 102.859 99.6547C102.429 99.8955 101.996 100.104 101.559 100.281C101.158 100.486 100.861 100.599 100.667 100.619ZM101.669 92.1185C101.797 92.1048 101.926 92.0912 102.055 92.0775C102.18 92.0317 102.305 91.9858 102.431 91.94C102.635 91.723 102.829 91.556 103.012 91.439C103.195 91.322 103.435 91.1338 103.733 90.8744C104.031 90.6151 104.438 90.1651 104.956 89.5244C105.387 88.9906 105.77 88.6084 106.103 88.3777C106.433 88.1149 106.697 87.8429 106.895 87.5616C107.472 86.5568 107.751 85.8114 107.732 85.3253C107.745 84.8359 107.729 84.382 107.685 83.9638C107.244 83.4899 106.863 83.2701 106.541 83.3043C106.348 83.3248 106.067 83.4359 105.698 83.6378C105.175 83.9211 104.746 84.178 104.413 84.4086C104.112 84.6358 103.674 85.1053 103.098 85.8172C102.44 86.6679 101.845 87.4957 101.312 88.3006C100.776 89.0734 100.37 89.8485 100.095 90.6261C100.076 90.7582 100.042 90.8921 99.991 91.0276C99.9691 91.1275 99.9615 91.2097 99.9683 91.274C100.006 91.6279 100.194 91.8683 100.533 91.995C100.872 92.1217 101.25 92.1629 101.669 92.1185Z" fill="black"/>
</svg>
