<svg width="403" height="303" viewBox="0 0 403 303" fill="none" xmlns="http://www.w3.org/2000/svg">
<rect x="0.00012207" width="403" height="302.25" rx="24" fill="white"/>
<path d="M9.00012 44.125H395V268.125C395 281.38 384.255 292.125 371 292.125H33.0001C19.7453 292.125 9.00012 281.38 9.00012 268.125L9.00012 44.125Z" fill="#FF4400"/>
<g clip-path="url(#clip0_29_233)">
<path d="M5.53088 47.335C6.01889 45.383 21.2679 44.2083 24.2565 42.548C30.8179 38.9027 35.1033 39.3114 42.2077 37.8314C48.5263 36.515 55.4193 37.1978 61.8485 37.1978C67.585 37.1978 78.4423 35.0436 83.4603 37.8314C90.9983 42.0191 105.282 37.6311 113.872 38.5353C124.271 39.6299 136.8 37.8023 146.958 40.4361C162.415 44.4434 177.718 47.6587 193.068 52.4035C200.447 54.6841 207.973 55.4628 215.314 58.1057C225.788 61.8763 236.512 64.3168 247.556 66.0606C262.985 68.4967 279.235 71.015 294.722 67.3277C300.252 66.0109 305.027 62.6952 310.279 60.64C315.812 58.4751 318.978 53.4891 324.57 51.418C331.11 48.9956 336.741 44.0635 343.929 42.2664C352.421 40.1434 361.812 38.4649 370.469 38.4649C373.972 38.4649 378.674 39.8592 381.873 41.2808C386.598 43.3809 382.163 43.4484 379.339 41.6328C372.16 37.0182 362.741 38.4649 354.559 38.4649C345.666 38.4649 336.772 38.4649 327.879 38.4649C309.8 38.4649 292.726 41.0024 275.01 43.2519C262.464 44.8451 248.534 44.0502 236.151 44.8007C224.721 45.4934 211.094 53.8362 201.657 60.0064C192.988 65.6744 204.426 58.7393 209.541 58.7393" stroke="#FF4400" stroke-width="16" stroke-linecap="round"/>
</g>
<path d="M46.448 269.736C46.7417 272.085 46.5507 267.073 45.8678 269.463C45.517 270.691 44.3863 271.006 43.9906 272.193" stroke="#C71818" stroke-width="16" stroke-linecap="round"/>
<path d="M73.4797 273.422C73.4797 268.549 67.2075 274.651 71.0223 274.651" stroke="#C71818" stroke-width="16" stroke-linecap="round"/>
<path d="M95.5966 276.494V278.951" stroke="#C71818" stroke-width="16" stroke-linecap="round"/>
<path d="M87.6101 255.606C87.6101 254.601 87.7795 254.769 86.9957 254.377" stroke="#C71818" stroke-width="16" stroke-linecap="round"/>
<path d="M60.5782 255.606H62.4213" stroke="#C71818" stroke-width="16" stroke-linecap="round"/>
<path d="M134.916 279.566V280.794" stroke="#C71818" stroke-width="16" stroke-linecap="round"/>
<path d="M124.472 259.906C124.289 258.992 121.4 254.871 121.4 256.493C121.4 257.668 121.621 258.788 122.628 259.292" stroke="#C71818" stroke-width="16" stroke-linecap="round"/>
<path d="M115.256 276.494C115.142 274.56 114.642 274.844 114.642 276.494" stroke="#C71818" stroke-width="16" stroke-linecap="round"/>
<path d="M317.976 265.326C317.598 264.78 315.824 259.909 316.339 259.844C317.069 259.753 317.976 260.874 317.976 260.2" stroke="#C71818" stroke-width="16" stroke-linecap="round"/>
<path d="M330.79 246.746C330.79 248.999 330.153 248.668 332.712 248.668" stroke="#C71818" stroke-width="16" stroke-linecap="round"/>
<path d="M344.885 248.668V249.308" stroke="#C71818" stroke-width="16" stroke-linecap="round"/>
<path d="M363.465 244.824V245.464" stroke="#C71818" stroke-width="16" stroke-linecap="round"/>
<path d="M367.95 271.092C367.352 271.026 367.147 270.77 366.669 270.451" stroke="#C71818" stroke-width="16" stroke-linecap="round"/>
<path d="M342.323 270.452C342.323 268.7 345.353 272.201 346.167 273.014" stroke="#C71818" stroke-width="16" stroke-linecap="round"/>
<path d="M286.582 273.014C286.721 274.123 286.586 274.287 285.941 275.577" stroke="#C71818" stroke-width="16" stroke-linecap="round"/>
<path d="M248.781 274.936C248.781 275.752 249.252 278.164 249.137 277.357C248.887 275.606 247.558 278.486 247.5 278.78" stroke="#C71818" stroke-width="16" stroke-linecap="round"/>
<path d="M216.105 278.14C217.242 277.998 216.746 278.856 216.746 280.062" stroke="#C71818" stroke-width="16" stroke-linecap="round"/>
<path d="M189.196 268.529C189.196 269.841 190.478 276.464 190.478 273.014" stroke="#C71818" stroke-width="16" stroke-linecap="round"/>
<path d="M164.209 269.811C164.557 268.421 165.272 272.509 166.131 273.655" stroke="#C71818" stroke-width="16" stroke-linecap="round"/>
<path d="M274.409 250.59C274.493 251.352 274.637 251.643 275.05 251.231" stroke="#C71818" stroke-width="16" stroke-linecap="round"/>
<path d="M289.145 246.746C288.387 246.84 288.504 248.035 288.504 247.386" stroke="#C71818" stroke-width="16" stroke-linecap="round"/>
<path d="M99.4987 231.369V235.213" stroke="#C71818" stroke-width="16" stroke-linecap="round"/>
<path d="M26.4591 247.386C26.4591 246.547 27.7405 253.51 27.7405 249.949" stroke="#C71818" stroke-width="16" stroke-linecap="round"/>
<defs>
<clipPath id="clip0_29_233">
<rect width="386" height="53" fill="white" transform="translate(9.00012 16.125)"/>
</clipPath>
</defs>
</svg>
