<svg width="236" height="237" viewBox="0 0 236 237" fill="none" xmlns="http://www.w3.org/2000/svg">
<circle cx="118" cy="118.125" r="114" fill="white" stroke="#F0F0F0" stroke-width="8"/>
<path d="M102.277 105.978C99.7444 105.978 97.3299 107.447 97.3299 110.202C97.3299 112.054 96.5611 113.969 97.7349 115.554C98.4755 116.553 100.225 116.891 101.38 116.913C103.968 116.963 107.266 116.701 108.67 114.049C110.172 111.213 103.292 106.03 102.537 107.54" stroke="black" stroke-width="3" stroke-linecap="round"/>
<path d="M141.591 106.499C139.335 106.499 139.576 107.775 138.727 109.623C137.898 111.426 138.529 114.737 140.028 115.93C140.894 116.618 142.052 116.913 143.138 116.913C144.652 116.913 144.794 115.862 145.178 114.541C145.972 111.808 145.591 109.936 143.153 108.582" stroke="black" stroke-width="3" stroke-linecap="round"/>
<path d="M101.496 170.807C102.013 170.713 102.783 170.381 103.174 170.026C103.577 169.659 104.097 169.766 104.62 169.766C106.129 169.766 107.629 169.747 109.118 169.476C112.779 168.811 117.162 167.646 120.502 165.976C121.511 165.471 121.919 164.271 122.845 163.676C123.598 163.192 123.986 162.599 124.161 163.387C124.606 165.389 126.948 166.666 128.717 167.104C131.523 167.799 135.619 167.813 138.466 167.162C140.429 166.713 139.768 167.25 139.768 169.042C139.768 170.187 140.295 172.632 139.19 173.411C135.673 175.885 131.017 175.722 126.88 176.029C123.402 176.286 119.686 176.628 116.191 176.26C113.731 176.001 112.091 175.334 109.885 174.452C108 173.698 106.051 173.215 104.099 172.687C103.499 172.525 101.759 172.115 101.496 171.588" stroke="black" stroke-width="3" stroke-linecap="round"/>
<path d="M123.105 152.322C123.105 150.499 123.105 148.677 123.105 146.854C123.105 145.588 123.516 144.542 123.828 143.325C123.972 142.765 124.147 142.149 124.147 143.18C124.147 144.417 124.245 145.651 123.944 146.854C123.702 147.824 123.201 148.711 123.105 149.718C123.064 150.15 122.92 151.942 122.585 152.119C121.357 152.769 120.754 151.858 119.721 151.801C118.233 151.718 120.289 152.297 120.762 152.322C121.843 152.379 122.312 153.363 123.423 153.363C124.716 153.363 125.452 152.314 125.969 151.28" stroke="black" stroke-width="3" stroke-linecap="round"/>
<path d="M72.5959 70.0491C72.5959 71.3942 70.2279 80.6288 73.9122 79.0169C76.2865 77.9781 79.1484 76.0861 76.5013 73.5783C74.7897 71.9569 74.4184 73.7915 74.4184 75.2562C74.4184 77.1853 76.1243 75.5166 75.0983 75.5166C75.0622 75.5166 75.1925 75.3748 75.1995 75.2562C75.2206 74.8979 75.1295 74.7487 74.7222 74.7789C73.9151 74.8387 72.8397 75.2027 72.4513 75.9794C72.2191 76.4439 72.2654 77.0439 72.8563 77.0787C74.0292 77.1477 73.9285 76.7789 74.4184 75.9216C74.8302 75.2009 75.4576 76.567 75.7202 75.5166" stroke="black" stroke-width="3" stroke-linecap="round"/>
<path d="M171.271 70.5698C169.56 70.5698 166.62 73.3531 166.353 75.155C166.223 76.0332 165.957 78.1987 166.7 78.9012C167.254 79.4237 168.567 79.1616 169.246 79.1616C171.937 79.1616 172.76 78.1612 173.079 75.2852C173.266 73.6041 171.541 73.8088 170.23 73.9545C168.673 74.1274 169.797 79.3955 170.215 76.0518C170.46 74.0959 168.506 75.7769 167.829 75.7769C167.121 75.7769 165.431 76.7733 166.599 77.4548C167.441 77.9457 168.147 77.0387 168.147 76.2832C168.147 75.7226 167.626 74.7698 167.626 75.7769C167.626 76.544 167.926 77.0235 167.105 76.8184" stroke="black" stroke-width="3" stroke-linecap="round"/>
<path d="M74.1412 59.3719C75.5543 59.3719 76.9673 59.3719 78.3803 59.3719C79.4645 59.3719 80.1405 60.6779 80.7716 61.4492C81.7769 62.6779 82.8191 64.6959 83.2233 66.2318C83.3594 66.749 84.2473 69.7005 84.3585 69.5892" stroke="black" stroke-width="3" stroke-linecap="round"/>
<path d="M159.14 63.5023C159.14 61.2407 159.226 59.7739 160.71 58.0193C161.78 56.7555 162.784 55.7759 164.358 55.2415C164.65 55.1422 165.77 54.8068 165.662 54.8068" stroke="black" stroke-width="3" stroke-linecap="round"/>
<path d="M91.9673 104.154C89.3286 104.394 88.2075 109.668 87.7162 111.497C86.2171 117.077 86.4994 123.351 86.8708 129.081C87.1202 132.93 88.3997 136.637 89.0326 140.434C89.5288 143.411 89.5166 146.406 90.0108 149.371" stroke="black" stroke-width="3" stroke-linecap="round"/>
<path d="M151.097 101.763C152.666 103.332 153.157 104.716 153.947 106.799C155.615 111.197 157.751 115.428 158.343 120.144C158.595 122.153 158.696 124.208 158.705 126.231C158.717 128.7 159.022 131.419 157.836 133.683C156.99 135.298 155.135 136.387 154.575 138.067" stroke="black" stroke-width="3" stroke-linecap="round"/>
<path d="M56.3152 119.371C56.3152 122.623 55.2034 125.765 55.0471 129.021C54.784 134.503 54.8742 140.445 56.7017 145.675C57.4822 147.909 58.4579 150.14 59.564 152.233C60.0092 153.076 60.4607 153.562 61.3876 153.731C61.6023 153.77 61.8117 155.178 61.8828 155.361C62.6201 157.263 63.6661 159.073 64.576 160.893C66.8095 165.36 68.9833 169.823 71.1822 174.31C72.1191 176.222 73.025 178.22 74.431 179.842C75.2146 180.746 75.751 180.54 76.6532 181.05C79.3137 182.553 81.3601 185.36 83.8149 187.197C87.1022 189.657 90.6111 192.302 94.3825 193.984C96.538 194.946 99.1023 195.109 101.363 195.76C109.197 198.015 117.146 199.715 125.276 200.458C132.073 201.078 139.271 201.424 145.783 199.081C147.07 198.618 148.305 197.936 149.696 197.849C151.151 197.758 152.593 197.502 153.995 197.1C159.009 195.664 165.234 193.026 168.73 188.96C171.196 186.091 173.554 183.132 176.024 180.264C176.659 179.528 177.178 178.73 177.643 177.873C179.48 174.488 181.325 171.072 182.957 167.583C184.024 165.3 184.875 162.928 185.952 160.651C186.488 159.516 186.364 157.792 186.483 156.593C186.96 151.808 187.102 146.653 188.27 141.98" stroke="black" stroke-width="3" stroke-linecap="round"/>
<path d="M28.0177 188.569C28.0177 183.474 28.7437 178.495 29.5651 173.472C31.3492 162.564 33.1581 151.666 34.7735 140.731C35.7217 134.313 37.0355 130.625 40.6612 125.314C42.1694 123.105 43.7831 121.076 45.4544 119.011C46.0091 118.326 46.3405 117.182 46.681 116.426C48.0255 113.442 49.4086 110.453 51.0402 107.613C52.4038 105.239 54.0401 102.957 55.6258 100.725C56.1178 100.033 56.3857 99.574 57.2299 99.574" stroke="black" stroke-width="3" stroke-linecap="round"/>
<path d="M219.935 167.509C219.935 156.546 219.516 146.15 216.614 135.466C215.833 132.591 215.034 128.972 213.104 126.559C211.282 124.283 209.282 122.304 207.593 119.841C202.833 112.899 198.362 106.79 190.723 102.971" stroke="black" stroke-width="3" stroke-linecap="round"/>
<path d="M186.986 124.37C186.986 119.065 187.013 113.795 185.779 108.594C184.849 104.677 183.724 100.898 182.571 97.0263C181.894 94.7532 180.97 92.5452 179.702 90.5536C179.229 89.8097 178.912 88.4033 178.155 88.0249" stroke="black" stroke-width="3" stroke-linecap="round"/>
<path d="M60.6271 114.52C60.6271 108.367 60.2544 102.467 62.3632 96.5924C63.0872 94.5756 63.8943 92.6847 64.9863 90.8367C65.4305 90.085 65.9677 89.2595 66.0619 88.3646C66.1477 87.5502 66.7705 86.9913 67.4206 86.6663" stroke="black" stroke-width="3" stroke-linecap="round"/>
<path d="M68.0999 79.5331C68.0999 73.3371 66.2978 67.2604 66.76 61.0207C67.148 55.7833 71.6754 50.8155 74.214 46.5845" stroke="black" stroke-width="3" stroke-linecap="round"/>
<path d="M176.457 84.6283C176.457 77.4903 178.089 70.4861 178.155 63.3796C178.177 60.9958 177.91 56.3127 175.438 55.0764" stroke="black" stroke-width="3" stroke-linecap="round"/>
<path d="M173.399 48.2828C173.399 46.4242 173.412 44.349 173.947 42.5649C174.401 41.0502 174.818 40.6898 174.683 38.8474C174.536 36.8433 174.295 34.8438 174.079 32.8464C173.778 30.0608 172.784 27.7022 171.777 25.1848C171.584 24.7028 172.041 23.1274 172.041 22.4674" stroke="black" stroke-width="3" stroke-linecap="round"/>
<path d="M74.8933 39.791C74.8933 35.0657 75.2748 30.1686 74.6291 25.4868C74.4671 24.3123 75.1145 23.7233 75.5726 22.8071" stroke="black" stroke-width="3" stroke-linecap="round"/>
<path d="M78.6295 23.8262C78.6295 24.6243 78.9718 24.7239 79.5731 25.1849C81.1871 26.4223 81.9587 28.4801 83.536 29.7705C84.4603 30.5268 87.5514 34.9452 87.8008 34.6958" stroke="black" stroke-width="3" stroke-linecap="round"/>
<path d="M77.9503 45.5654C77.9503 42.1614 79.3815 39.2006 82.7058 38.0925" stroke="black" stroke-width="3" stroke-linecap="round"/>
<path d="M153.698 34.6958C156.504 34.6958 158.384 36.2252 160.152 38.3568C162.576 41.2783 165.356 44.3881 167.285 47.6035" stroke="black" stroke-width="3" stroke-linecap="round"/>
<path d="M157.435 31.299C161.589 29.3119 165.003 26.1225 167.285 22.1277" stroke="black" stroke-width="3" stroke-linecap="round"/>
<path d="M90.5182 34.6958C92.9542 31.8538 94.7539 30.1939 98.6138 29.9026C105.685 29.3689 112.758 29.0766 119.844 28.6571C124.509 28.3809 127.832 29.3302 132.28 30.6008C134.517 31.24 136.922 31.6603 138.865 33.0163C140.02 33.8216 141.049 34.8349 142.149 35.7148" stroke="black" stroke-width="3" stroke-linecap="round"/>
<rect x="21.5001" y="83.0695" width="203" height="49" fill="white"/>
<rect x="21.5001" y="83.0695" width="203" height="49" stroke="black"/>
<path d="M52.344 123.781C52.2565 123.781 52.067 123.708 51.7754 123.562C51.513 123.446 51.2361 123.315 50.9445 123.169C50.6821 123.052 50.478 122.994 50.3322 122.994H50.2885C49.9095 122.994 49.6325 122.877 49.4576 122.644C49.3118 122.382 49.2097 122.075 49.1514 121.726C49.0931 121.376 49.0348 121.084 48.9765 120.851C48.889 120.501 48.8453 120.137 48.8453 119.758C48.8453 118.446 49.2826 116.929 50.1573 115.209C51.0611 113.46 52.2565 111.74 53.7434 110.049C54.793 108.853 55.8572 107.92 56.936 107.25C58.0147 106.579 58.9914 106.2 59.8661 106.113C60.3326 106.054 60.8137 106.171 61.3093 106.463C61.8049 106.754 62.1548 106.9 62.3589 106.9H62.4026C63.219 106.9 63.7729 107.177 64.0645 107.731C64.3561 108.256 64.5018 108.766 64.5018 109.262C64.5018 109.699 64.3998 110.122 64.1957 110.53C63.9916 110.821 63.6709 110.967 63.2336 110.967C62.6796 110.967 62.3152 110.807 62.1402 110.486C61.9361 110.02 61.5571 109.655 61.0032 109.393C60.4492 109.13 59.9244 108.999 59.4288 108.999C58.9331 108.999 58.3937 109.218 57.8106 109.655C57.2567 110.092 56.6881 110.617 56.105 111.23C54.3265 113.066 53.0874 114.787 52.3877 116.39C51.7171 117.964 51.3818 119.204 51.3818 120.107C51.3818 120.224 51.3818 120.341 51.3818 120.457C51.411 120.545 51.4256 120.632 51.4256 120.72V120.763C51.4256 120.967 51.6151 121.186 51.9941 121.419C52.3731 121.623 52.7959 121.696 53.2624 121.638C54.0496 121.551 54.7056 121.419 55.2304 121.244C55.7552 121.07 56.4257 120.749 57.2421 120.282C57.2713 120.282 57.417 120.209 57.6794 120.064C57.9418 119.918 58.2042 119.772 58.4666 119.626C58.7582 119.451 58.9185 119.364 58.9477 119.364C59.2684 119.189 59.4433 119.102 59.4725 119.102C59.5308 119.102 59.6183 119.072 59.7349 119.014C59.8515 118.927 60.1577 118.723 60.6533 118.402C61.1781 118.052 61.5863 117.877 61.8778 117.877C62.0819 117.877 62.184 117.95 62.184 118.096C62.184 118.212 62.0819 118.387 61.8778 118.62C61.7029 118.854 61.3822 119.131 60.9157 119.451C60.3326 119.83 59.8515 120.122 59.4725 120.326C59.1226 120.53 58.8019 120.734 58.5104 120.938C58.2188 121.113 57.8981 121.376 57.5482 121.726L57.5045 121.769C57.4462 121.769 57.2858 121.828 57.0234 121.944C56.7902 122.061 56.5569 122.177 56.3237 122.294C56.0905 122.382 55.9593 122.44 55.9301 122.469C55.8135 122.556 55.5073 122.717 55.0117 122.95C54.5452 123.154 54.0496 123.344 53.5248 123.519C53 123.694 52.6064 123.781 52.344 123.781ZM63.6682 123.65C63.3183 123.65 63.0267 123.548 62.7935 123.344C62.5603 123.14 62.4436 122.819 62.4436 122.382C62.4436 122.265 62.4582 122.148 62.4874 122.032C62.4874 121.915 62.5019 121.798 62.5311 121.682C62.7643 120.72 63.1579 119.583 63.7119 118.271C64.2659 116.959 64.9947 115.559 65.8986 114.072C66.8315 112.585 67.9832 111.127 69.3535 109.699C70.3739 108.649 71.4673 107.906 72.6335 107.468C73.7997 107.002 75.0388 106.769 76.3508 106.769H76.3946C77.3859 106.769 78.0419 107.031 78.3626 107.556C78.6833 108.052 78.8436 108.562 78.8436 109.087C78.8436 109.699 78.7562 110.18 78.5812 110.53L78.5375 110.574C78.4209 110.69 78.2751 110.748 78.1002 110.748C77.9544 110.748 77.8086 110.69 77.6628 110.574C77.5462 110.457 77.4879 110.297 77.4879 110.092C77.4879 109.801 77.4296 109.553 77.313 109.349C77.2255 109.145 77.1089 108.97 76.9631 108.824C76.9339 108.766 76.8611 108.737 76.7444 108.737C76.6278 108.708 76.4966 108.693 76.3508 108.693H76.3071C76.2196 108.693 76.1322 108.678 76.0447 108.649C75.9572 108.591 75.8698 108.562 75.7823 108.562C74.6744 108.562 73.3041 109.334 71.6714 110.88C70.0095 112.512 68.7704 113.926 67.954 115.122C67.1377 116.317 66.5691 117.352 66.2484 118.227C65.9569 119.072 65.7382 119.83 65.5924 120.501C65.5633 120.734 65.6362 120.851 65.8111 120.851C66.1318 120.851 66.5254 120.705 66.9919 120.414C67.4875 120.122 67.9978 119.772 68.5226 119.364C69.0474 118.956 69.5576 118.548 70.0532 118.139C70.5489 117.702 70.9425 117.352 71.234 117.09C71.3798 116.944 71.511 116.842 71.6276 116.784C71.7734 116.725 71.89 116.652 71.9775 116.565C72.1233 116.448 72.2253 116.332 72.2836 116.215C72.3711 116.099 72.4731 115.996 72.5898 115.909C73.6394 115.005 74.4849 114.291 75.1263 113.766C75.7677 113.212 76.2634 112.775 76.6132 112.454C76.9923 112.133 77.313 111.856 77.5754 111.623C77.9544 111.244 78.3771 111.055 78.8436 111.055C79.5142 111.055 79.937 111.419 80.1119 112.148C80.2285 112.556 80.1265 112.848 79.8058 113.023C79.4851 113.168 79.2518 113.343 79.106 113.547C78.8728 113.839 78.625 114.276 78.3626 114.859C78.1002 115.413 77.7503 116.084 77.313 116.871C77.0506 117.367 76.8173 117.921 76.6132 118.533C76.4383 119.116 76.38 119.553 76.4383 119.845L77.1818 119.364C77.5608 119.189 77.969 119.043 78.4063 118.927C78.8436 118.781 79.2081 118.606 79.4996 118.402C79.7037 118.285 79.8787 118.227 80.0244 118.227C80.2577 118.227 80.3743 118.329 80.3743 118.533C80.3743 118.766 80.1994 118.999 79.8495 119.233C79.004 119.845 78.3334 120.282 77.8378 120.545C77.3421 120.778 76.8173 121.172 76.2634 121.726C76.1467 121.842 75.8989 122.119 75.5199 122.556C75.17 122.965 74.9222 123.212 74.7764 123.3C74.6598 123.358 74.5286 123.387 74.3828 123.387C74.2662 123.417 74.1496 123.431 74.033 123.431C73.6248 123.431 73.377 123.387 73.2895 123.3C73.2312 123.242 73.1437 123.183 73.0271 123.125C72.9396 123.096 72.8667 123.008 72.8084 122.863C72.7501 122.629 72.721 122.425 72.721 122.25C72.721 121.726 72.8522 121.113 73.1146 120.414C73.4061 119.685 73.7851 118.883 74.2516 118.008C74.6307 117.279 74.9076 116.711 75.0826 116.303C75.2575 115.894 75.3887 115.559 75.4762 115.297C75.5636 115.005 75.6657 114.728 75.7823 114.466C75.3741 114.845 74.9514 115.238 74.514 115.647C74.0767 116.055 73.5665 116.507 72.9834 117.002C72.8959 117.061 72.7793 117.148 72.6335 117.265C72.4877 117.352 72.3857 117.411 72.3274 117.44L71.1466 118.533C70.3302 119.174 69.6013 119.772 68.9599 120.326C68.3185 120.88 67.6625 121.405 66.9919 121.9C66.3213 122.396 65.5195 122.906 64.5866 123.431C64.2367 123.577 63.9306 123.65 63.6682 123.65ZM75.4728 135.414C75.152 135.414 74.948 135.297 74.8605 135.064V135.108C74.8313 134.904 74.7876 134.729 74.7293 134.583C74.6418 134.437 74.5981 134.262 74.5981 134.058C74.5981 133.825 74.6564 133.519 74.773 133.14C74.8605 132.79 75.05 132.294 75.3416 131.653C75.4873 131.187 75.7789 130.589 76.2162 129.86C76.6536 129.16 77.018 128.46 77.3096 127.761C77.5136 127.265 77.8927 126.492 78.4466 125.443C78.9714 124.422 79.5837 123.285 80.2834 122.032C80.9832 120.749 81.6683 119.495 82.3389 118.271C83.0386 117.046 83.6509 115.982 84.1757 115.078C84.7005 114.174 85.0504 113.577 85.2253 113.285V113.372C85.2544 113.227 85.3565 113.11 85.5314 113.023C85.7355 112.935 85.8813 112.848 85.9688 112.76C85.9688 112.644 85.9833 112.498 86.0125 112.323C86.0416 112.148 86.0708 112.002 86.1 111.886V111.842C86.2166 111.579 86.3624 111.361 86.5373 111.186C86.7414 111.011 86.9455 110.836 87.1496 110.661C87.3828 110.399 87.7618 110.122 88.2866 109.83C88.8406 109.539 89.4674 109.334 90.1672 109.218H90.1234C90.2109 109.189 90.3421 109.174 90.517 109.174C90.9252 109.174 91.1293 109.334 91.1293 109.655C91.1293 109.801 91.0856 109.976 90.9981 110.18C90.9106 110.355 90.8377 110.515 90.7794 110.661C90.7794 110.748 90.7357 110.851 90.6482 110.967C90.5899 111.055 90.5462 111.157 90.517 111.273C91.3917 110.603 92.4267 109.947 93.6221 109.305C94.8175 108.664 96.0566 108.154 97.3394 107.775C98.564 107.425 99.5407 107.25 100.27 107.25C100.94 107.25 101.494 107.41 101.931 107.731C102.689 108.314 103.068 109.159 103.068 110.267C103.068 110.53 103.039 110.821 102.981 111.142C102.923 111.434 102.85 111.74 102.762 112.06C102.733 112.265 102.675 112.469 102.587 112.673C102.529 112.848 102.442 113.095 102.325 113.416C101.946 114.262 101.407 115.063 100.707 115.822C100.036 116.55 99.2345 117.338 98.3016 118.183C98.1849 118.271 98.112 118.387 98.0829 118.533C98.0829 118.65 97.9808 118.81 97.7768 119.014C97.631 119.16 97.4123 119.32 97.1208 119.495C96.8292 119.67 96.6397 119.787 96.5522 119.845C95.7359 120.486 94.7008 121.201 93.4472 121.988C92.2226 122.746 90.6774 123.329 88.8114 123.737H88.7677C88.272 123.796 87.7035 123.883 87.0621 124C86.4207 124.116 85.7938 124.175 85.1816 124.175C84.5401 124.175 83.957 124.058 83.4322 123.825C82.9366 123.621 82.6159 123.227 82.4701 122.644C82.1202 123.344 81.7412 124.043 81.333 124.743C80.9248 125.472 80.6624 125.909 80.5458 126.055C80.4292 126.172 80.2688 126.449 80.0648 126.886C79.8607 127.323 79.6566 127.775 79.4525 128.242C79.2484 128.708 79.0589 129.044 78.884 129.248H78.9277C78.7528 129.481 78.6361 129.772 78.5778 130.122C78.4904 130.501 78.3883 130.88 78.2717 131.259C78.0384 131.872 77.9072 132.338 77.8781 132.659C77.8198 133.009 77.8052 133.286 77.8344 133.49C77.8344 133.694 77.7906 133.913 77.7032 134.146C77.5574 134.408 77.2512 134.685 76.7848 134.977C76.2891 135.268 75.8518 135.414 75.4728 135.414ZM86.3186 122.644C86.8434 122.644 87.4557 122.556 88.1554 122.382C89.1759 122.119 90.0214 121.9 90.692 121.726C91.3625 121.551 91.9748 121.274 92.5288 120.895C93.0244 120.574 93.5055 120.209 93.972 119.801C94.0886 119.714 94.3072 119.51 94.628 119.189C94.9487 118.868 95.1673 118.65 95.284 118.533C95.5755 118.271 95.8233 118.037 96.0274 117.833C96.2315 117.6 96.4648 117.352 96.7272 117.09C96.9312 116.886 97.2082 116.565 97.5581 116.128C97.9371 115.661 98.3161 115.151 98.6952 114.597C99.1033 114.014 99.4386 113.431 99.701 112.848C99.9634 112.235 100.095 111.681 100.095 111.186C100.095 110.661 99.9051 110.267 99.5261 110.005C99.3512 109.888 99.1616 109.801 98.9576 109.743C98.7826 109.655 98.5785 109.611 98.3453 109.611C97.908 109.611 97.3686 109.713 96.7272 109.918C96.0857 110.092 95.6192 110.209 95.3277 110.267C95.0653 110.326 94.8175 110.399 94.5842 110.486C94.351 110.544 93.972 110.719 93.4472 111.011C93.3014 111.127 93.039 111.361 92.66 111.711C92.3101 112.031 92.0623 112.206 91.9165 112.235H91.9602C91.6978 112.352 91.348 112.571 90.9106 112.891C90.4733 113.212 90.1088 113.475 89.8173 113.679C89.6424 113.795 89.4237 113.97 89.1613 114.203C88.928 114.437 88.724 114.626 88.549 114.772C87.9659 115.238 87.4848 115.778 87.1058 116.39C86.7268 117.002 86.2603 117.644 85.7064 118.314C85.6772 118.343 85.5606 118.577 85.3565 119.014C85.1524 119.422 84.9483 119.83 84.7442 120.239C84.5693 120.647 84.4527 120.88 84.3944 120.938C84.2777 121.084 84.2194 121.259 84.2194 121.463C84.2194 121.609 84.2486 121.74 84.3069 121.857C84.3944 121.973 84.4235 122.075 84.3944 122.163C84.5401 122.279 84.7734 122.396 85.0941 122.513C85.444 122.6 85.8521 122.644 86.3186 122.644ZM99.687 139.481C98.7249 139.481 97.9668 139.146 97.4129 138.475C96.8298 137.834 96.4216 137.061 96.1883 136.158C95.9259 135.283 95.7947 134.496 95.7947 133.796C95.9405 133.125 96.0571 132.586 96.1446 132.178C96.2029 131.799 96.4653 131.318 96.9318 130.735C97.1359 130.531 97.2963 130.428 97.4129 130.428C97.5587 130.428 97.6315 130.574 97.6315 130.866C97.6024 131.157 97.5878 131.478 97.5878 131.828C97.5878 132.265 97.5878 132.834 97.5878 133.534C97.5878 134.233 97.6461 134.933 97.7627 135.633C97.8502 136.362 98.0543 136.959 98.375 137.426C98.6666 137.921 99.1039 138.169 99.687 138.169C100.795 138.169 101.772 137.878 102.617 137.295C103.492 136.741 104.279 136.012 104.979 135.108C105.678 134.233 106.334 133.315 106.947 132.353C107.18 132.003 107.442 131.682 107.734 131.391C108.025 131.099 108.273 130.793 108.477 130.472C108.711 130.122 108.886 129.758 109.002 129.379C109.148 129 109.323 128.665 109.527 128.373C110.431 127.119 111.218 125.72 111.889 124.175C112.559 122.659 113.303 121.172 114.119 119.714C114.265 119.393 114.483 118.897 114.775 118.227C115.067 117.556 115.358 116.886 115.65 116.215C115.941 115.515 116.16 114.991 116.306 114.641C116.539 113.941 116.685 113.533 116.743 113.416V113.372C116.451 113.606 116.291 113.751 116.262 113.81C116.233 113.839 116.174 113.897 116.087 113.985C116.029 114.043 115.752 114.262 115.256 114.641L115.169 114.684C115.139 114.655 114.979 114.772 114.688 115.034C114.425 115.268 114.134 115.515 113.813 115.778C113.521 116.04 113.303 116.201 113.157 116.259C113.011 116.375 112.734 116.638 112.326 117.046C111.947 117.425 111.685 117.658 111.539 117.746C110.781 118.446 110.037 119.072 109.308 119.626C108.579 120.151 107.807 120.661 106.99 121.157C106.961 121.157 106.918 121.201 106.859 121.288C106.83 121.376 106.772 121.449 106.684 121.507H106.641C106.553 121.565 106.466 121.594 106.378 121.594C106.291 121.565 106.218 121.58 106.16 121.638L105.11 122.119C104.76 122.265 104.454 122.338 104.192 122.338C103.871 122.338 103.594 122.236 103.361 122.032C103.127 121.828 103.011 121.507 103.011 121.07C103.011 120.982 103.011 120.88 103.011 120.763C103.04 120.618 103.069 120.486 103.098 120.37C103.331 119.466 103.652 118.446 104.06 117.308C104.498 116.142 105.139 114.874 105.985 113.504C106.189 113.183 106.305 112.95 106.334 112.804C106.393 112.658 106.422 112.556 106.422 112.498V112.323C106.422 112.265 106.437 112.192 106.466 112.104C106.495 112.017 106.568 111.871 106.684 111.667C106.918 111.346 107.049 111.098 107.078 110.923C107.136 110.719 107.18 110.53 107.209 110.355C107.355 110.005 107.544 109.772 107.778 109.655C108.011 109.509 108.23 109.393 108.434 109.305C108.929 109.101 109.41 108.912 109.877 108.737C110.373 108.533 110.781 108.431 111.101 108.431C111.51 108.431 111.757 108.606 111.845 108.955C111.874 109.072 111.889 109.174 111.889 109.262C111.889 109.349 111.889 109.436 111.889 109.524C111.889 110.049 111.728 110.501 111.408 110.88C111.116 111.259 110.649 111.711 110.008 112.235C109.775 112.439 109.6 112.6 109.483 112.716C109.367 112.833 109.235 112.993 109.09 113.198C108.973 113.372 108.769 113.679 108.477 114.116H108.434C107.676 115.253 107.136 116.23 106.816 117.046C106.495 117.862 106.276 118.577 106.16 119.189C106.13 119.335 106.13 119.422 106.16 119.451C106.189 119.481 106.247 119.51 106.334 119.539C106.48 119.597 106.611 119.597 106.728 119.539C107.165 119.393 107.69 119.102 108.302 118.664C108.944 118.198 109.585 117.702 110.227 117.177C110.868 116.623 111.437 116.157 111.932 115.778C112.078 115.661 112.224 115.574 112.37 115.515C112.545 115.428 112.676 115.355 112.763 115.297C112.909 115.151 113.026 115.02 113.113 114.903C113.23 114.787 113.346 114.684 113.463 114.597C114.629 113.693 115.518 112.891 116.131 112.192C116.743 111.463 117.224 110.851 117.574 110.355C117.924 109.83 118.245 109.451 118.536 109.218C118.886 108.955 119.192 108.824 119.454 108.824C119.775 108.824 120.023 108.941 120.198 109.174C120.402 109.407 120.519 109.641 120.548 109.874C120.606 110.107 120.635 110.34 120.635 110.574C120.635 110.894 120.577 111.171 120.46 111.404C120.256 111.696 120.169 111.944 120.198 112.148C120.227 112.323 120.154 112.571 119.979 112.891C119.833 113.183 119.673 113.533 119.498 113.941C119.323 114.349 119.148 114.67 118.973 114.903C118.74 115.574 118.405 116.332 117.968 117.177C117.53 118.023 117.078 118.854 116.612 119.67C116.174 120.457 115.795 121.113 115.475 121.638C115.183 122.134 115.037 122.382 115.037 122.382C114.658 123.373 114.206 124.422 113.682 125.53C113.186 126.638 112.603 127.673 111.932 128.635C111.262 129.568 110.504 130.647 109.658 131.872C108.842 133.125 107.923 134.321 106.903 135.458C105.912 136.624 104.804 137.586 103.579 138.344C102.384 139.102 101.086 139.481 99.687 139.481ZM127.54 124C126.869 124 126.228 123.912 125.615 123.737C125.032 123.591 124.551 123.3 124.172 122.863C123.822 122.425 123.662 121.813 123.691 121.026H123.647C123.502 121.23 123.414 121.332 123.385 121.332C123.385 121.332 123.312 121.449 123.166 121.682C123.05 121.857 122.933 122.017 122.816 122.163C122.7 122.279 122.598 122.411 122.51 122.556C122.394 122.761 122.219 122.833 121.986 122.775C121.781 122.717 121.679 122.717 121.679 122.775C121.534 122.95 121.402 123.038 121.286 123.038C121.169 123.038 121.067 122.979 120.98 122.863C120.921 122.717 120.878 122.673 120.848 122.731C120.586 122.673 120.455 122.44 120.455 122.032C120.455 121.798 120.513 121.492 120.63 121.113C120.717 120.734 120.863 120.268 121.067 119.714V119.758C121.096 119.612 121.14 119.495 121.198 119.408C121.286 119.32 121.33 119.247 121.33 119.189C121.33 119.014 121.432 118.825 121.636 118.62C121.869 118.416 121.971 118.3 121.942 118.271V118.227C122.029 118.081 122.146 117.848 122.292 117.527C122.467 117.177 122.598 116.929 122.685 116.784C123.006 116.113 123.327 115.443 123.647 114.772C123.968 114.101 124.26 113.518 124.522 113.023L128.589 105.413V105.457C128.618 105.34 128.677 105.238 128.764 105.151C128.881 105.034 128.954 104.961 128.983 104.932C129.391 104.261 129.639 103.678 129.726 103.183C129.843 102.687 130.135 102.118 130.601 101.477H130.557C130.645 101.331 130.805 101.069 131.038 100.69C131.301 100.311 131.549 99.9318 131.782 99.5527C132.044 99.1737 132.234 98.9113 132.35 98.7655C132.671 98.4448 133.225 98.1241 134.012 97.8034C134.829 97.4535 135.557 97.2786 136.199 97.2786C136.549 97.2786 136.84 97.3515 137.074 97.4973C137.307 97.643 137.438 97.8909 137.467 98.2407C137.467 98.7072 137.336 99.0862 137.074 99.3778C136.811 99.6402 136.476 99.9172 136.068 100.209C135.689 100.471 135.28 100.836 134.843 101.302C134.464 101.681 133.881 102.468 133.094 103.664C132.307 104.859 131.403 106.215 130.382 107.731C129.391 109.189 128.618 110.355 128.064 111.23C127.54 112.104 127.146 112.775 126.884 113.241C126.65 113.679 126.475 114.014 126.359 114.247C126.271 114.422 126.213 114.582 126.184 114.728C126.155 114.845 126.126 114.947 126.096 115.034C126.592 114.626 127.146 114.16 127.758 113.635C128.4 113.11 129.085 112.614 129.814 112.148C130.601 111.39 131.68 110.588 133.05 109.743C134.45 108.868 135.907 108.212 137.423 107.775C138.007 107.6 138.531 107.468 138.998 107.381C139.493 107.264 139.931 107.206 140.31 107.206C140.98 107.206 141.549 107.381 142.015 107.731C142.919 108.372 143.371 109.378 143.371 110.748C143.371 111.127 143.327 111.565 143.24 112.06C142.948 112.906 142.424 113.926 141.666 115.122C140.907 116.317 140.106 117.338 139.26 118.183C139.173 118.271 139.114 118.387 139.085 118.533C139.085 118.65 138.998 118.81 138.823 119.014C138.706 119.16 138.502 119.32 138.211 119.495C137.948 119.67 137.759 119.787 137.642 119.845C136.913 120.486 135.951 121.201 134.756 121.988C133.589 122.746 132.103 123.329 130.295 123.737H130.251C129.872 123.796 129.449 123.854 128.983 123.912C128.516 123.971 128.035 124 127.54 124ZM127.627 121.769C127.977 121.769 128.327 121.74 128.677 121.682C129.027 121.594 129.333 121.521 129.595 121.463C130.586 121.201 131.49 120.909 132.307 120.588C133.123 120.268 133.794 119.932 134.318 119.583C134.552 119.408 134.814 119.262 135.106 119.145C135.397 119.029 135.616 118.897 135.762 118.752C135.878 118.635 135.995 118.504 136.111 118.358C136.257 118.183 136.388 118.052 136.505 117.964C136.797 117.673 137.03 117.425 137.205 117.221C137.409 117.017 137.627 116.784 137.861 116.521C138.473 115.851 139.114 115.107 139.785 114.291C140.456 113.475 140.907 112.819 141.141 112.323C141.374 111.856 141.491 111.361 141.491 110.836C141.491 110.457 141.432 110.122 141.316 109.83C141.228 109.539 141.068 109.334 140.835 109.218C140.572 109.043 140.31 108.955 140.047 108.955C139.785 108.955 139.479 109.014 139.129 109.13C138.808 109.218 138.415 109.334 137.948 109.48C137.015 109.772 136.082 110.092 135.149 110.442C134.245 110.792 133.429 111.186 132.7 111.623V111.579C132.584 111.696 132.467 111.813 132.35 111.929C132.263 112.017 132.146 112.075 132 112.104H132.044C131.782 112.221 131.549 112.396 131.344 112.629C131.14 112.833 130.907 113.037 130.645 113.241C130.47 113.358 130.295 113.475 130.12 113.591C129.945 113.708 129.77 113.839 129.595 113.985C129.041 114.451 128.371 115.049 127.583 115.778C126.796 116.478 126.155 117.177 125.659 117.877C125.63 117.906 125.586 118.096 125.528 118.446C125.499 118.766 125.47 119.102 125.44 119.451C125.44 119.772 125.44 119.976 125.44 120.064C125.528 120.734 125.776 121.186 126.184 121.419C126.621 121.653 127.102 121.769 127.627 121.769ZM143.106 123.65C142.756 123.65 142.464 123.548 142.231 123.344C141.998 123.14 141.881 122.819 141.881 122.382C141.881 122.265 141.896 122.148 141.925 122.032C141.925 121.915 141.939 121.798 141.969 121.682C142.202 120.72 142.595 119.583 143.149 118.271C143.703 116.959 144.432 115.559 145.336 114.072C146.269 112.585 147.421 111.127 148.791 109.699C149.811 108.649 150.905 107.906 152.071 107.468C153.237 107.002 154.476 106.769 155.788 106.769H155.832C156.823 106.769 157.479 107.031 157.8 107.556C158.121 108.052 158.281 108.562 158.281 109.087C158.281 109.699 158.194 110.18 158.019 110.53L157.975 110.574C157.858 110.69 157.713 110.748 157.538 110.748C157.392 110.748 157.246 110.69 157.1 110.574C156.984 110.457 156.925 110.297 156.925 110.092C156.925 109.801 156.867 109.553 156.75 109.349C156.663 109.145 156.546 108.97 156.401 108.824C156.371 108.766 156.299 108.737 156.182 108.737C156.065 108.708 155.934 108.693 155.788 108.693H155.745C155.657 108.693 155.57 108.678 155.482 108.649C155.395 108.591 155.307 108.562 155.22 108.562C154.112 108.562 152.742 109.334 151.109 110.88C149.447 112.512 148.208 113.926 147.392 115.122C146.575 116.317 146.007 117.352 145.686 118.227C145.394 119.072 145.176 119.83 145.03 120.501C145.001 120.734 145.074 120.851 145.249 120.851C145.569 120.851 145.963 120.705 146.429 120.414C146.925 120.122 147.435 119.772 147.96 119.364C148.485 118.956 148.995 118.548 149.491 118.139C149.986 117.702 150.38 117.352 150.672 117.09C150.817 116.944 150.949 116.842 151.065 116.784C151.211 116.725 151.328 116.652 151.415 116.565C151.561 116.448 151.663 116.332 151.721 116.215C151.809 116.099 151.911 115.996 152.027 115.909C153.077 115.005 153.922 114.291 154.564 113.766C155.205 113.212 155.701 112.775 156.051 112.454C156.43 112.133 156.75 111.856 157.013 111.623C157.392 111.244 157.815 111.055 158.281 111.055C158.952 111.055 159.374 111.419 159.549 112.148C159.666 112.556 159.564 112.848 159.243 113.023C158.923 113.168 158.689 113.343 158.544 113.547C158.31 113.839 158.062 114.276 157.8 114.859C157.538 115.413 157.188 116.084 156.75 116.871C156.488 117.367 156.255 117.921 156.051 118.533C155.876 119.116 155.817 119.553 155.876 119.845L156.619 119.364C156.998 119.189 157.406 119.043 157.844 118.927C158.281 118.781 158.646 118.606 158.937 118.402C159.141 118.285 159.316 118.227 159.462 118.227C159.695 118.227 159.812 118.329 159.812 118.533C159.812 118.766 159.637 118.999 159.287 119.233C158.441 119.845 157.771 120.282 157.275 120.545C156.78 120.778 156.255 121.172 155.701 121.726C155.584 121.842 155.336 122.119 154.957 122.556C154.608 122.965 154.36 123.212 154.214 123.3C154.097 123.358 153.966 123.387 153.82 123.387C153.704 123.417 153.587 123.431 153.47 123.431C153.062 123.431 152.814 123.387 152.727 123.3C152.669 123.242 152.581 123.183 152.465 123.125C152.377 123.096 152.304 123.008 152.246 122.863C152.188 122.629 152.158 122.425 152.158 122.25C152.158 121.726 152.29 121.113 152.552 120.414C152.844 119.685 153.223 118.883 153.689 118.008C154.068 117.279 154.345 116.711 154.52 116.303C154.695 115.894 154.826 115.559 154.914 115.297C155.001 115.005 155.103 114.728 155.22 114.466C154.812 114.845 154.389 115.238 153.952 115.647C153.514 116.055 153.004 116.507 152.421 117.002C152.333 117.061 152.217 117.148 152.071 117.265C151.925 117.352 151.823 117.411 151.765 117.44L150.584 118.533C149.768 119.174 149.039 119.772 148.397 120.326C147.756 120.88 147.1 121.405 146.429 121.9C145.759 122.396 144.957 122.906 144.024 123.431C143.674 123.577 143.368 123.65 143.106 123.65ZM161.645 123.125C161.383 123.067 161.252 122.761 161.252 122.207C161.252 121.244 161.529 120.209 162.083 119.102C162.257 118.897 162.403 118.693 162.52 118.489C162.666 118.285 162.739 118.052 162.739 117.79C162.739 117.615 162.826 117.352 163.001 117.002C163.176 116.623 163.365 116.23 163.569 115.822C163.803 115.384 164.007 115.005 164.182 114.684C164.357 114.364 164.444 114.174 164.444 114.116C164.502 113.97 164.561 113.81 164.619 113.635C164.707 113.431 164.75 113.329 164.75 113.329C165.042 112.891 165.392 112.352 165.8 111.711C166.237 111.069 166.747 110.326 167.331 109.48H167.287C167.695 108.81 168.059 108.241 168.38 107.775C168.73 107.279 169.051 106.885 169.342 106.594C170.275 105.661 171.339 105.194 172.535 105.194C173.264 105.194 173.628 105.515 173.628 106.156C173.628 106.71 173.293 107.279 172.622 107.862C172.36 108.095 172.083 108.329 171.791 108.562C171.529 108.766 171.281 108.985 171.048 109.218C170.815 109.48 170.494 109.874 170.086 110.399C169.678 110.894 169.196 111.521 168.643 112.279C168.584 112.367 168.424 112.585 168.161 112.935C167.928 113.256 167.68 113.62 167.418 114.028C167.185 114.407 167.01 114.743 166.893 115.034C166.806 115.297 166.864 115.413 167.068 115.384C167.476 114.801 168.482 113.941 170.086 112.804C170.756 112.337 171.31 111.871 171.748 111.404C172.185 110.938 172.622 110.559 173.06 110.267C173.205 110.209 173.366 110.122 173.541 110.005C173.716 109.888 173.905 109.728 174.109 109.524H174.153C174.94 109.116 175.786 108.664 176.689 108.168C177.593 107.643 178.541 107.06 179.532 106.419C179.62 106.361 179.736 106.361 179.882 106.419C181.194 105.952 182.098 105.719 182.593 105.719C183.089 105.719 183.337 105.938 183.337 106.375C183.337 106.463 183.293 106.681 183.206 107.031C183.147 107.381 183.016 107.716 182.812 108.037C182.637 108.358 182.375 108.518 182.025 108.518H180.101C179.139 108.897 178.103 109.305 176.996 109.743C175.917 110.151 174.794 110.778 173.628 111.623H173.584C169.299 114.451 166.091 117.44 163.963 120.588C163.934 120.734 163.876 120.909 163.788 121.113C163.701 121.317 163.599 121.565 163.482 121.857C163.045 122.615 162.432 123.038 161.645 123.125ZM179.621 123.65C179.271 123.65 178.98 123.548 178.747 123.344C178.513 123.14 178.397 122.819 178.397 122.382C178.397 122.265 178.411 122.148 178.44 122.032C178.44 121.915 178.455 121.798 178.484 121.682C178.717 120.72 179.111 119.583 179.665 118.271C180.219 116.959 180.948 115.559 181.852 114.072C182.785 112.585 183.936 111.127 185.307 109.699C186.327 108.649 187.42 107.906 188.587 107.468C189.753 107.002 190.992 106.769 192.304 106.769H192.348C193.339 106.769 193.995 107.031 194.316 107.556C194.636 108.052 194.797 108.562 194.797 109.087C194.797 109.699 194.709 110.18 194.534 110.53L194.491 110.574C194.374 110.69 194.228 110.748 194.053 110.748C193.908 110.748 193.762 110.69 193.616 110.574C193.499 110.457 193.441 110.297 193.441 110.092C193.441 109.801 193.383 109.553 193.266 109.349C193.179 109.145 193.062 108.97 192.916 108.824C192.887 108.766 192.814 108.737 192.698 108.737C192.581 108.708 192.45 108.693 192.304 108.693H192.26C192.173 108.693 192.085 108.678 191.998 108.649C191.91 108.591 191.823 108.562 191.735 108.562C190.628 108.562 189.257 109.334 187.624 110.88C185.963 112.512 184.724 113.926 183.907 115.122C183.091 116.317 182.522 117.352 182.202 118.227C181.91 119.072 181.691 119.83 181.546 120.501C181.516 120.734 181.589 120.851 181.764 120.851C182.085 120.851 182.479 120.705 182.945 120.414C183.441 120.122 183.951 119.772 184.476 119.364C185 118.956 185.511 118.548 186.006 118.139C186.502 117.702 186.896 117.352 187.187 117.09C187.333 116.944 187.464 116.842 187.581 116.784C187.727 116.725 187.843 116.652 187.931 116.565C188.076 116.448 188.178 116.332 188.237 116.215C188.324 116.099 188.426 115.996 188.543 115.909C189.592 115.005 190.438 114.291 191.079 113.766C191.721 113.212 192.216 112.775 192.566 112.454C192.945 112.133 193.266 111.856 193.528 111.623C193.908 111.244 194.33 111.055 194.797 111.055C195.467 111.055 195.89 111.419 196.065 112.148C196.182 112.556 196.08 112.848 195.759 113.023C195.438 113.168 195.205 113.343 195.059 113.547C194.826 113.839 194.578 114.276 194.316 114.859C194.053 115.413 193.703 116.084 193.266 116.871C193.004 117.367 192.77 117.921 192.566 118.533C192.391 119.116 192.333 119.553 192.391 119.845L193.135 119.364C193.514 119.189 193.922 119.043 194.359 118.927C194.797 118.781 195.161 118.606 195.453 118.402C195.657 118.285 195.832 118.227 195.978 118.227C196.211 118.227 196.327 118.329 196.327 118.533C196.327 118.766 196.152 118.999 195.803 119.233C194.957 119.845 194.287 120.282 193.791 120.545C193.295 120.778 192.77 121.172 192.216 121.726C192.1 121.842 191.852 122.119 191.473 122.556C191.123 122.965 190.875 123.212 190.73 123.3C190.613 123.358 190.482 123.387 190.336 123.387C190.219 123.417 190.103 123.431 189.986 123.431C189.578 123.431 189.33 123.387 189.243 123.3C189.184 123.242 189.097 123.183 188.98 123.125C188.893 123.096 188.82 123.008 188.762 122.863C188.703 122.629 188.674 122.425 188.674 122.25C188.674 121.726 188.805 121.113 189.068 120.414C189.359 119.685 189.738 118.883 190.205 118.008C190.584 117.279 190.861 116.711 191.036 116.303C191.211 115.894 191.342 115.559 191.429 115.297C191.517 115.005 191.619 114.728 191.735 114.466C191.327 114.845 190.904 115.238 190.467 115.647C190.03 116.055 189.52 116.507 188.936 117.002C188.849 117.061 188.732 117.148 188.587 117.265C188.441 117.352 188.339 117.411 188.28 117.44L187.1 118.533C186.283 119.174 185.554 119.772 184.913 120.326C184.272 120.88 183.616 121.405 182.945 121.9C182.274 122.396 181.473 122.906 180.54 123.431C180.19 123.577 179.884 123.65 179.621 123.65Z" fill="black"/>
</svg>
