<svg width="403" height="303" viewBox="0 0 403 303" fill="none" xmlns="http://www.w3.org/2000/svg">
<rect width="403" height="302.25" rx="24" fill="white"/>
<circle cx="202" cy="151.125" r="118" fill="white"/>
<path d="M9 136.125H395V268.125C395 281.38 384.255 292.125 371 292.125H33C19.7452 292.125 9 281.38 9 268.125V136.125Z" fill="#FFE5C8"/>
<g clip-path="url(#clip0_29_290)">
<path d="M4.73828 139.075C11.8019 137.791 19.4746 130.498 25.339 126.714C37.076 119.142 49.2928 112.017 62.1152 106.419C74.3566 101.074 88.6836 97.6943 101.486 93.8295C123.67 87.1325 144.656 84.5519 164.89 98.5601C179.718 108.825 196.662 115.387 211.051 126.714C232.726 143.778 256.373 147.857 282.925 151.13C289.799 151.978 300.029 152.844 306.883 151.13C314.052 149.338 319.045 144.157 325.423 141.135C333.502 137.308 339.582 134.955 348.847 134.955C352.349 134.955 356.387 135.505 359.834 134.878C368.02 133.39 376.716 133.112 385.166 133.581C391.101 133.911 386.281 134.955 382.343 134.955C370.691 134.955 359.024 135.603 348.084 130.835C340.989 127.742 330.84 129.367 323.211 129.461C310.262 129.621 298.09 131.643 285.672 134.955C277.86 137.038 273.555 139.555 265.071 138.77C249.825 137.358 234.981 133.178 219.749 131.598C187.529 128.254 155.059 129.933 122.849 126.104C76.5269 120.597 148.587 131.75 141.771 111.302C138.754 102.249 117.162 109.309 111.252 110.921C96.9906 114.81 81.2919 111.048 67.4562 117.101C58.662 120.948 51.043 130.641 41.8197 133.276C39.3952 133.969 36.8301 133.122 34.4186 133.658C31.1181 134.391 35.9815 136.328 37.0891 136.328C41.568 136.328 46.2295 136.681 50.6704 136.023C61.4033 134.433 71.9114 128.474 82.716 128.088C89.7219 127.838 83.0951 126.069 79.5114 125.417C74.2353 124.458 81.0607 126.647 83.479 126.714C86.7034 126.804 110.362 130.24 110.489 128.088C111.189 116.188 84.0127 131.144 91.7193 136.71C98.7188 141.765 119.15 128.135 107.437 127.02C103.13 126.609 86.8414 131.63 93.8557 138.083C98.8944 142.719 114.544 141.425 120.408 138.999C123.997 137.513 125.818 131.824 123.612 128.393C122.008 125.897 117.275 126.41 119.645 130.072C123.741 136.403 129.67 126.157 130.784 122.9C133.39 115.285 129.31 111.846 121.781 111.607C114 111.36 107.676 114.354 100.188 114.354C98.2616 114.354 97.9078 113.482 98.1284 111.607C98.4297 109.046 107.544 110.175 109.421 109.929C112.074 109.581 125.05 108 117.356 103.672C115.703 102.742 119.707 103.474 120.713 103.291C124.705 102.565 118.816 101.883 117.508 102.07C114.172 102.547 114.463 103.367 110.489 103.367C106.696 103.367 109.904 103.367 112.015 103.367C117.888 103.367 123.82 104.089 129.64 104.817C133.621 105.314 137.158 107.152 140.856 107.563C144.895 108.012 148.641 109.013 152.759 108.86C157.419 108.688 146.472 103.892 145.129 103.672C141.995 103.158 137.772 102.866 134.599 103.443C131.295 104.044 133.188 102.662 131.09 99.9335C130.629 99.3347 128.236 95.019 129.411 97.8734C130.999 101.73 124.101 99.2764 122.086 99.2468C113.974 99.1275 89.2162 101.496 105.758 112.904C112.659 117.664 150.218 135.274 155.505 121.526C157.36 116.704 165.365 126.976 163.975 117.94C163.036 111.837 150.244 115.14 165.272 120.305C171.809 122.553 172.981 118.089 179.921 118.474C183.816 118.691 193.25 125.892 185.262 117.177C181.938 113.551 175.839 117.705 172.291 114.354C169.564 111.778 162.237 106.284 170.918 110.539C177.821 113.923 183.565 118.618 190.298 121.984C212.797 133.234 234.335 144.659 258.051 152.732C272.254 157.567 288.419 161.173 303.297 163.033C314.04 164.376 325.345 165 336.182 165.169C337.371 165.188 342.59 165.933 343.659 164.864C345.129 163.394 352.585 156.929 357.011 156.929C359.975 156.929 363.702 154.921 365.938 152.809C371.292 147.753 377.55 144.554 382.724 139.38C384.166 137.938 385.428 134.193 387.302 133.658C388.713 133.255 397.053 132.208 390.659 132.208" stroke="#FFE5C8" stroke-width="16" stroke-linecap="round"/>
<path d="M35.9717 101.156C35.6965 99.9174 34.7105 100.559 34.8672 101.708C34.9577 102.372 34.9712 101.335 35.3303 101.156" stroke="#FFF3E4" stroke-width="8" stroke-linecap="round"/>
<path d="M49.4394 95.0631C48.7403 95.2379 49.4394 97.542 49.4394 95.7044" stroke="#FFF3E4" stroke-width="8" stroke-linecap="round"/>
<path d="M37.575 83.84C39.5949 84.0644 37.9855 83.4295 37.8956 83.5193" stroke="#FFF3E4" stroke-width="8" stroke-linecap="round"/>
<path d="M337.907 111.429C337.907 111.876 337.907 111.428 337.907 111.589" stroke="#FFF3E4" stroke-width="8" stroke-linecap="round"/>
<path d="M344.814 112.071C345.292 112.071 345.43 111.442 345.135 111.589" stroke="#FFF3E4" stroke-width="8" stroke-linecap="round"/>
<path d="M341.28 103.397V103.879" stroke="#FFF3E4" stroke-width="8" stroke-linecap="round"/>
</g>
<path d="M63.2278 52.736V54.9806" stroke="#FFF3E4" stroke-width="8" stroke-linecap="round"/>
<path d="M52.9667 55.6219C52.9667 55.9432 52.8061 55.2208 52.646 54.9806" stroke="#FFF3E4" stroke-width="8" stroke-linecap="round"/>
<path d="M57.4561 42.4749V43.7575" stroke="#FFF3E4" stroke-width="8" stroke-linecap="round"/>
<path d="M20.5801 37.6649C21.078 37.6027 21.2214 39.399 21.2214 37.6649" stroke="#FFF3E4" stroke-width="8" stroke-linecap="round"/>
<path d="M27.9551 37.665C28.3191 37.6195 28.4587 37.2991 28.5964 37.0237" stroke="#FFF3E4" stroke-width="8" stroke-linecap="round"/>
<path d="M23.4658 25.1592C23.0745 25.6482 23.1451 27.7043 23.1451 26.1212" stroke="#FFF3E4" stroke-width="8" stroke-linecap="round"/>
<path d="M350.512 53.876V55.4805" stroke="#FFF3E4" stroke-width="8" stroke-linecap="round"/>
<path d="M358.855 56.1224C358.855 54.4891 360.46 58.1683 360.46 54.8387" stroke="#FFF3E4" stroke-width="8" stroke-linecap="round"/>
<path d="M351.475 42.9649C351.463 42.7565 350.959 41.1728 350.851 41.7169C350.778 42.0806 350.869 42.6079 351.154 42.3231" stroke="#FFF3E4" stroke-width="8" stroke-linecap="round"/>
<defs>
<clipPath id="clip0_29_290">
<rect width="386" height="91" fill="white" transform="translate(9 74.125)"/>
</clipPath>
</defs>
</svg>
