<svg width="236" height="237" viewBox="0 0 236 237" fill="none" xmlns="http://www.w3.org/2000/svg">
<g clip-path="url(#clip0_29_302)">
<rect y="0.125" width="236" height="236" rx="118" fill="white"/>
<path d="M117.314 211.192C117.081 211.298 116.856 211.318 116.639 211.253C116.422 211.187 116.242 210.999 116.101 210.689C116.075 210.63 116.053 210.558 116.037 210.471C116.002 210.394 115.977 210.312 115.961 210.225C115.844 209.505 115.762 208.628 115.714 207.595C115.685 206.554 115.747 205.401 115.898 204.137C116.069 202.864 116.395 201.544 116.874 200.177C117.023 199.782 117.287 199.357 117.666 198.903C118.056 198.421 118.444 197.987 118.831 197.6C119.209 197.194 119.473 196.898 119.623 196.712C119.783 196.499 119.708 196.463 119.397 196.604L119.368 196.617C119.418 196.571 119.477 196.521 119.546 196.466C119.606 196.392 119.675 196.337 119.752 196.302C119.908 196.231 120.057 196.199 120.2 196.204C120.362 196.2 120.511 196.168 120.647 196.106L120.677 196.093C121.143 195.881 121.536 195.819 121.858 195.907C122.17 195.976 122.427 196.128 122.628 196.365C122.821 196.582 122.97 196.807 123.076 197.04C123.103 197.098 123.134 197.166 123.169 197.244C123.195 197.302 123.212 197.365 123.219 197.432C123.267 196.918 123.3 196.399 123.32 195.875C123.349 195.322 123.367 194.845 123.372 194.445C123.397 194.035 123.41 193.806 123.412 193.759L123.425 193.788C123.46 193.865 123.486 193.819 123.502 193.647C123.509 193.457 123.518 193.347 123.528 193.319C123.577 192.758 123.556 192.299 123.464 191.942C123.392 191.576 123.414 191.109 123.53 190.541L123.501 190.554C123.515 190.431 123.542 190.207 123.583 189.884C123.643 189.552 123.693 189.225 123.734 188.902C123.794 188.57 123.84 188.337 123.874 188.205C123.99 187.894 124.262 187.513 124.689 187.061C125.127 186.58 125.559 186.243 125.987 186.049C126.22 185.943 126.436 185.903 126.635 185.929C126.854 185.947 127.027 186.068 127.152 186.292C127.293 186.603 127.321 186.895 127.234 187.169C127.158 187.414 127.029 187.696 126.845 188.014C126.672 188.303 126.501 188.674 126.332 189.126C126.213 189.484 126.073 190.181 125.911 191.216C125.749 192.25 125.548 193.432 125.308 194.759C125.07 196.039 124.896 197.021 124.784 197.704C124.665 198.368 124.585 198.838 124.546 199.113C124.527 199.38 124.529 199.59 124.552 199.744L124.536 199.786C124.43 200.069 124.388 200.439 124.409 200.898C124.422 201.338 124.401 201.886 124.349 202.543C124.326 202.905 124.329 203.196 124.359 203.417C124.381 203.618 124.433 203.887 124.516 204.225C124.5 204.396 124.513 204.554 124.556 204.699C124.618 204.835 124.655 204.865 124.667 204.789C124.676 204.808 124.721 204.752 124.802 204.622C124.883 204.491 124.955 204.365 125.016 204.243C125.046 204.206 125.111 204.142 125.21 204.05C125.328 203.949 125.397 203.894 125.416 203.885L125.432 203.843C125.572 203.686 125.67 203.594 125.729 203.568L125.787 203.541C125.826 203.523 125.875 203.477 125.935 203.403C125.995 203.329 126.106 203.161 126.269 202.9C126.369 202.761 126.468 202.669 126.565 202.625C126.721 202.554 126.829 202.587 126.891 202.722C126.962 202.878 126.916 203.086 126.754 203.347C126.376 204.011 126.062 204.506 125.811 204.831C125.552 205.136 125.321 205.557 125.12 206.094L125.104 206.137C125.065 206.154 124.999 206.266 124.906 206.473C124.832 206.671 124.794 206.793 124.792 206.841C124.75 206.954 124.726 207.082 124.721 207.225C124.706 207.349 124.659 207.476 124.578 207.607L124.607 207.593C124.547 207.667 124.468 207.727 124.371 207.771C124.302 207.826 124.229 207.871 124.151 207.906C123.879 208.03 123.701 208.076 123.616 208.044C123.56 208.023 123.484 208.01 123.389 208.007C123.322 208.014 123.247 207.978 123.164 207.898C123.054 207.761 122.973 207.633 122.92 207.517C122.761 207.167 122.663 206.72 122.625 206.174C122.599 205.6 122.608 204.952 122.654 204.228C122.686 203.627 122.698 203.165 122.691 202.84C122.684 202.515 122.67 202.252 122.648 202.051C122.618 201.83 122.602 201.615 122.601 201.405C122.443 201.781 122.281 202.171 122.113 202.575C121.946 202.98 121.743 203.435 121.505 203.942C121.464 204.007 121.399 204.096 121.309 204.207C121.219 204.318 121.159 204.392 121.129 204.429L120.745 205.518C120.364 206.277 120.046 206.996 119.792 207.674C119.538 208.352 119.205 208.984 118.792 209.57L118.778 209.541C118.768 209.57 118.756 209.622 118.744 209.698C118.742 209.745 118.721 209.802 118.68 209.867L118.694 209.896C118.625 209.951 118.561 209.992 118.503 210.018C118.445 210.045 118.401 210.076 118.371 210.113C118.289 210.244 118.199 210.355 118.101 210.447C118.011 210.558 117.93 210.665 117.86 210.768C117.671 210.971 117.489 211.112 117.314 211.192ZM117.894 208.678C117.961 208.671 118.038 208.636 118.127 208.572C118.374 208.343 118.635 207.989 118.91 207.513C119.196 207.008 119.463 206.488 119.712 205.953C119.972 205.389 120.19 204.915 120.366 204.53C120.419 204.389 120.475 204.281 120.535 204.207C120.615 204.124 120.671 204.04 120.702 203.955C120.773 203.853 120.81 203.754 120.813 203.659C120.828 203.535 120.86 203.427 120.911 203.333C121.337 202.413 121.683 201.681 121.952 201.137C122.211 200.574 122.409 200.133 122.544 199.813C122.7 199.485 122.829 199.203 122.934 198.968C122.965 198.883 122.998 198.775 123.032 198.642C123.076 198.482 123.106 198.316 123.121 198.144L123.034 198.184C122.937 198.228 122.827 198.243 122.703 198.229C122.571 198.196 122.473 198.111 122.412 197.975C122.323 197.781 122.209 197.633 122.07 197.533C121.95 197.423 121.819 197.342 121.678 197.289C121.641 197.259 121.583 197.262 121.506 197.297C121.419 197.313 121.327 197.343 121.23 197.387L121.201 197.401C121.143 197.427 121.08 197.444 121.013 197.451C120.937 197.439 120.87 197.446 120.812 197.472C120.074 197.808 119.395 198.738 118.776 200.261C118.164 201.852 117.767 203.17 117.585 204.213C117.404 205.257 117.339 206.118 117.39 206.798C117.452 207.449 117.536 208.021 117.642 208.511C117.667 208.617 117.693 208.676 117.721 208.686C117.75 208.697 117.807 208.694 117.894 208.678ZM129.816 205.083C129.624 205.124 129.444 204.96 129.276 204.591C128.984 203.95 128.855 203.177 128.889 202.271C128.943 202.082 128.979 201.902 128.994 201.731C129.03 201.551 129.008 201.373 128.928 201.198C128.875 201.082 128.854 200.881 128.864 200.595C128.866 200.289 128.873 199.969 128.885 199.636C128.908 199.274 128.929 198.96 128.949 198.693C128.968 198.426 128.969 198.274 128.951 198.235C128.946 198.12 128.936 197.996 128.922 197.861C128.918 197.699 128.917 197.618 128.917 197.618C128.978 197.238 129.048 196.773 129.126 196.222C129.223 195.662 129.337 195.013 129.469 194.273L129.44 194.286C129.509 193.716 129.579 193.227 129.652 192.819C129.735 192.383 129.829 192.023 129.935 191.741C130.274 190.837 130.841 190.204 131.637 189.842C132.123 189.621 132.463 189.724 132.657 190.151C132.825 190.52 132.774 191 132.504 191.592C132.4 191.827 132.286 192.066 132.162 192.31C132.049 192.525 131.95 192.746 131.866 192.972C131.79 193.217 131.696 193.577 131.583 194.05C131.461 194.504 131.33 195.067 131.191 195.74C131.179 195.815 131.138 196.01 131.069 196.322C131.011 196.606 130.957 196.924 130.905 197.276C130.865 197.599 130.85 197.875 130.861 198.105C130.882 198.306 130.956 198.366 131.083 198.285C131.178 197.773 131.588 196.895 132.311 195.652C132.617 195.138 132.844 194.659 132.994 194.216C133.144 193.773 133.321 193.388 133.524 193.062C133.603 192.979 133.683 192.872 133.765 192.741C133.846 192.61 133.923 192.446 133.998 192.248L134.027 192.235C134.427 191.725 134.854 191.168 135.305 190.564C135.748 189.94 136.203 189.265 136.669 188.537C136.709 188.472 136.787 188.437 136.902 188.431C137.634 187.723 138.166 187.294 138.496 187.144C138.826 186.994 139.057 187.064 139.19 187.356C139.216 187.414 139.253 187.573 139.301 187.832C139.368 188.083 139.382 188.346 139.344 188.621C139.324 188.888 139.198 189.074 138.965 189.18L137.683 189.763C137.157 190.307 136.592 190.893 135.986 191.52C135.391 192.118 134.834 192.876 134.313 193.792L134.284 193.806C132.286 196.988 131.055 199.95 130.592 202.692C130.616 202.798 130.631 202.932 130.634 203.094C130.638 203.257 130.645 203.453 130.655 203.682C130.594 204.319 130.314 204.786 129.816 205.083ZM141.948 199.987C141.715 200.093 141.49 200.113 141.273 200.048C141.056 199.983 140.881 199.805 140.748 199.513C140.713 199.436 140.687 199.353 140.672 199.267C140.636 199.189 140.611 199.107 140.595 199.021C140.459 198.309 140.376 197.433 140.348 196.391C140.319 195.349 140.381 194.196 140.532 192.932C140.703 191.659 141.029 190.339 141.509 188.973C141.87 187.964 142.373 187.138 143.018 186.493C143.653 185.829 144.408 185.299 145.281 184.901L145.311 184.888C145.971 184.588 146.487 184.564 146.86 184.816C147.224 185.049 147.485 185.34 147.644 185.69C147.829 186.098 147.917 186.445 147.906 186.731L147.891 186.773C147.848 186.886 147.769 186.969 147.652 187.022C147.555 187.066 147.44 187.071 147.308 187.038C147.195 186.996 147.108 186.906 147.046 186.771C146.957 186.576 146.843 186.429 146.704 186.328C146.584 186.219 146.453 186.138 146.312 186.085C146.275 186.055 146.217 186.057 146.14 186.093C146.053 186.109 145.962 186.139 145.864 186.183L145.835 186.196C145.777 186.223 145.714 186.239 145.647 186.247C145.571 186.234 145.504 186.241 145.446 186.268C144.708 186.603 144.029 187.533 143.41 189.057C142.798 190.648 142.401 191.965 142.219 193.009C142.038 194.052 141.973 194.914 142.024 195.593C142.086 196.245 142.17 196.816 142.276 197.307C142.327 197.471 142.411 197.527 142.528 197.474C142.741 197.376 142.959 197.16 143.182 196.825C143.423 196.48 143.657 196.093 143.883 195.662C144.109 195.231 144.325 194.804 144.532 194.382C144.729 193.941 144.885 193.589 145 193.326C145.053 193.184 145.11 193.077 145.17 193.003C145.249 192.92 145.305 192.836 145.336 192.751C145.398 192.629 145.431 192.52 145.434 192.425C145.457 192.321 145.494 192.222 145.545 192.128C145.971 191.209 146.317 190.477 146.586 189.933C146.845 189.369 147.043 188.928 147.179 188.608C147.334 188.28 147.464 187.998 147.568 187.764C147.705 187.396 147.929 187.142 148.24 187.001C148.687 186.798 149.079 186.912 149.416 187.345C149.617 187.581 149.638 187.806 149.477 188.02C149.308 188.214 149.205 188.401 149.17 188.581C149.103 188.846 149.071 189.213 149.072 189.681C149.065 190.129 149.036 190.682 148.983 191.338C148.958 191.748 148.971 192.188 149.02 192.657C149.08 193.099 149.174 193.408 149.301 193.584L149.651 193.039C149.85 192.807 150.078 192.586 150.334 192.376C150.581 192.147 150.771 191.92 150.903 191.696C151.003 191.556 151.102 191.464 151.199 191.42C151.355 191.349 151.463 191.382 151.525 191.518C151.596 191.673 151.55 191.882 151.388 192.143C151.01 192.807 150.696 193.301 150.445 193.626C150.186 193.932 149.955 194.353 149.754 194.89C149.712 195.003 149.631 195.262 149.511 195.668C149.401 196.046 149.311 196.286 149.241 196.389C149.181 196.463 149.102 196.522 149.005 196.566C148.936 196.621 148.863 196.666 148.785 196.701C148.514 196.825 148.335 196.871 148.25 196.839C148.194 196.818 148.118 196.806 148.023 196.802C147.956 196.809 147.881 196.773 147.798 196.694C147.688 196.556 147.607 196.429 147.554 196.312C147.395 195.963 147.297 195.515 147.26 194.97C147.233 194.396 147.242 193.747 147.288 193.023C147.32 192.423 147.332 191.96 147.325 191.635C147.318 191.311 147.304 191.048 147.282 190.846C147.252 190.626 147.236 190.41 147.235 190.2C147.078 190.576 146.915 190.966 146.748 191.371C146.58 191.775 146.377 192.231 146.139 192.737C146.098 192.803 146.047 192.896 145.985 193.018C145.915 193.121 145.864 193.19 145.834 193.227L145.379 194.313C145.03 194.988 144.725 195.607 144.466 196.17C144.206 196.733 143.929 197.282 143.632 197.815C143.336 198.348 142.956 198.931 142.494 199.563C142.305 199.766 142.123 199.908 141.948 199.987ZM157.228 205.763C156.587 206.054 155.981 206.061 155.409 205.782C154.826 205.531 154.32 205.14 153.891 204.609C153.451 204.106 153.125 203.621 152.913 203.155C152.807 202.665 152.722 202.27 152.656 201.972C152.58 201.702 152.609 201.302 152.743 200.772C152.818 200.574 152.893 200.458 152.971 200.422C153.068 200.378 153.161 200.453 153.249 200.647C153.318 200.85 153.406 201.068 153.512 201.301C153.644 201.593 153.816 201.971 154.028 202.437C154.24 202.904 154.491 203.352 154.781 203.783C155.06 204.242 155.377 204.578 155.732 204.791C156.076 205.033 156.442 205.066 156.831 204.889C157.569 204.554 158.131 204.063 158.517 203.419C158.932 202.785 159.236 202.061 159.428 201.247C159.629 200.452 159.788 199.642 159.904 198.816C159.953 198.512 160.031 198.219 160.137 197.936C160.243 197.654 160.315 197.375 160.354 197.1C160.403 196.796 160.409 196.5 160.372 196.212C160.354 195.916 160.369 195.639 160.417 195.383C160.639 194.275 160.715 193.127 160.644 191.94C160.573 190.754 160.579 189.556 160.662 188.347C160.617 187.992 160.6 187.566 160.608 187.07C160.592 186.468 160.565 186.047 160.526 185.807C160.506 185.558 160.479 185.395 160.444 185.317C160.4 185.22 160.36 185.133 160.324 185.055C160.192 185.279 160.081 185.447 159.991 185.558C159.911 185.641 159.821 185.752 159.721 185.892C159.62 186.031 159.491 186.313 159.332 186.737L159.316 186.779C159.288 186.769 159.242 186.848 159.178 187.018C159.134 187.178 159.082 187.296 159.022 187.37C158.941 187.501 158.831 187.749 158.694 188.117C158.547 188.465 158.443 188.699 158.381 188.821C157.942 189.607 157.578 190.276 157.291 190.829C157.003 191.382 156.624 191.964 156.152 192.577L156.07 192.861L156.025 192.916C155.987 192.934 155.894 192.988 155.747 193.078C155.62 193.159 155.596 193.182 155.673 193.147L155.702 193.133C155.602 193.273 155.492 193.393 155.374 193.494C155.284 193.605 155.204 193.712 155.133 193.814C154.925 194.026 154.714 194.181 154.5 194.278C154.267 194.384 154.032 194.409 153.796 194.352C153.579 194.287 153.404 194.109 153.271 193.817C153.236 193.74 153.21 193.658 153.195 193.571C153.159 193.493 153.134 193.411 153.118 193.325C153.001 192.604 152.938 191.719 152.929 190.669C152.939 189.609 153.059 188.43 153.288 187.13C153.518 185.831 153.921 184.476 154.498 183.065C154.824 182.237 155.218 181.506 155.681 180.874C156.163 180.233 156.716 179.724 157.341 179.346C157.38 179.328 157.439 179.278 157.518 179.195C157.598 179.112 157.676 179.053 157.754 179.017C157.909 178.947 158.068 178.91 158.231 178.906C158.413 178.894 158.581 178.852 158.737 178.781C158.737 178.781 158.87 178.791 159.136 178.81C159.394 178.81 159.699 178.836 160.05 178.887C160.402 178.938 160.718 179.017 161.001 179.122C161.294 179.2 161.48 179.326 161.56 179.501C161.648 179.695 161.65 179.905 161.565 180.131C161.5 180.348 161.466 180.505 161.462 180.6C161.439 180.704 161.36 180.787 161.224 180.849C160.933 180.982 160.701 180.911 160.53 180.637C160.442 180.443 160.328 180.296 160.188 180.195C160.068 180.086 159.937 180.005 159.796 179.952C159.74 179.93 159.576 179.958 159.306 180.034C159.036 180.11 158.853 180.17 158.755 180.214C158.386 180.382 158.016 180.726 157.643 181.247C157.29 181.759 156.947 182.396 156.614 183.157C156.458 183.485 156.291 183.761 156.111 183.983C155.95 184.197 155.822 184.431 155.727 184.685C155.684 184.798 155.664 184.96 155.666 185.17C155.678 185.352 155.658 185.513 155.605 185.655C155.242 186.71 155.008 187.614 154.904 188.364C154.791 189.095 154.754 189.709 154.793 190.207C154.852 190.696 154.912 191.138 154.974 191.531C155.044 191.687 155.128 191.742 155.225 191.698L155.517 191.566C155.803 191.318 156.103 190.948 156.417 190.453C156.722 189.939 157.019 189.406 157.306 188.853C157.604 188.272 157.861 187.781 158.077 187.378C158.129 187.237 158.196 187.125 158.275 187.042C158.374 186.95 158.439 186.862 158.471 186.777C158.533 186.655 158.575 186.542 158.598 186.438C158.64 186.325 158.687 186.221 158.738 186.128C159.118 185.416 159.395 184.892 159.57 184.555C159.764 184.208 159.901 183.97 159.983 183.839C160.055 183.689 160.121 183.577 160.181 183.503C160.232 183.409 160.299 183.273 160.382 183.095C160.536 182.814 160.7 182.634 160.875 182.555C161.088 182.458 161.293 182.47 161.489 182.592C161.696 182.685 161.844 182.805 161.934 182.952C162.044 183.089 162.129 183.226 162.191 183.362C162.297 183.595 162.347 183.807 162.34 183.998C162.295 184.158 162.295 184.287 162.34 184.384C162.357 184.423 162.385 184.458 162.422 184.488C162.459 184.518 162.491 184.562 162.517 184.62C162.544 184.678 162.564 184.774 162.578 184.909C162.583 185.023 162.567 185.219 162.528 185.494L162.515 185.465C162.506 185.703 162.504 185.88 162.51 185.995C162.506 186.09 162.491 186.237 162.465 186.437C162.53 186.993 162.528 187.556 162.46 188.126C162.391 188.697 162.32 189.339 162.246 190.052C162.294 190.827 162.318 191.601 162.318 192.374C162.327 193.167 162.254 193.985 162.099 194.829C161.935 195.654 161.756 196.602 161.564 197.674C161.4 198.756 161.151 199.831 160.816 200.897C160.509 201.974 160.062 202.951 159.476 203.827C158.91 204.694 158.16 205.339 157.228 205.763ZM168.131 187.621C167.82 187.763 167.555 187.824 167.336 187.807C167.108 187.77 166.89 187.728 166.682 187.682C166.2 187.55 165.782 187.096 165.429 186.319C165.173 185.756 164.988 185.066 164.875 184.251C164.753 183.416 164.754 182.49 164.877 181.473L164.89 181.502C164.927 181.016 164.964 180.531 165.001 180.045C165.058 179.551 165.128 179.062 165.213 178.578C165.255 178.465 165.311 178.381 165.379 178.326C165.439 178.252 165.48 178.187 165.501 178.13C165.466 178.053 165.437 177.937 165.414 177.783C165.401 177.601 165.421 177.464 165.472 177.37C165.609 176.745 165.849 176.214 166.189 175.778C166.53 175.342 166.791 174.989 166.973 174.719L166.944 174.732C167.034 174.621 167.156 174.53 167.312 174.459C167.7 174.282 168.223 174.221 168.88 174.273C168.957 174.238 169.031 174.193 169.099 174.138C169.179 174.055 169.267 173.992 169.364 173.948C169.558 173.859 169.783 173.839 170.039 173.886C170.315 173.925 170.499 174.099 170.593 174.408C170.6 174.475 170.613 174.528 170.63 174.567C170.648 174.606 170.666 174.645 170.683 174.683C170.78 174.897 170.907 174.969 171.062 174.898C171.14 174.863 171.213 174.817 171.282 174.763C171.351 174.708 171.424 174.663 171.502 174.628C171.715 174.53 172.003 174.364 172.365 174.13C172.718 173.875 173.056 173.639 173.379 173.422C173.713 173.177 173.947 173.023 174.083 172.961C174.187 172.984 174.257 173.034 174.292 173.112C174.328 173.19 174.329 173.295 174.295 173.427C174.281 173.551 174.244 173.65 174.184 173.724C174.184 173.724 174.076 173.82 173.858 174.013C173.652 174.177 173.396 174.387 173.091 174.643C172.785 174.899 172.48 175.155 172.174 175.411C171.88 175.639 171.64 175.807 171.454 175.915L171.176 176.076C171.263 176.318 171.319 176.597 171.346 176.913C171.372 177.229 171.402 177.579 171.436 177.962C171.441 178.077 171.47 178.216 171.521 178.38C171.563 178.525 171.591 178.688 171.603 178.87C171.573 179.165 171.524 179.469 171.455 179.781C171.386 180.094 171.332 180.412 171.291 180.735C171.263 180.982 171.234 181.253 171.204 181.548C171.185 181.814 171.141 182.104 171.072 182.416C170.913 183.098 170.686 183.81 170.392 184.554C170.108 185.269 169.769 185.915 169.375 186.493C168.992 187.042 168.577 187.418 168.131 187.621ZM167.956 186.541C168.344 186.364 168.754 185.849 169.187 184.996C169.63 184.115 169.953 183.101 170.158 181.953L170.129 181.966C170.178 181.663 170.21 181.32 170.224 180.939C170.257 180.549 170.274 180.225 170.274 179.967C170.274 179.967 170.296 179.887 170.34 179.726C170.404 179.556 170.463 179.377 170.517 179.188C170.563 178.98 170.578 178.833 170.562 178.746C170.564 178.698 170.552 178.645 170.525 178.587C170.508 178.548 170.485 178.524 170.456 178.513C170.439 178.474 170.412 178.416 170.377 178.338L170.364 178.309C170.348 177.965 170.326 177.658 170.297 177.39C170.269 177.122 170.225 176.896 170.165 176.712C170.029 176.774 169.811 176.861 169.511 176.975C169.21 177.088 168.959 177.179 168.756 177.247C168.572 177.308 168.568 177.298 168.743 177.218L168.83 177.179C168.821 177.159 168.716 177.16 168.515 177.181C168.314 177.203 168.156 177.216 168.041 177.221C167.991 177.267 167.937 177.303 167.879 177.33C167.782 177.374 167.696 177.39 167.62 177.378C167.563 177.356 167.519 177.388 167.487 177.473C167.445 177.586 167.441 177.705 167.474 177.83C167.508 177.956 167.487 178.117 167.413 178.315L167.397 178.357C167.389 178.338 167.349 178.38 167.278 178.482C167.208 178.584 167.182 178.631 167.202 178.622L167.199 178.694C167.169 178.731 167.166 178.802 167.191 178.908C167.226 178.986 167.237 179.087 167.223 179.21C167.17 179.609 167.107 180.037 167.033 180.492C166.969 180.919 166.911 181.333 166.858 181.732L166.845 181.702C166.81 182.14 166.788 182.607 166.779 183.103C166.77 183.6 166.806 184.064 166.885 184.496C166.929 184.594 166.954 184.699 166.959 184.814C166.975 184.901 166.997 184.973 167.023 185.031L167.036 185.061C167.133 185.274 167.179 185.476 167.172 185.667C167.164 185.858 167.196 186.031 167.267 186.186C167.387 186.295 167.455 186.393 167.471 186.48C167.478 186.547 167.529 186.582 167.625 186.586C167.748 186.6 167.859 186.585 167.956 186.541ZM176.354 183.916C176.152 183.937 175.972 183.773 175.813 183.424C175.716 183.21 175.635 182.954 175.569 182.656C175.523 182.349 175.484 181.98 175.453 181.549L175.492 181.636C175.531 181.619 175.539 181.533 175.516 181.379C175.493 181.226 175.468 181.144 175.439 181.133C175.406 181.008 175.426 180.846 175.5 180.648C175.585 180.422 175.613 180.304 175.585 180.293L175.571 180.264C175.575 180.169 175.553 180.12 175.505 180.119C175.458 180.117 175.432 180.035 175.428 179.872C175.439 179.329 175.448 178.833 175.454 178.384C175.453 177.916 175.468 177.487 175.502 177.097C175.502 177.097 175.49 177.02 175.467 176.867C175.444 176.713 175.436 176.565 175.441 176.422L175.467 176.48C175.451 176.393 175.469 176.303 175.52 176.21C175.563 176.097 175.589 176.026 175.6 175.998C175.617 175.779 175.608 175.631 175.573 175.553C175.555 175.514 175.537 175.499 175.517 175.508C175.498 175.517 175.484 175.511 175.475 175.492C175.466 175.473 175.468 175.425 175.48 175.349C175.484 175.254 175.508 175.102 175.554 174.894L175.525 174.907C175.559 174.774 175.596 174.547 175.636 174.223C175.696 173.892 175.746 173.564 175.787 173.241C175.847 172.909 175.879 172.695 175.882 172.6C175.887 172.199 176.02 171.846 176.279 171.541C176.549 171.207 176.849 170.965 177.179 170.815C177.49 170.673 177.788 170.632 178.072 170.69C178.367 170.72 178.589 170.9 178.739 171.23C178.881 171.541 178.9 171.79 178.798 171.977C178.715 172.155 178.578 172.37 178.387 172.621C178.207 172.843 178.042 173.176 177.892 173.619C177.603 174.477 177.45 175.145 177.432 175.621C177.406 176.079 177.466 176.52 177.613 176.945C177.646 176.813 177.694 176.686 177.755 176.564C177.978 175.971 178.266 175.394 178.621 174.835C178.986 174.247 179.457 173.529 180.032 172.681L180.09 172.655C180.11 172.646 180.196 172.501 180.35 172.22C180.523 171.931 180.696 171.641 180.869 171.351C181.052 171.034 181.173 170.861 181.231 170.835C181.231 170.835 181.321 170.724 181.501 170.501C181.681 170.279 181.88 170.071 182.097 169.879C182.819 169.199 183.491 168.717 184.112 168.435C184.559 168.232 184.924 168.159 185.209 168.217C185.436 168.254 185.63 168.448 185.789 168.797C185.903 169.05 185.978 169.367 186.011 169.751L185.985 169.692C185.965 169.701 185.962 169.796 185.974 169.978C185.978 170.141 185.973 170.284 185.959 170.407C185.946 170.483 185.927 170.621 185.9 170.821C185.874 171.02 185.86 171.144 185.858 171.191L185.845 171.162C185.825 171.429 185.794 171.642 185.75 171.803C185.697 171.944 185.642 172.133 185.586 172.37C185.497 172.691 185.399 173.17 185.289 173.805C185.171 174.422 185.08 175.072 185.017 175.757C184.964 176.414 184.986 176.978 185.084 177.45C185.117 177.575 185.14 177.728 185.153 177.91C185.176 178.064 185.219 178.185 185.282 178.273L185.296 178.302C185.313 178.341 185.379 178.382 185.492 178.424C185.596 178.447 185.667 178.473 185.704 178.503C185.817 178.546 185.895 178.615 185.939 178.713C185.992 178.829 185.973 178.967 185.881 179.126C185.8 179.256 185.586 179.377 185.238 179.489C185.024 179.586 184.852 179.594 184.721 179.513C184.61 179.423 184.485 179.327 184.345 179.227L184.332 179.198C184.314 179.159 184.287 179.124 184.25 179.094C184.232 179.056 184.206 178.997 184.17 178.92C184.172 178.872 184.134 178.866 184.056 178.901C183.989 178.908 183.886 178.861 183.747 178.761C183.747 178.761 183.693 178.668 183.585 178.483C183.477 178.297 183.406 178.166 183.37 178.088C183.282 177.894 183.244 177.63 183.256 177.296C183.26 176.943 183.252 176.642 183.232 176.393C183.232 176.136 183.295 175.732 183.42 175.183C183.545 174.634 183.676 174.071 183.811 173.493C183.958 172.888 184.052 172.399 184.094 172.029C184.139 171.61 184.103 171.275 183.988 171.022C183.882 170.789 183.739 170.655 183.559 170.62C183.37 170.565 183.188 170.578 183.014 170.657C182.917 170.701 182.775 170.777 182.59 170.885C182.424 170.984 182.271 171.112 182.132 171.269C182.063 171.324 181.962 171.463 181.83 171.688C181.717 171.903 181.6 172.109 181.478 172.305C181.356 172.501 181.266 172.612 181.208 172.638C181.116 172.797 181.034 172.952 180.962 173.102C180.881 173.233 180.769 173.4 180.628 173.605L179.99 174.598C179.302 175.662 178.706 176.8 178.203 178.013C177.72 179.217 177.362 180.388 177.129 181.525C177.095 181.657 177.099 181.819 177.14 182.012C177.18 182.204 177.198 182.372 177.193 182.515C177.177 182.686 177.143 182.819 177.092 182.912C177.032 182.987 176.992 183.052 176.97 183.108C176.903 183.373 176.806 183.57 176.677 183.699C176.558 183.8 176.451 183.872 176.354 183.916Z" fill="black"/>
<path d="M68.8872 221.187C71.4011 219.732 73.7921 217.815 76.2151 216.182C79.2631 214.128 80.6443 210.906 82.0465 207.667C85.3051 200.138 87.1272 192.106 90.7161 184.729C92.3397 181.391 92.7313 178.264 94.0188 174.769C95.9732 169.464 98.8541 165.431 102.921 161.584C108.82 156.004 109.955 147.027 116.467 141.664C121.339 137.652 126.035 133.192 131.174 129.537C132.686 128.462 134.372 127.909 136.232 127.834C139.818 127.691 143.532 126.472 147.043 125.77C151.696 124.839 156.326 125.047 161.054 125.047C163.792 125.047 166.488 125.976 169.207 125.976" stroke="black" stroke-width="3" stroke-linecap="round"/>
<path d="M171.53 132.943C171.53 134.974 166.87 142.102 171.994 138.258C173.503 137.126 182.303 128.344 179.425 126.905" stroke="black" stroke-width="3" stroke-linecap="round"/>
<path d="M180.818 136.659C182.005 136.527 183.02 135.434 183.605 134.491C185.099 132.084 186.609 129.761 188.146 127.37C189.992 124.498 193.358 120.221 193.358 116.687C193.358 114.494 193.493 113.567 191.397 112.869C187.739 111.649 184.702 109.093 181.076 107.863C178.16 106.874 175.073 105.541 171.994 105.541C169.749 105.541 167.504 105.541 165.26 105.541C163.196 105.541 162.229 104.608 160.383 104.044C157.562 103.182 154.785 101.812 152.023 101C150.227 100.471 148.885 99.3127 147.662 97.8775C146.493 96.5052 146.075 94.454 144.592 93.4653" stroke="black" stroke-width="3" stroke-linecap="round"/>
<path d="M196.145 110.65C197.42 110.367 198.288 107.882 198.932 106.934C199.617 105.927 200.688 105.22 201.254 104.147C201.804 103.105 202.054 102.124 203.009 101.361C204.464 100.197 204.854 96.5418 206.363 95.7875" stroke="black" stroke-width="3" stroke-linecap="round"/>
<path d="M205.434 105.541C205.434 103.521 205.144 101.389 205.898 99.5031" stroke="black" stroke-width="3" stroke-linecap="round"/>
<path d="M196.61 95.7875C197.119 95.7875 200.038 95.944 200.119 95.2198C200.184 94.6282 197.005 94.8586 196.713 94.8586C192.947 94.8586 191.578 94.4901 189.54 91.0398C187.03 86.7926 184.816 81.878 181.283 78.345C180.779 77.8407 177.768 80.1074 177.593 80.7188C176.924 83.0613 178.633 84.717 180.173 86.0857C181.149 86.9527 182.485 89.0318 180.612 86.9888C180.071 86.3985 179.463 85.9656 178.961 85.3375C178.463 84.7157 175.206 84.972 174.548 85.3375C173.396 85.9777 169.282 85.5697 170.601 85.5697" stroke="black" stroke-width="3" stroke-linecap="round"/>
<path d="M169.672 71.1719C173.783 71.9942 175.545 80.1605 172.923 82.783" stroke="black" stroke-width="3" stroke-linecap="round"/>
<path d="M171.994 70.7075C176.208 70.7075 180.423 70.7075 184.637 70.7075C189.708 70.7075 194.558 69.5042 199.499 69.3141C202.929 69.1822 204.939 68.2043 207.911 66.063C210.126 64.467 215.176 60.9895 216.116 58.1675" stroke="black" stroke-width="3" stroke-linecap="round"/>
<path d="M175.245 60.4897C180.056 60.4897 185.079 60.0133 189.849 60.5155C191.322 60.6705 192.291 61.7459 193.565 62.3474C195.124 63.0837 197.229 63.2763 198.932 63.2763" stroke="black" stroke-width="3" stroke-linecap="round"/>
<path d="M174.781 60.0253C170.802 56.6149 166.236 53.4297 162.008 50.3235C160.097 48.9195 157.91 47.605 155.584 47.0466C154.266 46.7305 154.93 46.2598 154.242 45.7307C152.019 44.0208 146.828 44.7578 144.102 43.7955C141.727 42.9575 140.123 42.5084 138.09 40.983" stroke="black" stroke-width="3" stroke-linecap="round"/>
<path d="M137.161 37.7319C146.733 37.7319 156.514 35.8652 165.595 39.2284C167.687 40.0032 169.868 42.2114 171.633 43.5632C173.476 44.975 175.114 45.9399 176.406 47.9497C177.188 49.1658 177.567 49.9975 177.567 51.4588C177.567 52.3758 177.18 54.026 178.032 54.4519" stroke="black" stroke-width="3" stroke-linecap="round"/>
<path d="M116.725 22.4052C126.84 22.4052 136.954 22.4052 147.069 22.4052C152.392 22.4052 157.946 22.8324 163.221 22.173C167.679 21.6158 172.997 21.8126 177.077 24.0566C179.827 25.5691 180.178 28.9168 181.283 31.5909C182.778 35.2115 184.929 38.3573 186.392 42.0151C186.927 43.354 188.104 44.6337 188.25 46.0919C188.359 47.1867 188.63 48.5901 189.178 49.5494C189.3 49.7618 190.102 50.6847 190.34 50.6847C190.783 50.6847 190.521 49.2005 190.572 48.9818C190.947 47.3544 195.569 49.1432 196.403 49.3946C203.393 51.5013 210.601 53.9801 217.432 56.5419C218.28 56.8598 219.738 58.3548 220.296 57.2386" stroke="black" stroke-width="3" stroke-linecap="round"/>
<path d="M115.332 23.7986C111.924 24.5287 109.015 27.6277 106.249 29.5267C104.29 30.8717 101.354 31.8024 100.47 34.2228C99.5363 36.7768 99.01 38.1964 102.095 38.1964C102.666 38.1964 103.088 37.6797 102.482 38.506C101.35 40.0498 100.454 41.7525 99.3084 43.2795C98.6131 44.2065 98.1473 47.7152 98.1473 46.5564" stroke="black" stroke-width="3" stroke-linecap="round"/>
<path d="M96.754 63.7408C96.754 58.3039 93.4346 52.5152 89.0906 49.1366C87.6801 48.0396 88.2407 46.9658 89.9937 47.4853C91.4541 47.918 97.0225 49.002 97.6829 47.0208" stroke="black" stroke-width="3" stroke-linecap="round"/>
<path d="M60.5273 72.5653C64.6226 72.5653 68.2326 71.3959 72.0868 70.0108C74.5973 69.1086 76.8003 67.9615 79.0535 66.5533C80.2465 65.8076 81.5497 64.283 83.0271 64.2053C87.6168 63.9637 93.6491 65.0367 97.6829 62.3475" stroke="black" stroke-width="3" stroke-linecap="round"/>
<path d="M62.8495 73.9586C69.7523 73.9586 79.0709 72.5462 85.3751 76.0486C86.3962 76.6158 86.7277 76.575 87.9037 76.771C90.7509 77.2456 92.7242 80.2251 94.8962 81.8541" stroke="black" stroke-width="3" stroke-linecap="round"/>
<path d="M66.1006 87.8919C71.5097 87.8919 77.7502 88.8312 83.0529 87.6339C84.0208 87.4153 91.5829 85.0741 89.7873 84.1763" stroke="black" stroke-width="3" stroke-linecap="round"/>
<path d="M64.7073 90.2141C64.7073 92.3278 63.7705 97.0452 66.4619 98.0065C67.7582 98.4694 68.8222 97.461 70.0226 97.2324C71.4491 96.9607 72.8141 96.8351 74.2542 96.5099C79.6958 95.2812 84.9391 98.845 90.1485 99.8642C92.4816 100.321 93.622 99.8975 90.613 99.9674C87.1024 100.049 84.2928 101.842 81.1951 103.219C79.885 103.801 78.9586 105.209 77.7118 105.902C76.2554 106.711 74.8015 106.255 73.2479 106.728C71.3945 107.292 68.4385 107.183 66.7973 108.095C66.3209 108.36 62.1915 110.589 63.8816 110.65C64.9599 110.688 71.8208 109.65 68.7841 109.721C65.9467 109.787 63.166 111.539 60.8111 112.972C59.6959 113.651 58.3707 114.994 58.6953 116.455C59.3422 119.366 73.2824 115.736 75.3895 115.397C78.0281 114.973 79.1881 116.371 81.6595 116.662C84.0972 116.948 86.39 117.152 88.8584 117.152" stroke="black" stroke-width="3" stroke-linecap="round"/>
<path d="M86.5362 120.403C84.7128 122.226 82.8894 124.05 81.0661 125.873C78.0904 128.849 75.6184 132.81 72.3964 135.446C70.7247 136.814 68.3336 134.466 66.9263 133.872C64.9054 133.019 59.9301 131.324 61.224 128.995C62.6335 126.458 58.3311 122.387 56.8117 120.867C54.4573 118.513 51.0598 118.365 47.9615 118.055C45.6025 117.819 43.1588 117.454 40.8142 117.1C39.4522 116.895 38.318 116.069 37.0212 115.862C35.2742 115.582 33.0876 116.658 31.4221 117.049C24.2178 118.74 16.9741 120.867 9.5158 120.867C7.51181 120.867 5.50782 120.867 3.50383 120.867C1.17664 120.867 2.27503 119.159 2.93617 117.616" stroke="black" stroke-width="3" stroke-linecap="round"/>
<path d="M5.25842 131.085C7.42064 129.513 13.6311 130.621 16.1729 130.621C22.9951 130.621 29.1265 129.847 35.6537 128.066C37.2631 127.627 38.9129 127.3 40.2982 126.338C41.1885 125.719 41.7424 125.149 42.7236 125.512C45.7165 126.618 54.6949 131.041 55.4184 125.976" stroke="black" stroke-width="3" stroke-linecap="round"/>
<path d="M54.4895 135.73C54.4895 139.02 54.6108 142.008 53.4574 145.122C53.2855 145.586 52.0981 148.218 51.4706 148.218C51.3061 148.218 50.8215 147.689 50.6707 147.599C49.1215 146.669 47.4917 146.632 45.7683 146.309C42.9822 145.786 40.1443 145.947 37.3051 145.947C35.9767 145.947 36.7768 147.071 35.6795 147.315C34.3434 147.612 33.3965 148.27 31.9382 148.27C29.0851 148.27 26.9704 148.096 24.3522 149.405C21.7478 150.707 20.6365 148.734 18.0306 148.734C15.7912 148.734 14.0111 150.582 11.9928 151.031C11.1511 151.218 9.97277 151.205 9.33519 150.695C7.43148 149.172 2.74734 150.236 0.613953 150.592" stroke="black" stroke-width="3" stroke-linecap="round"/>
<path d="M86.0717 112.043C87.9637 112.043 89.8566 112.063 91.7483 112.043C95.0586 112.008 96.7905 111.018 99.6438 109.721C102.583 108.385 105.631 106.484 108.417 104.818C108.8 104.589 111.905 102.052 110.92 103.038C110.067 103.891 109.295 106.569 108.107 106.908C106.215 107.449 104.555 108.337 102.792 109.256C100.7 110.348 93.0292 115.352 99.1278 115.733C102.636 115.952 106.221 115.759 109.733 115.759C113.115 115.759 117.102 116.242 120.208 114.598C123.636 112.783 128.259 112.778 131.974 111.604C132.31 111.498 137 110.125 136.593 111.114C136.259 111.926 135.38 112.969 135.871 113.901C136.63 115.345 139.813 115.816 140.644 114.339C141.197 113.356 145.039 107.863 142.27 107.863" stroke="black" stroke-width="3" stroke-linecap="round"/>
<path d="M131.587 93.4653C128.985 96.3571 126.433 97.7877 124.621 101.412C123.756 103.142 123.277 103.683 125.653 103.683C128.238 103.683 131.21 104.244 133.445 102.754" stroke="black" stroke-width="3" stroke-linecap="round"/>
<path d="M123.692 96.7163C120.115 96.7163 115.848 96.7063 112.545 95.2198C110.551 94.3225 114.171 92.0326 115.074 91.143C116.37 89.8654 118.216 87.5499 119.976 86.963" stroke="black" stroke-width="3" stroke-linecap="round"/>
<path d="M100.47 97.1808C102.195 97.1808 108.365 94.0711 108.365 92.0719" stroke="black" stroke-width="3" stroke-linecap="round"/>
<path d="M126.943 57.703C126.943 52.276 123.484 47.8703 123.692 42.4796C123.757 40.7936 125.082 40.8879 126.014 40.0541C127.944 38.3272 129.771 36.762 131.587 34.9453" stroke="black" stroke-width="3" stroke-linecap="round"/>
<path d="M127.407 58.1675C130.951 58.5612 134.504 61.2299 138.09 61.4186C140.961 61.5697 139.308 56.4239 138.554 54.9164" stroke="black" stroke-width="3" stroke-linecap="round"/>
<path d="M154.579 75.8842C154.359 75.0777 152.489 74.7055 151.871 74.6892C150.934 74.6645 150.135 73.877 149.162 74.2555C148.559 74.49 147.887 75.234 147.887 75.9019C147.887 76.4507 147.955 76.9472 148.109 77.4774C148.288 78.0988 148.618 78.574 148.919 79.146C149.362 79.9882 149.998 80.6528 150.636 81.3456C151.523 82.3103 153.277 82.5198 154.544 82.4963C155.534 82.4779 156.334 81.2694 156.606 80.4294C156.776 79.9033 156.873 79.0775 156.597 78.5795C156.396 78.2144 156.125 77.5414 155.694 77.3978" stroke="black" stroke-width="3" stroke-linecap="round"/>
<path d="M206.822 3.86761V5.47218" stroke="#FFF3E4" stroke-width="8" stroke-linecap="round"/>
<path d="M206.822 4.18854C206.822 4.42243 206.501 4.57864 206.501 4.81254C206.501 5.94894 206.635 4.47398 206.18 4.25985C205.158 3.77874 205.859 7.88632 205.859 4.83036" stroke="#FFF3E4" stroke-width="8" stroke-linecap="round"/>
<path d="M212.277 8.03946C212.277 8.19411 212.528 9.97257 212.848 9.57271C213.101 9.25661 212.391 7.42685 212.028 7.78986C211.412 8.40572 212.861 9.22358 213.24 9.39443C213.852 9.66973 213.952 8.73703 214.203 8.36038" stroke="#FFF3E4" stroke-width="8" stroke-linecap="round"/>
</g>
<rect x="4" y="4.125" width="228" height="228" rx="114" stroke="#F0F0F0" stroke-width="8"/>
<defs>
<clipPath id="clip0_29_302">
<rect y="0.125" width="236" height="236" rx="118" fill="white"/>
</clipPath>
</defs>
</svg>
