<svg width="236" height="236" viewBox="0 0 236 236" fill="none" xmlns="http://www.w3.org/2000/svg">
<g clip-path="url(#clip0_29_36)">
<circle cx="118" cy="118" r="114" fill="white" stroke="#F0F0F0" stroke-width="8"/>
<path d="M86.8854 76.3133C86.6045 76.2875 86.4176 76.2188 86.3249 76.1073C86.2553 76.0236 86.1973 75.9539 86.1509 75.8981C86.1301 75.8447 86.0837 75.7889 86.0118 75.7308C85.9167 75.6448 85.7972 75.5437 85.6533 75.4275C85.5118 75.2857 85.4598 75.0105 85.4974 74.6019C85.5302 74.2443 85.6538 73.7406 85.868 73.0906C86.1102 72.4175 86.5267 71.5286 87.1175 70.4239L87.1558 70.4274C87.5627 69.9239 87.9068 69.4018 88.1883 68.8611C88.4977 68.2971 88.8012 67.797 89.0988 67.3608L89.0918 67.4374C89.0965 67.3863 89.2592 67.1566 89.5801 66.7483C89.9032 66.3144 90.2857 65.7958 90.7275 65.1925C91.1948 64.5916 91.6621 63.9906 92.1294 63.3897C92.5967 62.7888 92.9919 62.2713 93.3151 61.8375C93.6638 61.4059 93.8533 61.1658 93.8835 61.117L93.88 61.1553C93.9381 61.0834 94.0555 60.9268 94.2322 60.6855C94.4368 60.421 94.553 60.2771 94.5809 60.2539L94.5426 60.2504C94.8355 59.8653 95.0297 59.574 95.1251 59.3768C95.2484 59.1563 95.3705 58.9486 95.4914 58.7537C95.6402 58.5356 95.8855 58.249 96.2272 57.8941L97.7264 56.2934C97.8658 56.1774 98.039 55.9744 98.2459 55.6844C98.4807 55.3711 98.705 55.1728 98.9187 55.0894C99.2927 54.9435 99.7421 54.8174 100.267 54.7111C100.817 54.6072 101.297 54.574 101.706 54.6115C101.986 54.6373 102.212 54.7095 102.381 54.8281C102.578 54.9235 102.678 55.1001 102.68 55.3578C102.619 55.7385 102.438 56.1726 102.135 56.6599C101.835 57.1217 101.408 57.5717 100.852 58.01C100.574 58.242 100.217 58.4796 99.7824 58.723C99.348 58.9664 99.0157 59.2192 98.7856 59.4813L98.8239 59.4848C98.5054 59.8677 98.0999 60.2167 97.6073 60.532C97.1403 60.8497 96.779 61.1384 96.5233 61.3982C96.321 61.6372 96.0712 61.8332 95.7739 61.9861C95.4789 62.1135 95.2454 62.2724 95.0733 62.4626C93.7809 63.9149 92.765 65.1608 92.0256 66.2003C91.2886 67.2143 90.8305 67.8547 90.6515 68.1216C90.5329 68.291 90.3666 68.559 90.1526 68.9257C89.9665 69.2691 89.7793 69.6254 89.5908 69.9944C89.4048 70.3379 89.2652 70.5955 89.1721 70.7672C89.0069 71.1641 88.8534 71.4333 88.7116 71.5748C88.5722 71.6908 88.4512 71.8857 88.3488 72.1596C88.3139 72.2594 88.244 72.459 88.1393 72.7584C88.06 73.0602 87.9959 73.3376 87.9469 73.5907C87.9002 73.8182 87.892 73.9076 87.9222 73.8589L88.6924 73.466L90.215 72.8719L90.2568 72.8371C90.5495 72.7352 90.7597 72.6902 90.8874 72.7019C91.0151 72.7136 91.1834 72.7034 91.3924 72.671C91.6014 72.6387 91.9359 72.5021 92.3959 72.261C92.4214 72.2634 92.555 72.2113 92.7966 72.1047C93.0382 71.9981 93.2798 71.8915 93.5214 71.785C93.7908 71.6552 93.9383 71.5915 93.9639 71.5938C94.2589 71.4664 94.4192 71.4039 94.4447 71.4062C94.4958 71.4109 94.5748 71.3924 94.6816 71.3507C94.7908 71.2835 95.0754 71.1294 95.5354 70.8883C96.0232 70.6241 96.3949 70.5037 96.6503 70.5272C96.829 70.5436 96.9126 70.6157 96.9008 70.7434C96.8914 70.8455 96.788 70.9905 96.5904 71.1784C96.4184 71.3687 96.1152 71.5855 95.6807 71.8289C94.9211 72.2484 94.1509 72.6412 93.3704 73.0073C92.6178 73.3503 91.8512 73.7048 91.0706 74.0709C90.6409 74.2632 90.3459 74.3906 90.1856 74.4531C90.0277 74.4901 89.9232 74.5063 89.8721 74.5016C89.8465 74.4993 89.7931 74.5201 89.7118 74.5641C89.6305 74.6082 89.4504 74.7462 89.1715 74.9781L89.1297 75.0129C89.0786 75.0082 88.9427 75.0858 88.722 75.2458C88.5012 75.4058 88.363 75.509 88.3072 75.5554C88.1957 75.6482 88.0818 75.7665 87.9655 75.9104C87.8748 76.0565 87.7493 76.1609 87.5891 76.2235C87.4009 76.3092 87.1664 76.3391 86.8854 76.3133ZM106.838 61.3802C106.608 61.3591 106.462 61.2684 106.399 61.1081C106.364 60.9246 106.341 60.7551 106.33 60.5995C106.316 60.4695 106.304 60.3267 106.292 60.1711C106.281 60.0155 106.282 59.8611 106.296 59.7078C106.315 59.5035 106.357 59.3271 106.422 59.1786C106.515 59.0068 106.656 58.8781 106.844 58.7924C107.459 58.5399 107.977 58.3685 108.398 58.2784C108.818 58.1882 109.156 58.1549 109.411 58.1784C109.794 58.2136 110.039 58.352 110.146 58.5935C110.252 58.8351 110.289 59.1347 110.256 59.4923C110.247 59.5944 110.238 59.6966 110.228 59.7987C110.221 59.8753 110.199 59.9763 110.162 60.1017C110.055 60.4267 109.778 60.633 109.332 60.7208C108.912 60.811 108.555 60.907 108.263 61.0089C108.074 61.0946 107.847 61.1896 107.58 61.2938C107.34 61.3749 107.119 61.406 106.914 61.3872L106.838 61.3802ZM96.9692 77.124C96.867 77.1146 96.7847 77.0298 96.7221 76.8695C96.6898 76.6605 96.6424 76.4758 96.5799 76.3156C96.5173 76.1553 96.5001 75.9219 96.5283 75.6154C96.5612 75.2579 96.6859 74.7414 96.9025 74.0659C97.1191 73.3904 97.5078 72.3831 98.0687 71.0438C98.4969 70.0272 98.8809 69.2126 99.2205 68.5999C99.5601 67.9872 99.9101 67.4013 100.271 66.842L100.274 66.8037C100.36 66.7086 100.483 66.6298 100.643 66.5673C100.804 66.5047 100.913 66.4375 100.971 66.3656L100.933 66.362C100.989 66.3157 101.008 66.2402 100.992 66.1357C100.978 66.0057 100.976 65.8896 100.986 65.7874C101.011 65.5065 101.122 65.2848 101.317 65.1225C101.54 64.9369 101.762 64.7642 101.983 64.6042C102.206 64.4186 102.546 64.2181 103.004 64.0026C103.462 63.7871 103.989 63.6553 104.586 63.6071C104.665 63.5886 104.742 63.5829 104.819 63.5899C104.896 63.5969 104.972 63.604 105.049 63.611C105.483 63.6509 105.807 63.7708 106.02 63.9707C106.234 64.1706 106.382 64.3774 106.465 64.5911C106.512 64.6469 106.557 64.7154 106.601 64.7967C106.645 64.878 106.662 64.9698 106.653 65.0719C106.644 65.1741 106.58 65.3099 106.461 65.4792C106.37 65.6254 106.173 65.8133 105.868 66.0429C105.727 66.1844 105.52 66.3328 105.248 66.4881C105.004 66.6202 104.771 66.7791 104.547 66.9646C104.269 67.1965 104 67.4552 103.742 67.7405C103.484 68.0259 103.24 68.2996 103.01 68.5618C102.808 68.8008 102.594 69.0258 102.368 69.2369C102.145 69.4224 101.921 69.6207 101.696 69.8318C101.584 69.9246 101.49 70.1091 101.413 70.3853C101.338 70.636 101.204 70.8425 101.008 71.0049C100.808 71.2183 100.588 71.3783 100.346 71.4849C100.13 71.5938 99.9477 71.7573 99.7988 71.9755L99.8024 71.9371C99.6535 72.1553 99.4884 72.4105 99.307 72.7029C99.1256 72.9953 98.9454 73.2749 98.7664 73.5418C98.464 74.0291 98.2628 74.3969 98.1627 74.6453C98.065 74.8681 98.0103 75.0434 97.9985 75.1711C97.9845 75.3243 98.0006 75.4288 98.047 75.4846C98.1189 75.5427 98.12 75.6716 98.0501 75.8712C97.9268 76.0916 97.7605 76.3597 97.5513 76.6753C97.3675 76.9932 97.1735 77.1428 96.9692 77.124ZM105.15 77.7598C105.048 77.7504 104.959 77.7294 104.885 77.6968C104.811 77.6643 104.748 77.6456 104.697 77.6409C104.37 77.5593 104.234 77.2121 104.291 76.5991C104.312 76.3693 104.361 76.1162 104.438 75.84C104.542 75.5406 104.688 75.2191 104.874 74.8756L104.87 74.9139C104.908 74.7886 104.968 74.6911 105.052 74.6216C105.138 74.5264 105.17 74.4522 105.15 74.3987C105.161 74.271 105.26 74.0355 105.446 73.692C105.66 73.3253 105.768 73.1292 105.771 73.1037L105.774 73.0654C105.837 72.9424 105.958 72.7474 106.137 72.4806C106.318 72.1882 106.439 71.9933 106.5 71.8958C106.742 71.5059 106.918 71.2646 107.03 71.1719C107.141 71.0791 107.238 71.0107 107.319 70.9667C107.426 70.925 107.555 70.7823 107.706 70.5386L107.748 70.5038C107.748 70.5038 107.762 70.4922 107.79 70.469C107.82 70.4203 107.85 70.3716 107.881 70.3229C107.776 70.339 107.67 70.3679 107.564 70.4096C107.485 70.4281 107.366 70.4559 107.208 70.4929L107.17 70.4893C107.042 70.4776 106.868 70.4101 106.648 70.2868C106.43 70.138 106.301 69.9974 106.261 69.865C106.224 69.7071 106.21 69.5898 106.217 69.5132C106.247 69.1812 106.408 68.8354 106.698 68.4757C106.991 68.0906 107.27 67.8587 107.535 67.78L107.573 67.7835C107.701 67.7952 107.871 67.7594 108.085 67.676C108.299 67.5926 108.485 67.5324 108.643 67.4954L108.719 67.5025C108.796 67.5095 108.85 67.4759 108.883 67.4016C108.918 67.3018 109.026 67.2474 109.207 67.2382C109.207 67.2382 109.379 67.1896 109.723 67.0925C110.092 66.9976 110.408 66.9236 110.67 66.8705C110.787 66.7266 110.902 66.5955 111.016 66.4772C111.129 66.3589 111.175 66.2858 111.152 66.2579C111.275 66.0375 111.422 65.8321 111.594 65.6419C111.794 65.4285 111.993 65.2278 112.191 65.0399L112.152 65.0364C112.761 64.294 113.451 63.5202 114.22 62.7153C114.989 61.9103 115.854 61.0497 116.814 60.1334C117.829 59.1708 118.806 58.4879 119.745 58.0848C120.711 57.6585 121.568 57.4411 122.316 57.4325C122.75 57.4724 123.226 57.6192 123.744 57.8728C124.261 58.1264 124.625 58.3659 124.837 58.5913C125.259 59.0422 125.6 59.5371 125.859 60.076C126.119 60.615 126.228 61.1015 126.189 61.5357C126.165 61.7911 126.093 62.0163 125.972 62.2112L125.968 62.2495C125.85 62.4189 125.676 62.493 125.446 62.4719C125.267 62.4555 125.106 62.3891 124.962 62.2729C124.846 62.1335 124.796 61.9744 124.813 61.7956C124.822 61.4102 124.668 60.9839 124.351 60.5169C124.058 60.0522 123.745 59.8174 123.411 59.8124C123.311 59.7775 123.146 59.7495 122.916 59.7284C122.431 59.6838 121.882 59.775 121.269 60.0019C120.681 60.2312 120.009 60.6717 119.254 61.3235C118.666 61.8361 118.193 62.2176 117.836 62.468C117.48 62.6929 117.168 62.8702 116.898 63C116.657 63.1066 116.414 63.2259 116.17 63.358C115.954 63.4669 115.68 63.6478 115.347 63.9006C115.222 64.1466 114.971 64.4969 114.594 64.9517C114.22 65.3809 113.82 65.8077 113.395 66.2322C113.527 66.1929 113.645 66.1652 113.75 66.149C113.882 66.1097 114.012 66.0959 114.14 66.1076C114.293 66.1217 114.55 66.1324 114.91 66.1397C115.272 66.1215 115.543 66.1206 115.721 66.137L115.728 66.0604C115.74 65.9327 115.811 65.8619 115.941 65.8481L115.903 65.8446C116.191 65.7938 116.477 65.7558 116.763 65.7305C117.077 65.682 117.39 65.6336 117.704 65.5851C118.354 65.5161 119.006 65.4215 119.661 65.3014C120.342 65.1837 121.005 65.1158 121.65 65.0978C121.855 65.1166 122.115 65.089 122.431 65.015C122.746 64.941 123.019 64.9146 123.249 64.9357C123.402 64.9498 123.53 64.9615 123.632 64.9709C123.737 64.9547 123.878 64.9549 124.057 64.9713C124.261 64.9901 124.448 65.0588 124.618 65.1774C124.787 65.2959 124.876 65.4458 124.885 65.6269C124.841 65.8289 124.742 65.9228 124.589 65.9087C124.461 65.897 124.295 65.8818 124.091 65.863C123.989 65.8536 123.796 65.8488 123.513 65.8485C123.23 65.8482 122.841 65.8769 122.346 65.9344C121.981 65.9782 121.734 66.007 121.604 66.0208C121.5 66.0369 121.382 66.0519 121.252 66.0657C121.148 66.0819 120.899 66.1234 120.507 66.1904C119.49 66.3287 118.387 66.5622 117.197 66.8907C116.034 67.2216 114.71 67.6151 113.226 68.0711C112.828 68.1891 112.386 68.3803 111.898 68.6445C111.413 68.8832 110.939 69.1358 110.476 69.4024C110.209 69.7899 109.982 70.1554 109.796 70.4989C109.638 70.8191 109.441 71.1359 109.207 71.4491L109.168 71.4456C108.938 71.7078 108.686 72.0709 108.411 72.535C108.162 73.0015 107.912 73.4808 107.661 73.9728C107.438 74.4416 107.26 74.8373 107.127 75.1599C106.994 75.4826 106.942 75.6323 106.97 75.6091C107.023 75.5882 107.048 75.6034 107.043 75.6544C107.066 75.6823 107.05 75.7195 106.994 75.7658C106.88 75.8842 106.787 76.0559 106.715 76.281C106.643 76.5062 106.561 76.6919 106.471 76.8381C106.354 76.9819 106.227 77.1118 106.087 77.2278C105.976 77.3206 105.879 77.389 105.798 77.433C105.682 77.5769 105.57 77.6696 105.463 77.7113C105.356 77.753 105.252 77.7692 105.15 77.7598ZM121.477 80.1872C121.4 80.1802 121.239 80.1138 120.993 79.9882C120.744 79.8881 120.483 79.7869 120.209 79.6844C119.936 79.582 119.735 79.5249 119.607 79.5132L119.569 79.5097C119.084 79.4651 118.731 79.2395 118.511 78.8329C118.318 78.4032 118.199 78.0188 118.153 77.6797C118.139 77.5497 118.125 77.4197 118.112 77.2896C118.126 77.1364 118.14 76.9831 118.154 76.8299C118.231 75.9871 118.524 75.0482 119.031 74.013C119.538 72.9779 120.189 71.9174 120.984 70.8315C121.805 69.748 122.708 68.7492 123.693 67.8353C124.709 66.8727 125.716 66.1411 126.715 65.6405C127.714 65.1399 128.6 64.8866 129.374 64.8803C129.782 64.9179 130.193 65.0715 130.606 65.3413C131.019 65.611 131.315 65.7541 131.494 65.7705L131.532 65.7741C132.068 65.8233 132.406 66.0733 132.545 66.5239C132.684 66.9745 132.733 67.4169 132.693 67.851C132.67 68.1064 132.594 68.3699 132.466 68.6414C132.338 68.913 132.228 69.1346 132.135 69.3064C132.067 69.4804 132.061 69.5443 132.117 69.4979L132.159 69.4631C131.831 69.9481 131.464 70.4423 131.057 70.9458C130.678 71.4261 130.067 72.0524 129.223 72.8248C128.886 73.1287 128.434 73.4219 127.867 73.7047C127.328 73.9642 126.805 74.1994 126.296 74.4102C125.787 74.621 125.426 74.7681 125.212 74.8515C124.998 74.9349 124.726 74.9613 124.394 74.9308C124.062 74.9003 123.695 74.8279 123.293 74.7138C122.917 74.602 122.589 74.5331 122.308 74.5073C122.155 74.4932 122.013 74.4931 121.883 74.5069C121.753 74.5207 121.656 74.5891 121.594 74.7121C121.124 75.3386 120.859 75.9839 120.798 76.6479C120.76 77.0565 120.818 77.4095 120.971 77.7069C121.152 77.981 121.472 78.1392 121.932 78.1815C122.085 78.1956 122.252 78.198 122.433 78.1889C122.614 78.1798 122.798 78.1452 122.983 78.085C123.425 78.0482 123.735 78.0381 123.913 78.0545C124.092 78.071 124.286 78.063 124.495 78.0307C124.73 78.0008 125.112 77.9071 125.641 77.7497C126.224 77.5715 126.661 77.4442 126.951 77.3678C127.267 77.2939 127.505 77.2256 127.665 77.163C127.851 77.1029 128.038 77.0299 128.226 76.9442C128.415 76.8584 128.71 76.731 129.111 76.5619C129.406 76.4345 129.567 76.3719 129.592 76.3743C129.643 76.379 129.722 76.3605 129.829 76.3188C129.938 76.2516 130.223 76.0974 130.683 75.8564C131.171 75.5922 131.542 75.4718 131.798 75.4952C131.977 75.5117 132.06 75.5837 132.048 75.7114C132.039 75.8136 131.936 75.9586 131.738 76.1465C131.566 76.3367 131.263 76.5535 130.828 76.7969C130.366 77.0635 129.835 77.3753 129.236 77.7323C128.662 78.0916 128.134 78.3651 127.654 78.5527C127.498 78.5642 127.352 78.6151 127.215 78.7056C127.105 78.7728 126.946 78.8226 126.737 78.8549L124.508 79.5772L124.549 79.5424C124.633 79.4728 124.544 79.4646 124.281 79.5177C124.044 79.5732 123.727 79.66 123.33 79.778C122.958 79.8984 122.589 79.9932 122.222 80.0625C121.879 80.1597 121.63 80.2013 121.477 80.1872ZM123.576 73.7353C123.678 73.7447 123.781 73.7541 123.883 73.7635C123.987 73.7473 124.092 73.7312 124.196 73.715C124.389 73.5782 124.566 73.4786 124.726 73.416C124.886 73.3535 125.102 73.2446 125.374 73.0893C125.646 72.9339 126.033 72.6476 126.535 72.2301C126.953 71.8822 127.31 71.6445 127.605 71.5171C127.902 71.3642 128.15 71.1937 128.347 71.0059C128.951 70.3145 129.284 69.7784 129.345 69.3977C129.431 69.0193 129.489 68.6641 129.52 68.3321C129.251 67.8953 128.989 67.6652 128.733 67.6417C128.58 67.6276 128.345 67.6703 128.026 67.7699C127.576 67.9088 127.203 68.0419 126.908 68.1693C126.638 68.2991 126.225 68.5959 125.667 69.0598C125.023 69.6187 124.432 70.1696 123.893 70.7124C123.356 71.2297 122.92 71.7692 122.585 72.3307C122.55 72.4306 122.502 72.5292 122.442 72.6267C122.409 72.7009 122.391 72.7636 122.386 72.8147C122.36 73.0956 122.469 73.3117 122.713 73.4628C122.956 73.614 123.244 73.7048 123.576 73.7353ZM152.728 82.8656C151.783 82.7788 150.861 82.5782 149.963 82.2638C149.09 81.9519 148.309 81.4809 147.62 80.851C147.031 80.256 146.642 79.4476 146.452 78.4257C146.288 77.4062 146.25 76.424 146.337 75.479C146.374 75.0704 146.435 74.6897 146.519 74.3368C146.605 73.9584 146.686 73.6438 146.76 73.3931C147.368 71.5431 148.322 69.8537 149.621 68.3247C150.948 66.7726 152.595 65.2499 154.561 63.7564C154.784 63.5709 155.006 63.3981 155.227 63.2381C155.447 63.0781 155.668 62.9181 155.889 62.7581C156.023 62.6932 156.155 62.6666 156.282 62.6784C156.412 62.6646 156.529 62.6624 156.631 62.6718C156.758 62.6835 156.873 62.694 156.975 62.7034C157.08 62.6873 157.16 62.656 157.216 62.6096C157.351 62.5447 157.444 62.373 157.495 62.0944C157.572 61.8182 157.693 61.6233 157.858 61.5096C158.648 61.0414 159.557 60.6742 160.586 60.4082C161.615 60.1422 162.566 59.8819 163.439 59.6273C164.18 59.4121 165.069 59.2748 166.104 59.2154C167.165 59.1584 168.181 59.1745 169.152 59.2636C170.148 59.3552 170.958 59.5069 171.582 59.7188C172.133 59.8981 172.484 60.1364 172.637 60.4338C172.818 60.708 172.92 61.0006 172.943 61.3118C172.966 61.623 173.002 61.9225 173.053 62.2105C173.072 62.2895 173.077 62.3673 173.07 62.4439C173.089 62.5229 173.095 62.6006 173.088 62.6773C173.05 63.0859 172.888 63.4445 172.602 63.753C172.317 64.0616 172.047 64.1913 171.794 64.1423C171.963 64.2609 172.105 64.4027 172.219 64.5677C172.358 64.735 172.483 64.9139 172.594 65.1044C172.775 65.3786 172.979 65.6806 173.206 66.0106C173.436 66.315 173.584 66.6634 173.651 67.0559L173.648 67.0942C173.634 67.2474 173.604 67.425 173.56 67.627C173.541 67.8313 173.524 68.0229 173.507 68.2016C173.477 68.2504 173.509 68.3177 173.605 68.4037C173.728 68.4665 173.794 68.5885 173.803 68.7696C173.725 69.6124 173.513 70.5201 173.166 71.4927C172.822 72.4397 172.307 73.4098 171.624 74.4029C170.761 75.6629 169.814 76.722 168.782 77.5801C167.776 78.4406 166.784 79.1478 165.806 79.7018C164.855 80.2326 164.028 80.6846 163.325 81.0578L163.248 81.0507C163.225 81.0228 163.157 81.0553 163.046 81.1481C162.962 81.2176 162.899 81.199 162.858 81.0922C162.677 81.1013 162.574 81.0919 162.551 81.064C162.528 81.0361 162.485 81.0837 162.422 81.2067C162.213 81.5223 161.917 81.6624 161.534 81.6272C161.179 81.5688 160.867 81.5918 160.6 81.696C160.259 81.7676 159.937 81.9055 159.635 82.1095C159.335 82.288 159.002 82.4119 158.635 82.4812C158.217 82.5458 157.447 82.6554 156.326 82.8099C155.204 82.9644 154.005 82.9829 152.728 82.8656ZM153.46 81.6194C154.073 81.6757 154.639 81.6891 155.156 81.6594C155.702 81.6065 156.09 81.5906 156.32 81.6117L156.358 81.6153C156.46 81.6246 156.632 81.576 156.874 81.4695C157.141 81.3652 157.408 81.261 157.675 81.1568C157.968 81.0549 158.191 81.011 158.344 81.0251C158.548 81.0439 158.821 81.0174 159.162 80.9458C159.504 80.8741 159.807 80.7989 160.072 80.7203C161.365 80.3755 162.425 79.9191 163.25 79.3511C164.074 78.783 164.912 78.2161 165.762 77.6503C165.983 77.4903 166.203 77.3431 166.421 77.2086C166.64 77.0742 166.817 76.9617 166.954 76.8713C167.326 76.4676 167.779 76.0199 168.314 75.5282C168.849 75.0365 169.356 74.4135 169.838 73.6593C170.377 72.8332 170.74 72.1068 170.927 71.4801C171.139 70.8557 171.274 70.2242 171.332 69.5857C171.358 69.3048 171.396 69.0378 171.445 68.7848C171.522 68.5085 171.571 68.2555 171.592 68.0256C171.599 67.949 171.577 67.7667 171.526 67.4787C171.475 67.1908 171.455 66.9957 171.464 66.8935C171.471 66.8169 171.414 66.7344 171.294 66.6461C171.201 66.5345 171.109 66.4102 171.019 66.2731C170.701 65.5228 170.254 64.928 169.676 64.4886C169.098 64.0492 168.465 63.7978 167.775 63.7344C166.907 63.6546 166.123 63.7758 165.424 64.0978C165.315 64.1651 165.195 64.2056 165.065 64.2194C164.96 64.2355 164.87 64.2401 164.793 64.2331C164.563 64.2119 164.457 64.112 164.473 63.9332C164.497 63.6778 164.818 63.3983 165.439 63.0948C166.084 62.7935 167.148 62.711 168.629 62.8471C169.14 62.894 169.621 62.9897 170.071 63.1341C170.549 63.2553 170.981 63.4624 171.366 63.7553L171.272 63.5149L171.276 63.4766C171.287 63.3489 171.212 63.1874 171.05 62.9922C170.913 62.7994 170.853 62.6136 170.869 62.4348C170.869 62.4348 170.714 62.3046 170.403 62.0442C170.118 61.7862 169.771 61.6385 169.362 61.6009L169.324 61.5974C169.094 61.5763 168.841 61.5273 168.564 61.4504C168.288 61.3735 167.984 61.3198 167.652 61.2893C167.167 61.2447 166.639 61.2476 166.067 61.2982C165.496 61.3487 164.878 61.4851 164.214 61.7074C162.168 62.395 160.19 63.1791 158.28 64.0596C156.399 64.9169 154.795 65.9672 153.471 67.2105C153.299 67.4007 153.184 67.5318 153.126 67.6037C153.093 67.678 152.977 67.8218 152.777 68.0352C152.635 68.1767 152.424 68.3762 152.142 68.6337C151.861 68.8912 151.662 69.0918 151.546 69.2357C151.114 69.7368 150.766 70.2972 150.503 70.9169C150.243 71.5111 150.021 72.096 149.84 72.6717C149.658 73.2474 149.46 73.7185 149.246 74.0852C149.062 74.4031 148.916 74.7373 148.806 75.0878C148.725 75.4152 148.668 75.7576 148.635 76.1152C148.578 76.7281 148.601 77.3225 148.703 77.8985C148.83 78.4768 148.978 78.9669 149.147 79.3687C149.488 80.1469 150.068 80.7024 150.887 81.0353C151.734 81.3449 152.592 81.5396 153.46 81.6194ZM172.49 83.9475C172.388 83.9381 172.299 83.9171 172.225 83.8845C172.151 83.8519 172.088 83.8333 172.037 83.8286C171.71 83.747 171.574 83.3998 171.631 82.7868C171.652 82.557 171.701 82.3039 171.778 82.0277C171.882 81.7282 172.028 81.4068 172.214 81.0633L172.21 81.1016C172.248 80.9763 172.308 80.8788 172.392 80.8092C172.478 80.7141 172.51 80.6399 172.49 80.5864C172.501 80.4587 172.6 80.2231 172.786 79.8797C173 79.513 173.108 79.3169 173.111 79.2914L173.114 79.2531C173.177 79.1301 173.298 78.9351 173.477 78.6683C173.659 78.3759 173.779 78.181 173.84 78.0835C174.082 77.6936 174.259 77.4523 174.37 77.3596C174.482 77.2668 174.578 77.1984 174.659 77.1543C174.766 77.1126 174.895 76.97 175.046 76.7263L175.088 76.6915C175.088 76.6915 175.102 76.6799 175.13 76.6567C175.16 76.608 175.19 76.5593 175.221 76.5105C175.116 76.5267 175.011 76.5556 174.904 76.5973C174.825 76.6158 174.706 76.6436 174.548 76.6806L174.51 76.677C174.382 76.6653 174.208 76.5978 173.988 76.4745C173.77 76.3257 173.641 76.1851 173.602 76.0527C173.565 75.8948 173.55 75.7775 173.557 75.7009C173.587 75.3689 173.748 75.0231 174.038 74.6634C174.331 74.2783 174.61 74.0463 174.875 73.9676L174.913 73.9712C175.041 73.9829 175.212 73.9471 175.425 73.8637C175.639 73.7803 175.825 73.7201 175.983 73.6831L176.059 73.6902C176.136 73.6972 176.191 73.6636 176.223 73.5893C176.258 73.4895 176.366 73.435 176.547 73.4259C176.547 73.4259 176.719 73.3773 177.063 73.2801C177.432 73.1853 177.748 73.1113 178.01 73.0582C178.127 72.9143 178.242 72.7832 178.356 72.6649C178.47 72.5466 178.515 72.4735 178.492 72.4456C178.615 72.2252 178.763 72.0198 178.935 71.8296C179.135 71.6161 179.333 71.4155 179.531 71.2276L179.492 71.2241C180.102 70.4816 180.791 69.7079 181.56 68.903C182.329 68.098 183.194 67.2374 184.154 66.3211C185.17 65.3585 186.147 64.6756 187.085 64.2725C188.051 63.8462 188.908 63.6288 189.656 63.6202C190.09 63.6601 190.566 63.8068 191.084 64.0604C191.601 64.314 191.966 64.5536 192.177 64.779C192.599 65.2299 192.94 65.7248 193.199 66.2637C193.459 66.8027 193.569 67.2892 193.529 67.7234C193.505 67.9788 193.433 68.204 193.312 68.3989L193.309 68.4372C193.19 68.6066 193.016 68.6807 192.786 68.6596C192.607 68.6432 192.446 68.5768 192.302 68.4606C192.186 68.3212 192.136 68.1621 192.153 67.9833C192.162 67.5978 192.008 67.1716 191.691 66.7046C191.399 66.2399 191.085 66.0051 190.751 66.0001C190.651 65.9652 190.486 65.9372 190.256 65.9161C189.771 65.8715 189.222 65.9627 188.609 66.1896C188.021 66.4189 187.35 66.8594 186.594 67.5112C186.006 68.0238 185.533 68.4053 185.176 68.6557C184.82 68.8806 184.508 69.0579 184.238 69.1877C183.997 69.2942 183.754 69.4136 183.51 69.5457C183.294 69.6546 183.02 69.8355 182.687 70.0883C182.562 70.3343 182.311 70.6846 181.934 71.1394C181.56 71.5686 181.16 71.9954 180.735 72.4199C180.867 72.3806 180.986 72.3528 181.09 72.3367C181.222 72.2973 181.352 72.2835 181.48 72.2953C181.633 72.3094 181.89 72.3201 182.25 72.3274C182.612 72.3091 182.883 72.3082 183.061 72.3247L183.068 72.2481C183.08 72.1204 183.151 72.0496 183.281 72.0358L183.243 72.0323C183.531 71.9815 183.818 71.9434 184.103 71.9182C184.417 71.8697 184.73 71.8213 185.044 71.7728C185.694 71.7038 186.347 71.6092 187.001 71.4891C187.682 71.3713 188.345 71.3035 188.99 71.2855C189.195 71.3043 189.455 71.2767 189.771 71.2027C190.087 71.1287 190.359 71.1023 190.589 71.1234C190.742 71.1375 190.87 71.1492 190.972 71.1586C191.077 71.1424 191.218 71.1426 191.397 71.159C191.602 71.1778 191.788 71.2465 191.958 71.365C192.127 71.4836 192.216 71.6335 192.226 71.8146C192.181 72.0166 192.082 72.1105 191.929 72.0964C191.802 72.0847 191.636 72.0694 191.431 72.0507C191.329 72.0413 191.136 72.0365 190.853 72.0362C190.57 72.0359 190.181 72.0645 189.686 72.1221C189.322 72.1659 189.074 72.1947 188.944 72.2085C188.84 72.2246 188.722 72.2396 188.592 72.2534C188.488 72.2696 188.239 72.3111 187.847 72.3781C186.83 72.5164 185.727 72.7499 184.537 73.0784C183.374 73.4093 182.05 73.8028 180.566 74.2588C180.169 74.3768 179.726 74.5679 179.238 74.8322C178.753 75.0709 178.279 75.3235 177.816 75.5901C177.549 75.9776 177.322 76.3431 177.136 76.6865C176.978 77.0068 176.781 77.3236 176.547 77.6368L176.508 77.6333C176.278 77.8955 176.026 78.2586 175.751 78.7227C175.503 79.1892 175.252 79.6684 175.001 80.1605C174.778 80.6293 174.6 81.025 174.467 81.3476C174.335 81.6703 174.282 81.82 174.31 81.7968C174.363 81.7759 174.388 81.791 174.383 81.8421C174.406 81.87 174.39 81.9071 174.334 81.9535C174.22 82.0718 174.127 82.2436 174.055 82.4687C173.983 82.6939 173.901 82.8796 173.811 83.0258C173.695 83.1696 173.567 83.2995 173.427 83.4155C173.316 83.5083 173.219 83.5767 173.138 83.6207C173.022 83.7646 172.91 83.8573 172.803 83.899C172.697 83.9407 172.592 83.9569 172.49 83.9475Z" fill="black"/>
<path d="M113.846 151.035C112.56 150.917 111.306 150.644 110.083 150.217C108.895 149.792 107.833 149.151 106.895 148.294C106.093 147.485 105.563 146.384 105.305 144.994C105.082 143.606 105.03 142.27 105.148 140.984C105.199 140.428 105.282 139.91 105.396 139.429C105.513 138.915 105.623 138.486 105.724 138.145C106.551 135.628 107.849 133.329 109.617 131.248C111.423 129.136 113.664 127.063 116.339 125.031C116.642 124.778 116.944 124.543 117.245 124.325C117.545 124.108 117.846 123.89 118.146 123.672C118.329 123.584 118.508 123.548 118.682 123.564C118.859 123.545 119.017 123.542 119.156 123.554C119.329 123.57 119.486 123.585 119.625 123.598C119.767 123.576 119.876 123.533 119.952 123.47C120.135 123.382 120.262 123.148 120.332 122.769C120.436 122.393 120.601 122.128 120.826 121.973C121.9 121.336 123.138 120.836 124.538 120.474C125.938 120.112 127.232 119.757 128.421 119.411C129.429 119.118 130.638 118.931 132.047 118.85C133.491 118.773 134.874 118.794 136.195 118.916C137.55 119.04 138.653 119.247 139.502 119.535C140.251 119.779 140.729 120.103 140.938 120.508C141.184 120.881 141.322 121.279 141.354 121.703C141.385 122.126 141.435 122.534 141.504 122.926C141.529 123.033 141.537 123.139 141.528 123.243C141.553 123.351 141.559 123.474 141.546 123.613C141.495 124.169 141.277 124.64 140.891 125.025C140.54 125.413 140.19 125.591 139.843 125.559C139.46 125.524 139.206 125.238 139.08 124.701C139.027 124.521 138.926 124.284 138.778 123.99C138.664 123.699 138.582 123.446 138.532 123.231C138.393 122.833 138.155 122.565 137.817 122.429C137.482 122.258 137.037 122.147 136.481 122.096L136.429 122.092C136.116 122.063 135.771 121.996 135.396 121.892C135.02 121.787 134.606 121.714 134.154 121.672C133.494 121.612 132.775 121.616 131.997 121.685C131.22 121.753 130.379 121.939 129.475 122.242C126.691 123.177 123.999 124.245 121.401 125.443C118.84 126.61 116.658 128.039 114.856 129.731C114.622 129.99 114.465 130.168 114.386 130.266C114.342 130.367 114.184 130.563 113.912 130.854C113.719 131.046 113.431 131.318 113.048 131.668C112.666 132.018 112.395 132.292 112.237 132.487C111.649 133.169 111.175 133.932 110.818 134.775C110.463 135.584 110.162 136.38 109.915 137.163C109.668 137.947 109.399 138.588 109.107 139.087C108.857 139.52 108.658 139.974 108.509 140.451C108.398 140.897 108.32 141.363 108.275 141.849C108.199 142.684 108.23 143.492 108.368 144.276C108.541 145.063 108.743 145.73 108.973 146.277C109.436 147.336 110.226 148.092 111.341 148.545C112.494 148.966 113.661 149.231 114.843 149.339C115.677 149.416 116.446 149.434 117.151 149.394C117.89 149.356 118.418 149.335 118.734 149.329C118.984 149.282 119.434 149.148 120.085 148.927C120.739 148.672 121.19 148.538 121.436 148.526C121.755 148.485 122.146 148.433 122.607 148.37C123.069 148.307 123.479 148.222 123.84 148.115C125.6 147.646 127.04 147.042 128.159 146.304C129.313 145.569 130.455 144.78 131.584 143.937C132.561 143.221 133.342 142.732 133.926 142.47C134.549 142.177 134.982 142.041 135.225 142.064C135.469 142.086 135.581 142.201 135.562 142.41C135.542 142.619 135.359 142.9 135.011 143.253C134.698 143.61 134.228 143.952 133.602 144.28C132.195 145.097 130.76 146.035 129.296 147.092C127.832 148.149 126.253 148.933 124.559 149.443C124.091 149.575 123.653 149.763 123.246 150.006C122.838 150.249 122.384 150.418 121.885 150.512C121.316 150.6 120.268 150.749 118.742 150.959C117.216 151.17 115.583 151.195 113.846 151.035ZM134.612 151.838C134.309 151.705 134.186 151.326 134.244 150.701C134.279 150.318 134.371 149.889 134.52 149.412C134.703 148.938 134.947 148.382 135.251 147.744L135.237 147.9C135.306 147.907 135.387 147.791 135.479 147.554C135.571 147.318 135.601 147.18 135.569 147.142C135.623 146.937 135.783 146.724 136.049 146.503C136.352 146.25 136.488 146.105 136.457 146.067L136.461 146.015C136.544 145.882 136.552 145.795 136.485 145.754C136.419 145.713 136.449 145.576 136.576 145.342C137.032 144.578 137.394 144.068 137.663 143.812C137.935 143.522 138.235 143.111 138.564 142.581L138.555 142.685C138.589 142.688 138.637 142.552 138.697 142.277C138.792 142.006 138.9 141.788 139.02 141.624L139.011 141.728C139.058 141.592 139.139 141.477 139.253 141.382C139.404 141.256 139.499 141.177 139.537 141.145C139.901 140.618 140.148 140.22 140.278 139.952C140.442 139.686 140.605 139.438 140.767 139.208C140.966 138.946 141.279 138.589 141.706 138.138L141.654 138.133C141.809 137.972 142.027 137.694 142.309 137.299C142.625 136.908 142.9 136.582 143.134 136.324C143.406 136.033 143.536 135.957 143.523 136.096L143.518 136.149C143.509 136.253 143.662 136.109 143.979 135.718C144.295 135.326 144.671 134.853 145.108 134.297C145.548 133.706 145.946 133.182 146.304 132.724C146.665 132.232 146.884 131.936 146.963 131.839L146.959 131.891C147.038 131.793 147.198 131.58 147.438 131.251C147.716 130.891 147.875 130.696 147.913 130.664L147.86 130.659C148.259 130.135 148.523 129.739 148.653 129.47C148.821 129.17 148.987 128.888 149.151 128.622C149.354 128.325 149.688 127.936 150.153 127.452L152.193 125.274C152.382 125.116 152.618 124.84 152.9 124.445C153.219 124.019 153.524 123.749 153.815 123.636C154.324 123.437 154.936 123.265 155.65 123.121C156.399 122.979 157.051 122.934 157.608 122.985C157.99 123.02 158.296 123.118 158.527 123.28C158.795 123.41 158.931 123.65 158.934 124.001C158.851 124.519 158.604 125.109 158.193 125.773C157.785 126.401 157.203 127.013 156.447 127.61C155.998 127.919 155.472 128.116 154.868 128.201C154.268 128.251 153.828 128.456 153.55 128.816L153.602 128.821C153.169 129.342 152.621 129.957 151.96 130.668C151.337 131.346 150.869 131.864 150.556 132.221C150.246 132.543 149.904 132.827 149.531 133.073C149.158 133.319 148.851 133.607 148.611 133.935C148.026 134.582 147.589 135.138 147.301 135.602C147.013 136.066 146.725 136.531 146.437 136.995C146.187 137.428 145.757 137.914 145.147 138.454C144.04 139.438 143.281 140.262 142.87 140.926C142.461 141.554 142.189 142.23 142.052 142.953C142.207 142.792 142.378 142.65 142.565 142.527C143.4 141.833 144.536 141.096 145.975 140.317C147.448 139.541 148.954 138.786 150.494 138.051L150.598 138.06C150.633 138.064 150.814 137.993 151.143 137.848C151.507 137.706 151.891 137.531 152.295 137.323C152.738 137.083 153.106 136.889 153.4 136.741C153.697 136.558 153.794 136.461 153.69 136.452L153.638 136.447C154.042 136.239 154.728 136.021 155.695 135.795C157.307 135.417 158.686 135.281 159.833 135.386C160.598 135.456 161.143 135.629 161.468 135.904C161.752 136.246 161.869 136.695 161.818 137.251C161.779 137.668 161.629 138.162 161.366 138.734L161.376 138.63C161.341 138.626 161.259 138.759 161.129 139.027C161.002 139.261 160.861 139.459 160.706 139.62C160.659 139.755 160.516 139.97 160.279 140.264C160.045 140.523 159.928 140.652 159.928 140.652L159.933 140.6C159.721 141.001 159.518 141.298 159.325 141.491C159.136 141.648 158.905 141.872 158.633 142.163C158.282 142.551 157.809 143.121 157.214 143.873C156.654 144.627 156.091 145.417 155.524 146.241C154.993 147.068 154.605 147.856 154.361 148.605C154.304 148.845 154.119 149.144 153.806 149.5C153.527 149.86 153.398 150.129 153.416 150.306L153.412 150.358C153.405 150.427 153.467 150.521 153.596 150.638C153.726 150.755 153.804 150.85 153.833 150.922C153.924 151.071 153.961 151.249 153.941 151.458C153.913 151.771 153.745 152.071 153.438 152.358C153.131 152.645 152.665 152.76 152.04 152.703C151.588 152.661 151.302 152.53 151.182 152.309C151.097 152.09 150.979 151.852 150.827 151.593L150.875 151.071L150.662 151.104L150.558 151.095C150.418 151.082 150.305 150.984 150.217 150.8L150.221 150.748C150.234 150.609 150.217 150.415 150.17 150.165C150.16 149.884 150.162 149.674 150.175 149.535C150.197 149.292 150.335 148.936 150.588 148.469C150.842 148.001 151.112 147.536 151.4 147.071C151.691 146.572 151.9 146.206 152.027 145.972C152.204 145.568 152.604 145.027 153.227 144.348C153.851 143.669 154.51 142.976 155.206 142.269C155.905 141.527 156.435 140.91 156.795 140.417C156.998 140.12 157.145 139.853 157.237 139.616C157.332 139.345 157.389 139.105 157.408 138.896C157.443 138.514 157.347 138.225 157.12 138.028C156.93 137.801 156.664 137.654 156.319 137.587C156.18 137.574 155.934 137.587 155.58 137.624C155.264 137.63 154.926 137.687 154.565 137.794C154.423 137.816 154.132 137.929 153.693 138.134C153.288 138.343 152.903 138.535 152.536 138.712C152.204 138.891 152.09 138.986 152.194 138.996L152.246 139C151.952 139.149 151.677 139.281 151.421 139.398C151.203 139.483 150.909 139.631 150.539 139.843C150.426 139.937 150.13 140.103 149.653 140.339C149.21 140.579 148.75 140.817 148.273 141.054C147.83 141.294 147.517 141.458 147.334 141.546C145.519 142.606 143.764 143.777 142.069 145.058C140.378 146.305 138.906 147.641 137.653 149.068C137.498 149.229 137.371 149.463 137.273 149.77C137.175 150.076 137.064 150.329 136.941 150.528C136.779 150.758 136.624 150.919 136.476 151.011C136.33 151.067 136.22 151.127 136.144 151.19C135.834 151.512 135.535 151.713 135.248 151.792C134.998 151.839 134.786 151.854 134.612 151.838ZM160.464 154.843C160.047 154.805 159.71 154.651 159.455 154.383C159.199 154.114 159.095 153.719 159.143 153.197C159.156 153.058 159.186 152.921 159.233 152.785C159.246 152.646 159.276 152.509 159.324 152.373C159.707 151.251 160.301 149.939 161.105 148.436C161.909 146.932 162.931 145.344 164.171 143.67C165.446 142 166.978 140.388 168.768 138.835C170.099 137.696 171.484 136.929 172.922 136.536C174.364 136.107 175.866 135.965 177.43 136.108L177.482 136.113C178.664 136.222 179.417 136.606 179.742 137.267C180.07 137.893 180.205 138.519 180.148 139.144C180.081 139.874 179.924 140.438 179.677 140.836L179.62 140.883C179.468 141.01 179.288 141.063 179.08 141.044C178.906 141.028 178.739 140.943 178.578 140.788C178.451 140.636 178.399 140.438 178.422 140.195C178.454 139.847 178.411 139.546 178.295 139.29C178.213 139.037 178.093 138.815 177.935 138.626C177.907 138.553 177.823 138.51 177.684 138.497C177.548 138.45 177.393 138.418 177.219 138.402L177.167 138.397C177.063 138.388 176.96 138.361 176.859 138.317C176.761 138.238 176.66 138.193 176.556 138.184C175.235 138.062 173.517 138.833 171.402 140.497C169.242 142.261 167.61 143.811 166.506 145.147C165.402 146.482 164.611 147.654 164.133 148.661C163.693 149.637 163.349 150.517 163.102 151.3C163.042 151.575 163.116 151.722 163.325 151.741C163.707 151.776 164.192 151.646 164.78 151.349C165.403 151.056 166.049 150.695 166.72 150.266C167.39 149.837 168.043 149.406 168.678 148.974C169.317 148.506 169.824 148.132 170.201 147.852C170.39 147.694 170.558 147.587 170.703 147.53C170.884 147.476 171.031 147.402 171.144 147.307C171.331 147.184 171.465 147.056 171.548 146.924C171.665 146.794 171.798 146.684 171.946 146.592C173.296 145.63 174.382 144.871 175.204 144.316C176.03 143.725 176.668 143.258 177.121 142.914C177.607 142.574 178.02 142.279 178.358 142.029C178.852 141.619 179.376 141.439 179.933 141.49C180.732 141.564 181.196 142.044 181.325 142.932C181.419 143.432 181.265 143.768 180.864 143.942C180.466 144.08 180.169 144.263 179.972 144.491C179.662 144.813 179.319 145.307 178.943 145.973C178.569 146.605 178.079 147.366 177.471 148.256C177.104 148.819 176.765 149.453 176.455 150.161C176.183 150.837 176.065 151.352 176.103 151.706L177.042 151.214C177.513 151.047 178.015 150.917 178.549 150.826C179.087 150.7 179.54 150.532 179.91 150.32C180.166 150.204 180.381 150.153 180.555 150.169C180.833 150.195 180.961 150.329 180.938 150.573C180.913 150.851 180.679 151.11 180.236 151.349C179.161 151.987 178.314 152.434 177.695 152.693C177.078 152.917 176.41 153.329 175.689 153.928C175.537 154.054 175.211 154.358 174.711 154.837C174.25 155.286 173.927 155.554 173.744 155.642C173.598 155.699 173.439 155.719 173.265 155.703C173.123 155.725 172.982 155.73 172.843 155.717C172.356 155.673 172.066 155.593 171.971 155.479C171.908 155.404 171.81 155.324 171.678 155.242C171.576 155.198 171.499 155.086 171.446 154.905C171.402 154.621 171.389 154.375 171.408 154.166C171.466 153.54 171.689 152.825 172.079 152.02C172.506 151.183 173.046 150.268 173.697 149.277C174.229 148.449 174.621 147.802 174.875 147.335C175.128 146.867 175.321 146.482 175.454 146.179C175.59 145.841 175.742 145.522 175.91 145.222C175.382 145.629 174.835 146.052 174.269 146.49C173.703 146.929 173.045 147.412 172.296 147.939C172.185 147.999 172.036 148.09 171.85 148.213C171.666 148.302 171.538 148.36 171.466 148.388L169.938 149.562C168.895 150.238 167.961 150.87 167.136 151.46C166.31 152.051 165.471 152.604 164.617 153.122C163.764 153.639 162.752 154.16 161.582 154.683C161.149 154.819 160.776 154.872 160.464 154.843ZM196.339 135.111C196.026 135.082 195.827 134.959 195.742 134.741C195.694 134.491 195.663 134.26 195.647 134.049C195.629 133.872 195.611 133.677 195.596 133.466C195.58 133.254 195.582 133.044 195.601 132.835C195.627 132.557 195.684 132.317 195.772 132.115C195.899 131.881 196.09 131.706 196.346 131.589C197.184 131.246 197.889 131.013 198.461 130.89C199.033 130.767 199.493 130.722 199.84 130.754C200.362 130.802 200.695 130.99 200.84 131.319C200.985 131.647 201.035 132.055 200.991 132.542C200.978 132.681 200.965 132.82 200.952 132.959C200.943 133.063 200.913 133.2 200.862 133.371C200.716 133.813 200.34 134.094 199.733 134.214C199.161 134.336 198.676 134.467 198.278 134.606C198.021 134.722 197.712 134.852 197.348 134.994C197.023 135.104 196.721 135.146 196.443 135.121L196.339 135.111ZM182.91 156.537C182.771 156.524 182.659 156.408 182.574 156.19C182.53 155.906 182.465 155.655 182.38 155.436C182.295 155.218 182.272 154.901 182.31 154.484C182.355 153.997 182.524 153.294 182.819 152.375C183.114 151.456 183.643 150.085 184.406 148.262C184.989 146.879 185.511 145.77 185.973 144.937C186.435 144.103 186.912 143.305 187.402 142.544L187.407 142.492C187.524 142.363 187.691 142.255 187.91 142.17C188.128 142.085 188.276 141.994 188.355 141.896L188.303 141.891C188.379 141.828 188.406 141.725 188.384 141.583C188.365 141.406 188.362 141.248 188.375 141.109C188.41 140.727 188.56 140.425 188.826 140.204C189.13 139.952 189.432 139.717 189.732 139.499C190.036 139.246 190.499 138.973 191.122 138.68C191.744 138.387 192.462 138.207 193.274 138.142C193.381 138.117 193.487 138.109 193.591 138.118C193.696 138.128 193.8 138.137 193.904 138.147C194.495 138.201 194.936 138.364 195.226 138.636C195.517 138.908 195.719 139.19 195.832 139.481C195.895 139.557 195.957 139.65 196.017 139.76C196.077 139.871 196.1 139.996 196.087 140.135C196.075 140.274 195.988 140.459 195.826 140.689C195.703 140.888 195.434 141.144 195.02 141.456C194.827 141.649 194.545 141.851 194.176 142.062C193.844 142.242 193.526 142.458 193.222 142.711C192.843 143.026 192.478 143.378 192.126 143.767C191.775 144.155 191.443 144.528 191.13 144.884C190.855 145.21 190.564 145.516 190.257 145.803C189.954 146.056 189.648 146.325 189.342 146.613C189.19 146.739 189.062 146.99 188.957 147.366C188.856 147.707 188.672 147.988 188.406 148.209C188.134 148.5 187.834 148.717 187.505 148.862C187.211 149.011 186.963 149.233 186.761 149.53L186.765 149.478C186.563 149.775 186.338 150.122 186.091 150.52C185.844 150.918 185.599 151.298 185.356 151.662C184.944 152.325 184.67 152.825 184.534 153.163C184.401 153.467 184.327 153.705 184.311 153.879C184.292 154.087 184.314 154.23 184.377 154.306C184.475 154.385 184.476 154.56 184.381 154.832C184.213 155.132 183.987 155.496 183.702 155.926C183.452 156.359 183.188 156.562 182.91 156.537Z" fill="black"/>
<path d="M1.12836 106.671C15.0918 106.671 28.9883 106.11 42.9023 104.845C48.4175 104.343 54.0159 103.945 59.4208 102.678C64.2953 101.535 69.1121 100.536 74.0792 99.7938C81.6128 98.6686 89.4022 99.0229 96.8262 97.217C97.0766 97.1561 94.4593 98.0702 93.5839 98.0702" stroke="black" stroke-width="3" stroke-linecap="round"/>
<path d="M73.3284 84.6628C74.5627 84.775 75.8496 86.2772 76.6603 87.0672C78.9949 89.3424 81.5321 91.3829 83.9251 93.5936C85.22 94.7898 86.4867 96.1081 87.9096 97.1487C88.2736 97.4149 89.5456 97.8013 89.0946 97.8013" stroke="black" stroke-width="3" stroke-linecap="round"/>
<path d="M5.78107 83.5808C20.4763 83.5808 35.1464 83.538 49.8337 83.1514C55.8583 82.9929 61.9089 83.0814 67.9356 83.1171C69.3219 83.1253 70.6252 83.3927 71.9888 83.5808C72.4911 83.6501 72.8413 83.652 72.2464 83.89" stroke="black" stroke-width="3" stroke-linecap="round"/>
<path d="M92.4951 99.9653C92.9642 100.024 92.6497 106.386 92.6497 107.127C92.6497 112.418 92.7139 117.699 92.3062 122.979C91.6605 131.342 91.2367 139.718 90.563 148.08C90.2209 152.326 89.8536 156.61 89.0517 160.797C88.928 161.443 88.6309 162.153 88.6309 162.824C88.6309 165.665 87.4894 168.29 86.5356 170.913C84.4037 176.776 82.1191 182.777 81.2201 188.981C80.8475 191.552 80.4386 194.056 80.4386 196.658C80.4386 196.941 80.2875 197.729 80.7478 197.499" stroke="black" stroke-width="3" stroke-linecap="round"/>
<path d="M82.7572 198.427C83.1683 198.427 81.9518 198.259 81.555 198.152C80.6284 197.901 79.8834 197.538 79.0475 197.07C76.8476 195.839 74.4818 196.09 72.0403 196.108C70.7795 196.117 69.7139 196.534 68.5024 196.761C67.1622 197.012 65.7328 196.881 64.3719 196.881C62.9442 196.881 61.653 197.481 60.3616 198.04C59.7769 198.294 58.8152 198.803 58.7988 199.543C58.7702 200.827 58.869 201.705 59.7262 202.72C60.605 203.761 62.4474 204.085 63.6506 204.532C68.7839 206.439 74.3006 206.464 79.7001 206.464C82.3394 206.464 83.6882 205.135 83.5215 202.3C83.4119 200.437 81.6139 200.228 80.4387 199.2" stroke="black" stroke-width="3" stroke-linecap="round"/>
<path d="M63.4359 202.291C64.0211 201.812 65.2648 201.515 65.9863 201.209C66.6511 200.927 67.1699 200.745 67.8841 200.745C69.3023 200.745 71.0309 200.457 72.4009 200.78C73.3505 201.003 74.2687 201.287 75.2433 201.372C75.7572 201.417 76.6945 201.687 77.0037 202.136C77.392 202.701 78.6774 203.15 79.2536 203.519C79.692 203.8 80.0187 204.4 80.4386 204.61" stroke="black" stroke-width="3" stroke-linecap="round"/>
<path d="M84.3029 202.755C84.3029 205.941 84.3029 209.126 84.3029 212.312C84.3029 214.404 84.5218 216.628 84.2256 218.701C84.051 219.924 84.397 221.081 84.4489 222.299C84.5232 224.047 84.7662 226.234 84.3372 227.95C84.2301 228.378 84.1074 229.128 83.8048 229.461C83.6783 229.6 83.2321 230.097 83.53 229.65" stroke="black" stroke-width="3" stroke-linecap="round"/>
<path d="M58.1805 202.446C58.1805 205.784 58.3609 208.877 56.8151 211.969C56.5413 212.516 56.1711 213.214 56.1711 213.832C56.1711 214.102 56.0021 215.606 56.3256 215.12" stroke="black" stroke-width="3" stroke-linecap="round"/>
</g>
<defs>
<clipPath id="clip0_29_36">
<rect width="236" height="236" rx="118" fill="white"/>
</clipPath>
</defs>
</svg>
