<svg width="403" height="304" viewBox="0 0 403 304" fill="none" xmlns="http://www.w3.org/2000/svg">
<rect y="0.875" width="403" height="302.25" rx="24" fill="white"/>
<path d="M8 72H394V269C394 282.255 383.255 293 370 293H32C18.7452 293 8 282.255 8 269V72Z" fill="#FF8221"/>
<path d="M9.49976 72C12.6644 68.8354 14.7684 66.7552 18.464 64.3147C21.2672 62.4635 24.1594 60.0334 27.3442 58.8085C29.6786 57.9107 31.8815 57.5805 34.2796 58.1993C37.9301 59.1414 41.8352 59.0766 45.5498 60.1909C47.5815 60.8005 49.1867 62.0496 51.056 62.9323C55.5982 65.0773 59.3904 67.8912 63.4976 70.7347C64.6585 71.5384 65.5708 72.7151 66.7545 73.4761C69.0708 74.9652 72.8323 74.7414 75.4707 74.7414C85.4908 74.7414 95.5427 68.3798 103.751 63.1432C106.711 61.255 109.559 59.2929 112.678 57.6604C115.891 55.9792 119.557 53.6023 123.175 52.904C125.183 52.5165 127.537 52.8103 129.572 52.8103C133.386 52.8103 136.445 53.2971 140.045 54.4973C145.227 56.2244 149.219 62.8228 152.182 66.9624C153.961 69.4471 155.877 71.1719 157.97 73.2652C159.611 74.9066 162.561 75.2184 164.648 76.0066C169.322 77.7725 172.471 75.556 176.738 73.5698C180.646 71.7503 185.434 70.7556 189.578 69.4695C193.965 68.108 197.939 66.3417 201.996 64.1507C205.15 62.4477 208.401 60.877 211.509 59.1366C215.97 56.6381 221.688 55.9449 226.668 55.1299C235.886 53.6216 245.228 50.6335 254.621 52.5994C260.794 53.8913 267.12 54.6679 272.991 57.1215C276.068 58.4076 278.9 60.0788 281.801 61.6905C285.755 63.8871 289.349 66.7314 292.508 69.8912C293.413 70.796 294.442 71.461 295.062 72.6326C295.33 73.1377 296.937 76.4942 296.937 74.3196" stroke="#FF8221" stroke-width="3" stroke-linecap="round"/>
<path d="M11.5 72C10.7278 72 12.4502 72.2586 13.1017 71.844C13.4802 71.6032 13.6825 71.6125 13.0661 71.6125C12.3257 71.6125 12.7332 72 12 72C11.046 72 12.166 72 13 72C14.0478 72 12.5626 71.4045 13.5113 71.1673C14.2862 70.9736 15.1708 70.8514 15.9152 70.5619C16.6821 70.2637 16.9227 70.0099 15.9954 70.0099C15.6634 70.0099 15.4421 70.2878 15.105 70.3215C14.6635 70.3656 14.2044 70.3304 13.7606 70.3304C12.7704 70.3304 13.5812 70.1701 14.1612 70.1701C15.9331 70.1701 17.7049 70.1701 19.4767 70.1701C20.5063 70.1701 21.5252 70.1055 19.8328 70.6153C18.8134 70.9224 16.9166 72.0977 16.0043 71.1317C15.6821 70.7906 14.8801 70.0459 14.8023 69.6181C14.6255 68.6459 15.7209 68.4941 16.494 68.1757C17.4225 67.7934 18.3603 67.4963 19.263 67.045C19.7918 66.7806 20.1638 66.312 20.741 66.1546C22.4498 65.6886 24.1974 65.2042 25.8517 64.5609C26.7194 64.2234 27.5714 63.8612 28.4337 63.5102C28.5299 63.4711 29.7049 63.1245 29.3419 62.9938C27.9945 62.5088 27.308 62.5972 26.1366 63.3144C24.8441 64.1057 22.9532 64.7246 21.3999 64.552C20.9184 64.4985 23.3443 63.2262 23.5367 63.1096C25.7497 61.7684 28.5473 60.2337 31.1938 60.2337C32.1328 60.2337 33.0882 60.1786 34.0251 60.2337C34.4769 60.2603 33.7151 60.6505 33.6156 60.6789C33.0012 60.8544 32.4436 61.2381 31.9239 61.6049C31.568 61.8561 31.6912 62.042 31.6123 62.3973C31.5224 62.8019 30.5151 63.3425 30.2144 63.5281C28.3022 64.7079 26.0684 64.8633 24.4093 66.4039C23.7402 67.0252 23.3923 67.7382 22.5484 68.2291C21.6992 68.7233 20.6044 69.1334 19.6102 69.1996C19.2146 69.226 18.8137 69.2085 18.4172 69.2085C18.2106 69.2085 18.8435 69.2032 19.0315 69.2887C19.3849 69.4493 19.8581 69.379 20.2246 69.2976C21.3478 69.048 22.8384 68.6949 23.9819 68.9236C24.4438 69.016 23.3413 71.766 23.1272 72.1823C23.0203 72.3902 22.0004 71.933 21.5245 71.933C20.8249 71.933 20.4527 71.2661 19.9219 70.8112" stroke="#FF8221" stroke-width="3" stroke-linecap="round"/>
<path d="M25.6914 70.4907C23.732 70.4907 27.2198 73.9347 27.8639 71.9687C28.1407 71.1236 27.5988 70.7392 26.7954 70.6866C26.6002 70.6738 25.3411 70.6045 25.5133 71.1318C25.7537 71.8679 27.5058 71.7584 28.0419 71.7461C30.0462 71.7 31.7749 71.008 33.2772 69.6983C33.6695 69.3564 34.788 68.47 34.3813 67.8464C33.8595 67.0463 32.3773 67.2854 31.5678 67.2854C30.8798 67.2854 30.8156 67.6183 31.4787 67.9621C33.0527 68.7782 34.9906 68.5675 36.714 68.5675C37.4295 68.5675 37.2162 68.0887 37.6756 67.7128C37.7046 67.6891 37.865 68.229 37.8715 68.247C37.9962 68.5933 38.1675 68.8438 38.5304 68.9593C39.0928 69.1382 41.1871 69.3474 41.7178 68.9415C42.141 68.6179 42.1986 68.1284 42.1986 67.6416C42.1986 66.9139 41.5868 67.0025 41.0056 66.956C40.2854 66.8984 39.6596 66.5512 38.9755 66.4752C38.5098 66.4234 38.1148 66.1636 37.64 66.1636C36.8801 66.1636 38.3583 67.5929 38.4769 67.695C40.4197 69.3666 43.021 69.5271 44.9944 71.0071C47.2439 72.6943 50.518 72.5495 53.15 73.2864C53.8455 73.4812 53.7586 73.7603 54.3075 74.2569C54.5676 74.4922 55.1166 74.5722 55.189 74.898C55.2415 75.1345 55.4452 75.6296 55.6609 75.7438C55.9396 75.8914 55.7986 74.8301 55.7855 74.7466C55.4866 72.8448 52.6474 71.4844 51.2002 70.6243C49.8604 69.828 47.7079 68.7278 46.045 68.7278" stroke="#FF8221" stroke-width="16" stroke-linecap="round"/>
<path d="M59.3091 74.1169C61.51 73.7783 63.6599 73.0401 65.8086 72.4801C69.8767 71.4199 73.9406 70.7923 78.1403 70.6049C81.3495 70.4618 84.5354 70.6844 87.7307 70.6844C88.9393 70.6844 90.1483 70.6975 91.354 70.597C95.0053 70.2927 98.5638 68.8836 102.057 67.8716C105.105 66.9885 108.222 66.2866 111.242 65.3052C114.178 64.3509 116.838 62.3618 119.847 61.6263C120.983 61.3486 122.286 61.2057 123.447 61.1337C126.408 60.9499 129.399 61.0842 132.338 61.4515C132.527 61.4752 134.422 61.4886 133.681 61.674" stroke="#FF8221" stroke-width="16" stroke-linecap="round"/>
<g clip-path="url(#clip0_29_20)">
<path d="M392.79 73.3135C387.835 73.3135 382.873 73.3982 377.919 73.2587C371.543 73.079 365.184 72.3388 358.823 71.8868C346.031 70.9779 333.067 70.96 320.467 68.3886C317.2 67.7219 314.068 66.5848 310.809 65.9331C308.18 65.4072 305.465 65.3386 302.798 65.1099C298.922 64.7778 294.993 64.9146 291.576 67.0031C290.694 67.542 290.883 67.7976 291.891 68.0457C295.575 68.9515 299.376 70.1614 303.154 70.5699C304.842 70.7524 301.377 69.6337 301.042 69.4587C296.125 66.8963 291.45 63.8849 286.528 61.3237C284.134 60.0781 281.657 58.8158 279.147 57.8118C277.565 57.1788 275.865 57.7336 274.25 57.8666C272.087 58.0447 269.901 58.0262 267.733 57.9901C266.671 57.9724 265.157 58.1229 264.194 57.51C263.886 57.3142 263.285 57.0373 263.151 56.7692" stroke="#FF8221" stroke-width="16" stroke-linecap="round"/>
</g>
<path d="M33.0293 264.865C33.0293 263.332 34.8386 262.414 35.9004 261.458C39.3971 258.311 43.1911 256.978 47.9209 256.978C51.8853 256.978 53.3832 259.31 56.4395 261.332C59.5718 263.404 63.5138 263.162 67.1034 263.162" stroke="#FF4202" stroke-width="16" stroke-linecap="round"/>
<path d="M38.7085 223.409C42.7794 219.338 45.651 217.547 51.7387 216.909C58.0766 216.245 65.1684 214.754 71.0789 217.603C79.6517 221.737 87.8616 226.541 97.0762 229.245C106.334 231.962 114.602 230.171 123.326 226.816" stroke="#FF4202" stroke-width="16" stroke-linecap="round"/>
<path d="M265.301 237.038C270.517 231.823 276.125 231.104 283.222 234.167C291.462 237.724 297.021 245.619 304.739 250.1C310.905 253.681 316.863 253.507 323.795 253.507" stroke="#FF4202" stroke-width="16" stroke-linecap="round"/>
<path d="M298.807 185.927C299.32 180.293 308.865 174.572 313.699 172.865C316.813 171.766 321.889 170.112 324.931 172.108C327.315 173.673 329.598 175.556 331.872 177.282C337.89 181.853 344.407 185.726 351.938 186.937C355.937 187.579 359.633 186.319 363.548 185.927" stroke="#FF4202" stroke-width="16" stroke-linecap="round"/>
<path d="M151.153 272.816C152.755 272.683 154.227 272.003 155.696 271.396C158.653 270.175 161.292 269.977 164.467 269.977C169.865 269.977 174.544 270.526 179.863 271.428C191.931 273.475 204.208 275.088 216.462 275.088" stroke="#FF4202" stroke-width="16" stroke-linecap="round"/>
<path d="M39.8442 148.446C40.2575 138.114 50.877 128.075 61.109 133.396C66.0875 135.985 70.9378 138.817 76.0953 141.094C83.9459 144.561 92.6723 146.863 100.042 151.285" stroke="#FF4202" stroke-width="16" stroke-linecap="round"/>
<path d="M268.708 122.322C269.274 120.907 272.049 119.795 273.189 119.041C278.71 115.388 284.244 111.729 289.879 108.251C298.818 102.732 309.036 101.137 319.473 101.972C326.848 102.562 330.856 107.386 337.425 109.576C343.033 111.445 349.375 111.735 355.219 111.974C357.736 112.076 362.544 112.959 364.684 111.532" stroke="#FF4202" stroke-width="16" stroke-linecap="round"/>
<path d="M119.421 68.8134C119.904 68.8134 120.75 68.5733 120.75 69.2268C120.75 69.4751 120.914 70.8357 120.602 70.9246C120.109 71.0657 119.024 71.0366 118.521 70.9246C117.955 70.7989 118.301 69.7604 117.694 69.6254C114.941 69.0136 123.319 70.1421 126.139 70.1421C129.041 70.1421 131.87 70.1287 134.717 70.8065C137.93 71.5716 141.486 70.5689 144.756 71.1461C146.858 71.517 148.921 71.4709 151.046 71.4709C151.577 71.4709 154.215 71.6916 152.7 71.1461C150.868 70.4867 149.181 68.8351 147.857 67.4846C146.838 66.4451 145.847 65.3008 145.45 63.9117C145.16 62.8941 142.855 61.8454 142.01 61.1213C141.743 60.8925 139.213 58.2076 139.102 58.5966C138.723 59.9215 138.874 62.5819 139.22 63.8969C140.37 68.2669 145.44 68.4782 148.861 70.467C150.92 71.6644 153.38 72.1111 155.623 72.8587C156.756 73.2366 158.428 74.6915 157.956 72.7997" stroke="#FF8221" stroke-width="8" stroke-linecap="round"/>
<path d="M186.657 73.8627C184.854 73.8627 187.743 72.7507 188.192 72.593C191.266 71.5153 193.954 69.5204 196.962 68.2819C199.101 67.4012 201.319 66.9004 203.399 65.8901C205.943 64.6544 208.713 63.8788 211.402 62.9668C213.405 62.2872 215.446 61.5206 217.337 60.575C218.192 60.1474 218.99 59.6005 219.847 59.1872C220.848 58.7038 221.993 58.6229 222.947 58.0503C223.99 57.4245 225.639 57.1158 226.815 56.8545C228.306 56.5232 229.72 55.8628 231.171 55.5405C233.855 54.944 236.792 54.9942 239.542 54.9942C241.574 54.9942 243.607 54.9942 245.64 54.9942C246.466 54.9942 247.289 54.8821 248.046 55.2009C248.901 55.5608 250.11 55.1481 251.028 55.319C253.351 55.7511 255.648 56.2723 258.027 56.3229C261.194 56.3903 264.387 57.1418 267.446 57.9175C269.705 58.4902 272.495 59.1765 272.495 61.8447C272.495 64.5779 272.437 67.3965 274.503 69.463C275.151 70.1107 276.562 69.8764 277.427 69.8764C278.979 69.8764 280.845 70.4419 282.181 71.2052C282.669 71.4842 282.789 71.6662 282.195 71.0723C280.781 69.6575 277.693 69.5571 275.891 68.9315C271.384 67.3666 267.018 66.5483 262.279 66.4068C259.48 66.3233 256.554 65.896 253.804 65.3586C250.078 64.6306 246.273 64.8271 242.495 64.8271C238.527 64.8271 234.582 66.3536 230.743 67.2189C228.248 67.7809 225.666 67.5973 223.154 68.0161C220.438 68.4688 217.67 68.6237 214.945 69.0201C211.819 69.4747 208.903 69.8603 205.895 70.9542C204.458 71.4766 203.094 72.0024 201.554 72.0024C200.986 72.0024 199.811 71.7881 199.325 72.1353C197.325 73.5637 203.977 70.4573 206.086 69.1972C208.562 67.719 210.989 66.4616 213.823 65.8163C216.026 65.3146 218.283 65.0482 220.496 64.5761C223.42 63.9524 226.382 62.9992 229.355 62.6863C231.366 62.4745 233.241 61.5771 235.29 61.3723C240.683 60.8329 246.117 60.6995 251.53 61.0475C256.5 61.3669 261.459 61.5835 266.413 62.1105C266.92 62.1645 269.787 62.1094 269.838 62.9668C269.928 64.4924 268.746 65.1117 267.505 64.8861C264.374 64.3167 261.119 65.1571 258.204 66.1854C251.601 68.5141 245.2 69.6606 238.361 70.8803C235.735 71.3486 233.078 71.8154 230.506 72.4749C229.646 72.6956 228.038 73.3017 227.184 73.3017C226.523 73.3017 228.323 72.1711 228.395 72.1501C229.967 71.6916 231.968 72.0024 233.592 72.0024C242.502 72.0024 251.389 72.0213 260.285 72.2829C267.025 72.4812 273.788 72.3614 280.483 73.1983C281.882 73.3732 283.283 73.3312 284.691 73.3312C285.699 73.3312 285.881 73.0654 284.72 73.0654" stroke="#FF8221" stroke-width="8" stroke-linecap="round"/>
<defs>
<clipPath id="clip0_29_20">
<rect width="131" height="16" fill="white" transform="translate(263 57)"/>
</clipPath>
</defs>
</svg>
