<svg width="236" height="236" viewBox="0 0 236 236" fill="none" xmlns="http://www.w3.org/2000/svg">
<circle cx="118" cy="118" r="114" fill="white" stroke="#F0F0F0" stroke-width="8"/>
<path d="M96.9392 101.342C96.9392 101.874 96.6493 102.611 96.0695 103.553H95.381L94.6563 104.241L94.7287 105.039L93.9678 105.727L92.6632 107.285L90.2716 109.206L89.6193 109.858L89.0033 109.641C88.7134 109.496 88.5202 109.423 88.4235 109.423C88.1578 109.423 87.7834 109.665 87.3002 110.148C87.6867 110.317 87.88 110.547 87.88 110.836C87.88 110.981 87.8558 111.078 87.8075 111.126L84.4013 115.149C84.208 115.342 84.1114 115.583 84.1114 115.873C84.1114 116.671 84.5583 117.516 85.4521 118.41L84.7636 118.7C84.8119 119.4 85.1139 119.992 85.6695 120.475C85.1622 121.369 84.6187 121.816 84.0389 121.816H83.894L81.8285 121.454C80.8138 121.285 80.2582 121.007 80.1616 120.62L79.8717 119.497L79.4368 118.917L79.3644 118.337V118.011L80.0166 117.649V117.069L80.0891 116.562L81.2849 115.438L83.5316 112.105L85.8145 109.931C87.1915 108.698 88.0853 107.986 88.496 107.793C89.5348 107.213 90.1025 106.79 90.1991 106.524L90.5615 104.966L91.3949 103.118L91.1051 102.212L90.8514 101.85C90.5615 101.342 90.3199 100.908 90.1267 100.545C89.9334 100.183 89.7885 99.9533 89.6918 99.8567C89.5227 99.7601 89.4382 99.6876 89.4382 99.6393L89.0033 99.0233L88.2786 99.1682L84.6912 97.8275L83.894 97.6825L84.1114 96.7404L83.4591 96.4505C83.2417 96.4505 82.9156 96.6196 82.4807 96.9578L82.3358 97.4651L81.7197 97.3926L78.241 97.61L76.4654 97.4651C75.789 97.5134 74.4845 98.1053 72.5519 99.2407C71.8996 99.6514 71.5735 99.9775 71.5735 100.219C71.5735 100.533 71.7184 100.932 72.0083 101.415L72.2982 102.067L71.7184 102.828C70.8004 103.988 70.3052 104.58 70.2327 104.604L69.5805 104.894L68.5296 105.546C68.433 105.667 68.288 105.727 68.0947 105.727L67.4787 105.618C66.8748 105.546 66.4883 105.425 66.3191 105.256C66.15 105.087 66.0655 104.725 66.0655 104.169C66.0655 103.178 66.2708 102.454 66.6815 101.995L67.7686 100.726L68.3122 100.002L69.5805 99.1682L72.0808 97.0303L74.4724 95.9069L76.0306 95.1097L77.4438 94.9648L79.0745 94.2038H80.7051L81.8285 93.9139C82.3116 94.1555 82.6257 94.2763 82.7706 94.2763L83.8215 93.9864L88.496 94.1313C89.2932 94.1313 89.8609 94.3004 90.1991 94.6386L91.4674 95.617C91.6848 95.8344 92.3733 96.0519 93.5329 96.2693L94.3664 96.4505C94.5838 96.9095 95.1032 97.7187 95.9245 98.8783C96.601 99.893 96.9392 100.714 96.9392 101.342ZM87.3727 138.956L86.6479 139.717L86.1044 140.587L84.1114 141.928L83.6041 142.58C83.0484 142.435 82.7223 142.314 82.6257 142.217L81.5748 140.949L80.1616 139.608L79.2194 138.304C79.2194 138.256 79.2073 138.231 79.1832 138.231C79.1832 138.231 79.1711 138.231 79.1469 138.231L77.8787 137.688L78.0236 137.108L78.857 136.564L80.9225 135.332L81.9009 134.427L82.6981 133.992L83.6765 134.934L86.8654 137.325C86.9861 137.446 87.0828 137.724 87.1553 138.159L87.3727 138.956ZM132.741 101.342C132.741 101.874 132.451 102.611 131.871 103.553H131.183L130.458 104.241L130.531 105.039L129.77 105.727L128.465 107.285L126.073 109.206L125.421 109.858L124.805 109.641C124.515 109.496 124.322 109.423 124.225 109.423C123.96 109.423 123.585 109.665 123.102 110.148C123.489 110.317 123.682 110.547 123.682 110.836C123.682 110.981 123.658 111.078 123.609 111.126L120.203 115.149C120.01 115.342 119.913 115.583 119.913 115.873C119.913 116.671 120.36 117.516 121.254 118.41L120.565 118.7C120.614 119.4 120.916 119.992 121.471 120.475C120.964 121.369 120.421 121.816 119.841 121.816H119.696L117.63 121.454C116.616 121.285 116.06 121.007 115.963 120.62L115.674 119.497L115.239 118.917L115.166 118.337V118.011L115.818 117.649V117.069L115.891 116.562L117.087 115.438L119.333 112.105L121.616 109.931C122.993 108.698 123.887 107.986 124.298 107.793C125.337 107.213 125.904 106.79 126.001 106.524L126.363 104.966L127.197 103.118L126.907 102.212L126.653 101.85C126.363 101.342 126.122 100.908 125.929 100.545C125.735 100.183 125.59 99.9533 125.494 99.8567C125.325 99.7601 125.24 99.6876 125.24 99.6393L124.805 99.0233L124.08 99.1682L120.493 97.8275L119.696 97.6825L119.913 96.7404L119.261 96.4505C119.044 96.4505 118.717 96.6196 118.283 96.9578L118.138 97.4651L117.522 97.3926L114.043 97.61L112.267 97.4651C111.591 97.5134 110.286 98.1053 108.354 99.2407C107.701 99.6514 107.375 99.9775 107.375 100.219C107.375 100.533 107.52 100.932 107.81 101.415L108.1 102.067L107.52 102.828C106.602 103.988 106.107 104.58 106.035 104.604L105.382 104.894L104.331 105.546C104.235 105.667 104.09 105.727 103.897 105.727L103.281 105.618C102.677 105.546 102.29 105.425 102.121 105.256C101.952 105.087 101.867 104.725 101.867 104.169C101.867 103.178 102.073 102.454 102.483 101.995L103.57 100.726L104.114 100.002L105.382 99.1682L107.883 97.0303L110.274 95.9069L111.832 95.1097L113.246 94.9648L114.876 94.2038H116.507L117.63 93.9139C118.113 94.1555 118.428 94.2763 118.572 94.2763L119.623 93.9864L124.298 94.1313C125.095 94.1313 125.663 94.3004 126.001 94.6386L127.269 95.617C127.487 95.8344 128.175 96.0519 129.335 96.2693L130.168 96.4505C130.386 96.9095 130.905 97.7187 131.726 98.8783C132.403 99.893 132.741 100.714 132.741 101.342ZM123.175 138.956L122.45 139.717L121.906 140.587L119.913 141.928L119.406 142.58C118.85 142.435 118.524 142.314 118.428 142.217L117.377 140.949L115.963 139.608L115.021 138.304C115.021 138.256 115.009 138.231 114.985 138.231C114.985 138.231 114.973 138.231 114.949 138.231L113.681 137.688L113.825 137.108L114.659 136.564L116.724 135.332L117.703 134.427L118.5 133.992L119.478 134.934L122.667 137.325C122.788 137.446 122.885 137.724 122.957 138.159L123.175 138.956ZM168.543 101.342C168.543 101.874 168.253 102.611 167.673 103.553H166.985L166.26 104.241L166.332 105.039L165.571 105.727L164.267 107.285L161.875 109.206L161.223 109.858L160.607 109.641C160.317 109.496 160.124 109.423 160.027 109.423C159.762 109.423 159.387 109.665 158.904 110.148C159.29 110.317 159.484 110.547 159.484 110.836C159.484 110.981 159.46 111.078 159.411 111.126L156.005 115.149C155.812 115.342 155.715 115.583 155.715 115.873C155.715 116.671 156.162 117.516 157.056 118.41L156.367 118.7C156.416 119.4 156.718 119.992 157.273 120.475C156.766 121.369 156.222 121.816 155.643 121.816H155.498L153.432 121.454C152.418 121.285 151.862 121.007 151.765 120.62L151.475 119.497L151.041 118.917L150.968 118.337V118.011L151.62 117.649V117.069L151.693 116.562L152.889 115.438L155.135 112.105L157.418 109.931C158.795 108.698 159.689 107.986 160.1 107.793C161.139 107.213 161.706 106.79 161.803 106.524L162.165 104.966L162.999 103.118L162.709 102.212L162.455 101.85C162.165 101.342 161.924 100.908 161.73 100.545C161.537 100.183 161.392 99.9533 161.296 99.8567C161.126 99.7601 161.042 99.6876 161.042 99.6393L160.607 99.0233L159.882 99.1682L156.295 97.8275L155.498 97.6825L155.715 96.7404L155.063 96.4505C154.845 96.4505 154.519 96.6196 154.084 96.9578L153.94 97.4651L153.323 97.3926L149.845 97.61L148.069 97.4651C147.393 97.5134 146.088 98.1053 144.156 99.2407C143.503 99.6514 143.177 99.9775 143.177 100.219C143.177 100.533 143.322 100.932 143.612 101.415L143.902 102.067L143.322 102.828C142.404 103.988 141.909 104.58 141.836 104.604L141.184 104.894L140.133 105.546C140.037 105.667 139.892 105.727 139.698 105.727L139.082 105.618C138.479 105.546 138.092 105.425 137.923 105.256C137.754 105.087 137.669 104.725 137.669 104.169C137.669 103.178 137.875 102.454 138.285 101.995L139.372 100.726L139.916 100.002L141.184 99.1682L143.685 97.0303L146.076 95.9069L147.634 95.1097L149.048 94.9648L150.678 94.2038H152.309L153.432 93.9139C153.915 94.1555 154.229 94.2763 154.374 94.2763L155.425 93.9864L160.1 94.1313C160.897 94.1313 161.465 94.3004 161.803 94.6386L163.071 95.617C163.289 95.8344 163.977 96.0519 165.137 96.2693L165.97 96.4505C166.188 96.9095 166.707 97.7187 167.528 98.8783C168.205 99.893 168.543 100.714 168.543 101.342ZM158.976 138.956L158.252 139.717L157.708 140.587L155.715 141.928L155.208 142.58C154.652 142.435 154.326 142.314 154.229 142.217L153.179 140.949L151.765 139.608L150.823 138.304C150.823 138.256 150.811 138.231 150.787 138.231C150.787 138.231 150.775 138.231 150.751 138.231L149.482 137.688L149.627 137.108L150.461 136.564L152.526 135.332L153.505 134.427L154.302 133.992L155.28 134.934L158.469 137.325C158.59 137.446 158.687 137.724 158.759 138.159L158.976 138.956Z" fill="black"/>
</svg>
