<svg width="114" height="69" viewBox="0 0 114 69" fill="none" xmlns="http://www.w3.org/2000/svg">
<path fill-rule="evenodd" clip-rule="evenodd" d="M110.445 50.1848C103.059 31.6701 84.965 18.5869 63.8152 18.5869H50.1848C29.035 18.5869 10.9411 31.6701 3.55454 50.1848H0C0 22.4685 22.4685 -7.62939e-06 50.1848 -7.62939e-06H63.8152C91.5315 -7.62939e-06 114 22.4685 114 50.1848H110.445Z" fill="black"/>
<path fill-rule="evenodd" clip-rule="evenodd" d="M110.445 18.587C103.059 37.1016 84.965 50.1848 63.8152 50.1848H50.1848C29.035 50.1848 10.9411 37.1016 3.55454 18.587H0C0 46.3032 22.4685 68.7717 50.1848 68.7717H63.8152C91.5315 68.7717 114 46.3032 114 18.587H110.445Z" fill="black"/>
</svg>
